<?xml version="1.0" encoding="UTF-8" standalone="no"?>
<svg
   xmlns:dc="http://purl.org/dc/elements/1.1/"
   xmlns:cc="http://creativecommons.org/ns#"
   xmlns:rdf="http://www.w3.org/1999/02/22-rdf-syntax-ns#"
   xmlns:svg="http://www.w3.org/2000/svg"
   xmlns="http://www.w3.org/2000/svg"
   xmlns:sodipodi="http://sodipodi.sourceforge.net/DTD/sodipodi-0.dtd"
   xmlns:inkscape="http://www.inkscape.org/namespaces/inkscape"
   version="1.1"
   id="svg2"
   xml:space="preserve"
   width="4000"
   height="2666.6667"
   viewBox="0 0 4000 2666.6667"
   sodipodi:docname="11101.eps"><metadata
     id="metadata8"><rdf:RDF><cc:Work
         rdf:about=""><dc:format>image/svg+xml</dc:format><dc:type
           rdf:resource="http://purl.org/dc/dcmitype/StillImage" /></cc:Work></rdf:RDF></metadata><defs
     id="defs6" /><sodipodi:namedview
     pagecolor="#ffffff"
     bordercolor="#666666"
     borderopacity="1"
     objecttolerance="10"
     gridtolerance="10"
     guidetolerance="10"
     inkscape:pageopacity="0"
     inkscape:pageshadow="2"
     inkscape:window-width="640"
     inkscape:window-height="480"
     id="namedview4" /><g
     id="g10"
     inkscape:groupmode="layer"
     inkscape:label="ink_ext_XXXXXX"
     transform="matrix(1.3333333,0,0,-1.3333333,0,2666.6667)"><g
       id="g12"
       transform="scale(0.1)"><path
         d="M 30000,0 H 0 V 20000 H 30000 V 0"
         style="fill:#ffffff;fill-opacity:1;fill-rule:nonzero;stroke:none"
         id="path14" /><path
         d="m 27418.4,1913.8 c -1555.9,0 -24221.57,-5.5 -24234.67,34.3 l -2.22,5.1 c 0,0 -2.21,4.9 -2.21,7.3 -8.67,20 -4707.67,3939.8 708.03,7835.2 2119,1524.1 54.44,2826.6 1739.46,4523.4 1936.53,1949.9 5078.21,1172.4 7231.61,2056.6 380.5,156.1 762.2,407.3 1144.4,792.8 215.2,216.8 450.9,406.3 703.3,570 38.7,25.2 77.8,49.8 117.3,73.7 151.2,91.5 307.9,174.3 469.3,248.7 108.4,49.9 218.8,96 331.4,138.5 h 0.1 c 178.5,67.3 361.9,125.5 549.2,174.5 266,69.9 539.9,121.8 819.2,156.9 121.8,15.5 244.7,27.6 368.4,36.7 2406.1,176.6 5113.8,-816.7 6511.2,-2268.4 281.3,-292.4 1560.6,-1805 552.2,-3884.1 -636.8,-1312.7 2030.6,-2566.4 2978.4,-4065.4 2409.7,-3811.1 37.5,-6386.2 15.6,-6435.8"
         style="fill:#ebf3fa;fill-opacity:1;fill-rule:nonzero;stroke:none"
         id="path16" /><path
         d="m 11760.4,13375.4 c 0,0 675.1,-1290.7 427.1,-1401.5 -247.9,-110.8 -648.5,1492.5 -648.5,1492.5 0,0 -1459.3,224.4 -1943.95,23.8 0,0 1196.85,-1096.5 929.35,-1142.9 -267.6,-46.3 -1566.08,1036.9 -1566.08,1036.9 0,0 -1378.56,-156 -1352.32,-993.1 26.23,-837.2 482.38,-1120.7 690.43,-1110.1 208.05,10.6 1443.61,404.7 1460.48,233.8 16.88,-170.9 -742.28,-684 -1253.66,-681.4 0,0 903.39,-1115.5 1560.35,-844.9 657,270.7 738.8,753.4 1147.8,913.2 409.1,159.9 749.5,140.4 574.5,-36.2 -175.1,-176.6 -907,-316.8 -1157.7,-707.5 -250.7,-390.7 -470.5,-651.4 197,-588.8 667.6,62.6 1770.8,486.8 1849,1038.9 3.4,24 6.7,47 9.8,69 -1.5,-44.1 -9.8,-69 -9.8,-69 136.5,-32.3 408.6,-301.8 604.6,-512.4 30,-36.9 75,-86.8 139.5,-153.6 v 0 c 27.3,-30.8 49.3,-56.1 64.6,-73.7 390.3,-486.7 564.6,-1479.3 564.6,-1479.3 l 145.2,4.8 c 3.6,1055.1 -759.6,1688.4 -759.6,1688.4 -529.8,525.1 -680.6,1077.8 -680.6,1077.8 0,0 1002,1044.8 158.3,1791.3 0,0 -622.9,426.4 -1150.4,424"
         style="fill:#dfebfd;fill-opacity:1;fill-rule:nonzero;stroke:none"
         id="path18" /><path
         d="m 18256,16276.5 c 0,0 -675.1,-1290.8 -427.2,-1401.6 248,-110.7 648.6,1492.6 648.6,1492.6 0,0 1459.2,224.3 1943.9,23.8 0,0 -1196.9,-1096.6 -929.3,-1142.9 267.6,-46.3 1566,1036.9 1566,1036.9 0,0 1378.6,-156.1 1352.4,-993.2 -26.3,-837.1 -482.4,-1120.6 -690.5,-1110 -208,10.6 -1443.6,404.7 -1460.4,233.8 -16.9,-170.9 742.2,-684 1253.6,-681.4 0,0 -903.4,-1115.6 -1560.4,-844.9 -656.9,270.6 -738.7,753.3 -1147.8,913.2 -409,159.9 -749.5,140.4 -574.4,-36.2 175.1,-176.6 907,-316.8 1157.7,-707.5 250.6,-390.8 470.5,-651.4 -197.1,-588.8 -667.5,62.6 -1770.7,486.8 -1849,1038.8 -3.4,24.1 -6.6,47.1 -9.7,69.1 1.4,-44.1 9.7,-69.1 9.7,-69.1 -136.5,-32.3 -408.5,-301.7 -604.6,-512.3 -30,-36.9 -74.9,-86.9 -139.4,-153.6 0,0 0,0 0,0 -27.3,-30.8 -49.3,-56.1 -64.6,-73.7 -390.4,-486.7 -564.7,-1479.4 -564.7,-1479.4 l -145.2,4.9 c -3.5,1055.1 759.7,1688.3 759.7,1688.3 529.8,525.2 680.6,1077.9 680.6,1077.9 0,0 -1002,1044.8 -158.3,1791.2 0,0 622.9,426.4 1150.4,424.1"
         style="fill:#dfebfd;fill-opacity:1;fill-rule:nonzero;stroke:none"
         id="path20" /><path
         d="m 13163.3,13042.4 c 0,0 -171.1,2012.7 -1687.4,2455.5 0,0 -295.7,81.6 -445.1,-235.2 -149.3,-316.8 449.1,-407.8 799.5,-596 350.5,-188.1 1129.7,-881.3 1333,-1624.3"
         style="fill:#dfebfd;fill-opacity:1;fill-rule:nonzero;stroke:none"
         id="path22" /><path
         d="m 13181.4,13249 c 0,0 -1055.6,1214.9 -1868.7,1060.4 -813.1,-154.5 -571.2,-544.1 -326.4,-507.9 244.7,36.2 721.1,200.8 1164.9,-5.8 443.8,-206.6 1030.2,-546.7 1030.2,-546.7"
         style="fill:#dfebfd;fill-opacity:1;fill-rule:nonzero;stroke:none"
         id="path24" /><path
         d="m 19919.1,14395.9 v -167.5 h -7381.2 v 167.5 c 0,281.5 306.3,509.5 684.2,509.5 H 19235 c 377.9,0 684.1,-228 684.1,-509.5"
         style="fill:#f77d48;fill-opacity:1;fill-rule:nonzero;stroke:none"
         id="path26" /><path
         d="M 19919.1,14228.4 V 2732.1 c 0,-385.3 -306.2,-697.5 -684.1,-697.5 h -6012.9 c -377.9,0 -684.2,312.2 -684.2,697.5 v 11496.3 h 7381.2"
         style="fill:#c2cfff;fill-opacity:1;fill-rule:nonzero;stroke:none"
         id="path28" /><path
         d="m 13222.1,14819.6 c -330,0 -598.4,-268.3 -598.4,-598.3 V 2718.7 c 0,-329.9 268.4,-598.3 598.4,-598.3 H 19235 c 329.9,0 598.3,268.4 598.3,598.3 v 11502.6 c 0,330 -268.4,598.3 -598.3,598.3 z M 19235,1948.7 h -6012.9 c -424.7,0 -770.1,345.4 -770.1,770 v 11502.6 c 0,424.6 345.4,770.1 770.1,770.1 H 19235 c 424.6,0 770.1,-345.5 770.1,-770.1 V 2718.7 c 0,-424.6 -345.5,-770 -770.1,-770"
         style="fill:#f77d48;fill-opacity:1;fill-rule:nonzero;stroke:none"
         id="path30" /><path
         d="m 19471.3,2076.8 h -6368.4 c -298.3,0 -540.1,241.8 -540.1,540 v 343.6 h 7369.4 v -422.6 c 0,-254.6 -206.4,-461 -460.9,-461"
         style="fill:#f77d48;fill-opacity:1;fill-rule:nonzero;stroke:none"
         id="path32" /><path
         d="m 6864.09,5421.1 c 82.23,-465.4 142.55,-814.4 142.55,-814.4 -153.87,-631 77.53,-1440.2 268.22,-1949.4 43.59,-116.3 85,-217 119.31,-296.4 0,0 0.12,-0.2 0.24,-0.6 0.12,-0.1 0.24,-0.3 0.37,-0.7 0.23,-0.6 0.47,-1.3 0.84,-2.1 l 0.11,-0.1 c 0.85,-2.3 1.93,-4.5 2.9,-6.8 0,-0.3 0.12,-0.5 0.24,-0.8 50.08,-115.3 83.55,-182.3 83.55,-182.3 l 281.11,-12.7 c 0,0 -21.55,121 -45.51,325.1 -0.12,0.8 -0.24,1.4 -0.24,2 -7.71,65.9 -15.65,140.3 -23.23,222.1 -42.74,463.2 -72.48,1161.2 27.44,1864.2 244.04,1716.6 -78.37,2866.9 -78.37,2866.9 L 6611.15,7102 l -48.16,-15.4 c 91.86,-486.4 209.85,-1147.9 301.1,-1665.5"
         style="fill:#ffb27d;fill-opacity:1;fill-rule:nonzero;stroke:none"
         id="path34" /><path
         d="m 6667.61,6537.6 c 91.76,-486.4 105.26,-599 196.5,-1116.5 566.52,988.9 483.21,1247.2 483.21,1247.2 l -679.71,-130.7"
         style="fill:#f4a671;fill-opacity:1;fill-rule:nonzero;stroke:none"
         id="path36" /><path
         d="m 4889.45,2491.4 c 0.6,-18.3 1.44,-35.9 2.16,-52.8 8.19,-165.8 22.28,-266.9 22.28,-266.9 l 271.11,94.1 c 0,0 12.77,39.1 35.28,106.6 9.15,27.4 19.99,59.6 32.15,95.8 0.24,0.5 0.35,0.7 0.35,0.7 22.16,65.6 49.12,144.5 79.71,231.9 184.56,529.1 498.65,1376.2 681.52,1571.1 523.1,557.4 1293.12,2988.3 1293.12,2988.3 L 6266.71,7597.8 C 6112.37,7448.3 5987.05,7168.3 5886.04,6838.7 5631.18,6007.1 5532.21,4859.3 5518.85,4693.1 v -0.5 c -0.96,-12.7 -7.82,-23.8 -16.5,-33.4 -486.85,-541.8 -600.98,-1330.9 -614.71,-1874.4 -2.64,-108.9 -1.44,-208.1 1.81,-293.4"
         style="fill:#ffb27d;fill-opacity:1;fill-rule:nonzero;stroke:none"
         id="path38" /><path
         d="m 6906.26,6449.9 180.65,22.2 c 87.31,29 172.63,48.7 251.93,62 255.76,42.8 450,18 450,18 -78.42,838.8 -192.06,1106.3 -192.06,1106.3 l -377.33,-660.5 -313.19,-548"
         style="fill:#f77d48;fill-opacity:1;fill-rule:nonzero;stroke:none"
         id="path40" /><path
         d="m 6906.26,6449.9 180.65,22.2 c 87.31,29 172.63,48.7 251.93,62 11.41,161 -53.42,333.6 -119.39,463.8 l -313.19,-548"
         style="fill:#dd5f33;fill-opacity:1;fill-rule:nonzero;stroke:none"
         id="path42" /><path
         d="m 7596.77,7658.4 c 0,0 -249.45,-188.4 -502.17,-171 -252.71,17.4 -990.52,185.9 -990.52,185.9 0,0 -136.69,-198.5 -232.38,-592.5 -98.76,-406.7 -98.76,-708.8 -98.76,-708.8 0,0 865.62,113.3 1214.19,-69.7 l 609.64,1356.1"
         style="fill:#f77d48;fill-opacity:1;fill-rule:nonzero;stroke:none"
         id="path44" /><path
         d="m 7418.25,1898 c 102.33,-1.4 343.11,26 439.43,0 l 387.29,-0.1 c 90.29,55.4 126.65,119.7 -112.44,149.2 -345.28,42.7 -407.89,389.2 -414.51,432.8 -0.12,0.8 -0.24,1.4 -0.24,2 -0.24,1.7 -0.36,2.5 -0.36,2.5 l -323.25,-123.5 c 0,0 0.12,-0.2 0.24,-0.6 0.12,-0.1 0.24,-0.3 0.37,-0.7 0.23,-0.5 0.6,-1.2 0.84,-2.1 l 0.11,-0.1 c 0.73,-1.7 1.69,-3.9 2.9,-6.8 0,-0.3 0.12,-0.5 0.24,-0.8 11.32,-29.8 36.96,-116 1.32,-218.5 -30.58,-88 -84.27,-231.8 18.06,-233.3"
         style="fill:#ffb27d;fill-opacity:1;fill-rule:nonzero;stroke:none"
         id="path46" /><path
         d="m 4878.97,1898 c 102.34,-1.4 343.12,26 439.43,0 l 387.29,-0.1 c 90.3,55.4 124.73,107.1 -112.32,149.2 -349.01,61.8 -388.5,221.1 -373.09,325.3 7.59,52.1 28.89,90.4 32.15,95.8 0.24,0.5 0.35,0.7 0.35,0.7 l -363.33,22.5 c 0,0 1.44,-20.6 2.16,-52.8 1.93,-76.2 0.48,-217.8 -30.69,-307.3 -30.58,-88 -84.27,-231.8 18.05,-233.3"
         style="fill:#ffb27d;fill-opacity:1;fill-rule:nonzero;stroke:none"
         id="path48" /><path
         d="m 7398.87,2349.8 c 11.32,-29.8 36.96,-116 1.32,-218.5 -30.58,-88 -84.27,-231.8 18.06,-233.3 102.33,-1.4 343.11,26 439.43,0 l 387.29,-0.1 c 90.29,55.4 126.65,119.7 -112.44,149.2 -345.28,42.7 -407.89,389.2 -414.51,432.8 -0.12,0.8 -0.24,1.4 -0.24,2 -7.71,65.9 -15.65,140.3 -23.23,222.1 0,0 -159.76,-118.3 -419.69,-46.6 v -0.1 c 43.59,-116.3 85,-217 119.31,-296.4 0,0 0.12,-0.2 0.24,-0.6 0.12,-0.1 0.24,-0.3 0.37,-0.7 0.23,-0.6 0.47,-1.3 0.84,-2.1 l 0.11,-0.1 c 0.85,-2.3 1.93,-4.5 2.9,-6.8 0,-0.3 0.12,-0.5 0.24,-0.8"
         style="fill:#739af0;fill-opacity:1;fill-rule:nonzero;stroke:none"
         id="path50" /><path
         d="m 4878.97,1898 c 102.34,-1.4 343.12,26 439.43,0 l 387.29,-0.1 c 90.3,55.4 124.73,107.1 -112.32,149.2 -349.01,61.8 -388.5,221.1 -373.09,325.3 9.15,27.4 19.99,59.6 32.15,95.8 0.24,0.5 0.35,0.7 0.35,0.7 22.16,65.6 49.12,144.5 79.71,231.9 -99.57,-0.9 -281.6,9.6 -444.85,84 -2.64,-108.9 -1.44,-208.1 1.81,-293.4 0.6,-18.3 1.44,-35.9 2.16,-52.8 1.93,-76.2 0.48,-217.8 -30.69,-307.3 -30.58,-88 -84.27,-231.8 18.05,-233.3"
         style="fill:#739af0;fill-opacity:1;fill-rule:nonzero;stroke:none"
         id="path52" /><path
         d="m 7155.61,10154 c 0,0 502.71,-156.2 560.81,-376.9 92.66,-352.2 211,-1047.8 211,-1047.8 l 539.29,668.7 194.14,-93.4 c 0,0 -460.2,-1236.8 -848.48,-1179.3 -388.29,57.5 -656.76,2028.7 -656.76,2028.7"
         style="fill:#f4a671;fill-opacity:1;fill-rule:nonzero;stroke:none"
         id="path54" /><path
         d="M 6014.03,10005.9 C 5826.52,9593.3 5639.32,8202 5587.03,8080 5534.75,7958 5374.99,7287 5238.46,6955.8 l 174.29,-52.2 c 0,0 575.15,954.2 627.43,1202.5 52.28,248.4 338.98,1258.4 338.98,1258.4 0,0 -307.03,769.2 -365.13,641.4"
         style="fill:#ffb27d;fill-opacity:1;fill-rule:nonzero;stroke:none"
         id="path56" /><path
         d="M 6177.13,9044.2 5903.47,7353.1 c 0,0 665.01,-368.2 1818.07,2 0,0 -77.97,1637 -14,1968.2 2.26,11.9 4.1,23.8 5.49,35.5 36.95,315 -54.09,548 -125.32,698.5 0,0 -402.33,221.9 -1126.32,121.8 -103.71,-14.3 -284.51,-40.4 -415.75,-135.9 0,0 88.71,-110.8 144.39,-243.7 16.39,-39.1 29.89,-79.9 37.47,-120.4 20.31,-108.5 74.08,-315.2 -47.92,-477.8 l -2.45,-157.1"
         style="fill:#739af0;fill-opacity:1;fill-rule:nonzero;stroke:none"
         id="path58" /><path
         d="m 4626.75,6844.7 c 43.15,160.9 213.62,254.9 380.75,210.1 42.77,-11.5 81.13,-31 113.88,-56.2 l 65.85,-47.8 -8.05,-10.3 c 55.07,-72 77.56,-166 52.85,-258.1 -43.15,-160.9 -213.62,-255 -380.76,-210.2 -10.47,2.9 -20.68,6.1 -30.61,9.9 l -7.64,-9.8 -74.62,55.3 0.04,0.1 c -95.96,73.4 -143.91,196.8 -111.69,317"
         style="fill:#ef7e29;fill-opacity:1;fill-rule:nonzero;stroke:none"
         id="path60" /><path
         d="m 5294.46,6636.9 c 43.15,160.9 -57.38,327.6 -224.52,372.5 -167.14,44.8 -337.61,-49.3 -380.75,-210.2 -43.14,-160.8 57.38,-327.6 224.52,-372.4 167.14,-44.8 337.61,49.2 380.75,210.1"
         style="fill:#f99746;fill-opacity:1;fill-rule:nonzero;stroke:none"
         id="path62" /><path
         d="m 4933.62,6720.7 c 3.14,36 46.8,71.5 93.77,54.1 19.04,-7 522.78,-322.3 522.78,-322.3 l -107.77,-133.4 -488.84,349 c 0,0 -23.13,16.2 -19.94,52.6"
         style="fill:#ef7e29;fill-opacity:1;fill-rule:nonzero;stroke:none"
         id="path64" /><path
         d="m 9028.3,9801.6 c -43.15,160.9 -213.62,254.9 -380.76,210.1 -42.76,-11.5 -81.12,-31 -113.87,-56.3 l -65.84,-47.7 8.03,-10.3 c -55.06,-72 -77.54,-166 -52.84,-258.1 43.15,-160.9 213.62,-255 380.75,-210.2 10.48,2.9 20.69,6.1 30.62,9.9 l 7.64,-9.8 74.63,55.3 -0.05,0.1 c 95.96,73.4 143.91,196.8 111.69,317"
         style="fill:#ef7e29;fill-opacity:1;fill-rule:nonzero;stroke:none"
         id="path66" /><path
         d="m 8360.59,9593.8 c -43.15,160.9 57.37,327.6 224.52,372.4 167.14,44.9 337.6,-49.2 380.75,-210.1 43.14,-160.8 -57.38,-327.6 -224.52,-372.4 -167.14,-44.8 -337.61,49.2 -380.75,210.1"
         style="fill:#f99746;fill-opacity:1;fill-rule:nonzero;stroke:none"
         id="path68" /><path
         d="m 8721.43,9677.6 c -3.14,36 -46.79,71.5 -93.77,54.1 -19.04,-7 -522.78,-322.3 -522.78,-322.3 l 107.77,-133.4 488.83,349 c 0,0 23.14,16.2 19.95,52.6"
         style="fill:#ef7e29;fill-opacity:1;fill-rule:nonzero;stroke:none"
         id="path70" /><path
         d="m 8659.76,9303.5 c 0,0 179.77,222.9 50.34,337.9 -129.44,115.1 -297.21,81.5 -302.01,14.4 -4.79,-67.1 57.53,-258.9 57.53,-258.9 l 194.14,-93.4"
         style="fill:#f4a671;fill-opacity:1;fill-rule:nonzero;stroke:none"
         id="path72" /><path
         d="m 5250.81,6984.9 c 0,0 -53.01,-124.9 -108.2,-159.8 -55.19,-34.8 -133.63,-119.1 -119.1,-185.9 14.52,-66.8 29.05,-171.3 98.77,-171.3 69.71,0 232.37,307.9 252.71,365.9 20.33,58.1 37.76,69.8 37.76,69.8 l -161.94,81.3"
         style="fill:#ffb27d;fill-opacity:1;fill-rule:nonzero;stroke:none"
         id="path74" /><path
         d="m 5011.39,6556 c 46.93,175 232.37,277.4 414.2,228.6 46.52,-12.5 88.25,-33.7 123.88,-61.2 l 71.63,-51.9 -8.75,-11.2 c 59.91,-78.3 84.37,-180.6 57.49,-280.8 -46.93,-175 -232.38,-277.4 -414.21,-228.6 -11.39,3 -22.5,6.6 -33.3,10.7 l -8.31,-10.6 -81.18,60.1 0.05,0.1 c -104.4,79.9 -156.56,214.1 -121.5,344.8"
         style="fill:#ef7e29;fill-opacity:1;fill-rule:nonzero;stroke:none"
         id="path76" /><path
         d="m 5737.76,6330 c 46.94,175 -62.42,356.4 -244.24,405.2 -181.83,48.7 -367.27,-53.6 -414.21,-228.6 -46.93,-175 62.42,-356.4 244.24,-405.2 181.83,-48.7 367.28,53.6 414.21,228.6"
         style="fill:#f99746;fill-opacity:1;fill-rule:nonzero;stroke:none"
         id="path78" /><path
         d="m 5300.52,6460.6 c 15.23,56.8 75.44,90.1 134.47,74.2 15.1,-4 28.65,-10.9 40.22,-19.8 l 23.26,-16.9 -2.84,-3.6 c 19.45,-25.5 27.39,-58.7 18.66,-91.2 -15.24,-56.8 -75.45,-90.1 -134.48,-74.2 -3.7,1 -7.3,2.1 -10.81,3.4 l -2.7,-3.4 -26.35,19.5 h 0.01 c -33.89,26 -50.82,69.6 -39.44,112"
         style="fill:#ef7e29;fill-opacity:1;fill-rule:nonzero;stroke:none"
         id="path80" /><path
         d="m 5536.34,6387.2 c 15.24,56.8 -20.27,115.7 -79.29,131.6 -59.04,15.8 -119.25,-17.4 -134.48,-74.2 -15.24,-56.9 20.26,-115.7 79.3,-131.6 59.03,-15.8 119.23,17.4 134.47,74.2"
         style="fill:#f99746;fill-opacity:1;fill-rule:nonzero;stroke:none"
         id="path82" /><path
         d="m 8643.66,9512.9 c -46.93,175 -232.38,277.4 -414.2,228.6 -46.52,-12.5 -88.25,-33.7 -123.88,-61.2 l -71.63,-51.9 8.75,-11.2 c -59.91,-78.3 -84.37,-180.6 -57.49,-280.9 46.93,-175 232.38,-277.3 414.2,-228.5 11.4,3 22.5,6.6 33.31,10.7 l 8.31,-10.7 81.18,60.2 -0.05,0.1 c 104.4,79.9 156.56,214.1 121.5,344.8"
         style="fill:#ef7e29;fill-opacity:1;fill-rule:nonzero;stroke:none"
         id="path84" /><path
         d="m 7917.29,9286.9 c -46.93,175 62.42,356.4 244.24,405.2 181.83,48.7 367.27,-53.6 414.21,-228.6 46.93,-175 -62.42,-356.4 -244.25,-405.2 -181.82,-48.7 -367.27,53.6 -414.2,228.6"
         style="fill:#f99746;fill-opacity:1;fill-rule:nonzero;stroke:none"
         id="path86" /><path
         d="m 8354.53,9417.5 c -15.23,56.8 -75.44,90 -134.47,74.2 -15.1,-4 -28.65,-10.9 -40.22,-19.8 l -23.26,-16.9 2.84,-3.7 c -19.44,-25.4 -27.39,-58.6 -18.66,-91.1 15.24,-56.8 75.45,-90.1 134.47,-74.2 3.71,1 7.31,2.1 10.82,3.4 l 2.7,-3.4 26.35,19.5 h -0.01 c 33.89,26 50.82,69.6 39.44,112"
         style="fill:#ef7e29;fill-opacity:1;fill-rule:nonzero;stroke:none"
         id="path88" /><path
         d="m 8118.71,9344.1 c -15.24,56.8 20.26,115.7 79.3,131.6 59.03,15.8 119.24,-17.4 134.47,-74.2 15.24,-56.9 -20.26,-115.8 -79.3,-131.6 -59.03,-15.8 -119.23,17.4 -134.47,74.2"
         style="fill:#f99746;fill-opacity:1;fill-rule:nonzero;stroke:none"
         id="path90" /><path
         d="m 6445.36,10168.1 c 0,0 -282.65,-20.7 -456.11,-136.6 -173.45,-115.8 -333.86,-778.2 -333.86,-778.2 0,0 151.49,-216.9 549.54,-190.2 l 282.2,327.6 -41.77,777.4"
         style="fill:#739af0;fill-opacity:1;fill-rule:nonzero;stroke:none"
         id="path92" /><path
         d="m 6566.88,11766.7 c 0,0 -69.71,278.9 -479.28,191.7 0,0 196.07,24.7 249.8,-50.8 0,0 -155.4,71.2 -252.71,11.6 -97.31,-59.5 -113.28,-259.9 -98.76,-320.9 14.52,-61 122,-242.6 193.17,-242.6 71.16,0 155.4,62.5 155.4,62.5 l 232.38,348.5"
         style="fill:#2c3a64;fill-opacity:1;fill-rule:nonzero;stroke:none"
         id="path94" /><path
         d="m 7303.24,11479.2 c 0,0 -518.5,623 -793,224.4 0,0 -204.79,-85 -278.86,-433.6 -75.57,-355.6 160.93,-626 283.21,-559.1 78.43,42.8 137.8,-94.5 137.8,-94.5 l 650.85,862.8"
         style="fill:#2c3a64;fill-opacity:1;fill-rule:nonzero;stroke:none"
         id="path96" /><path
         d="m 7090.03,10090.9 c -199.9,-107.9 -474.03,4 -535.71,84.9 -22.8,29.9 101.41,180.4 100.19,521.1 l 26.08,-5.1 438.64,-86.8 c 0,0 -9.98,-138.1 -10.27,-268.1 -0.3,-109.2 5.34,-232.8 -18.93,-246"
         style="fill:#ffb27d;fill-opacity:1;fill-rule:nonzero;stroke:none"
         id="path98" /><path
         d="m 7119.23,10605 c 0,0 -9.98,-138.1 -10.27,-268.1 -245.46,6.9 -375.21,230.8 -428.37,354.9 l 438.64,-86.8"
         style="fill:#f4a671;fill-opacity:1;fill-rule:nonzero;stroke:none"
         id="path100" /><path
         d="m 6635.29,10739.6 c 0,0 -128.63,203.2 -159.5,377 -22.04,124.1 41.15,584 503.31,517.8 0,0 134.23,-13.3 260.4,-98.5 100.34,-67.8 245.16,-214.1 83.24,-615.4 l -42.06,-135.6 -645.39,-45.3"
         style="fill:#2c3a64;fill-opacity:1;fill-rule:nonzero;stroke:none"
         id="path102" /><path
         d="m 7201.2,10481.8 c 0,0 -580.74,-9.6 -581.14,352.2 -0.4,361.7 -75.63,604.1 295.15,625.5 370.77,21.4 442.96,-116.5 472.47,-237.2 29.5,-120.7 -35.42,-728.7 -186.48,-740.5"
         style="fill:#ffb27d;fill-opacity:1;fill-rule:nonzero;stroke:none"
         id="path104" /><path
         d="m 7179.71,11468.4 c 0,0 -159.01,-424.4 -403.03,-487.1 -244.02,-62.8 -349.87,2.6 -349.87,2.6 0,0 187.17,148.7 226.02,408.2 0,0 406.94,278.3 526.88,76.3"
         style="fill:#2c3a64;fill-opacity:1;fill-rule:nonzero;stroke:none"
         id="path106" /><path
         d="m 7140.3,11433.9 c 0,0 118.74,-94.7 147.7,-186.8 28.95,-92.1 41.97,-281.8 97.24,-275.3 0,0 119.79,288.4 -14.83,451.6 -142.76,173.1 -230.11,10.5 -230.11,10.5"
         style="fill:#2c3a64;fill-opacity:1;fill-rule:nonzero;stroke:none"
         id="path108" /><path
         d="m 7162.36,11419.6 c 0,0 -113.29,-444.4 -421.19,-586.7 0,0 307.9,273 334.04,566.4 26.15,293.4 87.15,20.3 87.15,20.3"
         style="fill:#2c3a64;fill-opacity:1;fill-rule:nonzero;stroke:none"
         id="path110" /><path
         d="m 7270.08,10693.9 c 0,0 -15.06,-33.3 -21.67,-49.9 -6.61,-16.6 -103.35,-17.3 -133.95,1.2 -25.45,15.5 -56.6,58.2 -54.97,56.6 0,0 167.04,3.9 210.59,-7.9"
         style="fill:#ffffff;fill-opacity:1;fill-rule:nonzero;stroke:none"
         id="path112" /><path
         d="m 7587.71,10057.3 c 0,0 249.02,-98.1 288.63,-731.8 0,0 -83.67,-127.2 -250.16,-159.1 -302.42,-57.9 -38.47,890.9 -38.47,890.9"
         style="fill:#739af0;fill-opacity:1;fill-rule:nonzero;stroke:none"
         id="path114" /><path
         d="m 15764.8,8398.1 h -2381.6 c -149.8,0 -272.3,122.6 -272.3,272.4 v 3559.7 c 0,149.8 122.5,272.4 272.3,272.4 h 2381.6 c 149.8,0 272.4,-122.6 272.4,-272.4 V 8670.5 c 0,-149.8 -122.6,-272.4 -272.4,-272.4"
         style="fill:#dce5ff;fill-opacity:1;fill-rule:nonzero;stroke:none"
         id="path116" /><path
         d="m 15569,11879.8 c -419.4,541.8 -972.8,-122.3 -972.8,-122.3 0,0 -553.5,664.1 -972.9,122.3 -419.5,-541.7 972.9,-1584.5 972.9,-1584.5 0,0 1392.3,1042.8 972.8,1584.5"
         style="fill:#f77d48;fill-opacity:1;fill-rule:nonzero;stroke:none"
         id="path118" /><path
         d="m 14593.3,11062.4 c -0.5,0 -0.9,0 -1.3,0 -7.9,0.7 -14.2,6.7 -15.1,14.6 l -41.1,365.3 -77.9,-366.9 c -1.7,-7.6 -8.4,-13 -16.1,-13 h -145.7 c -6.2,0 -11.9,3.5 -14.6,9.1 l -38.5,77 -43.2,-77.7 c -2.9,-5.2 -8.4,-8.4 -14.3,-8.4 h -87.4 c -7,0 -13.2,4.4 -15.5,10.9 l -90.9,257.6 -111.6,-258.6 c -2.6,-6 -8.5,-9.9 -15.1,-9.9 h -419.4 c -9.1,0 -16.4,7.3 -16.4,16.4 0,9.1 7.3,16.4 16.4,16.4 h 408.6 l 123.9,287.2 c 2.7,6.2 9.1,10 15.7,9.9 6.7,-0.2 12.7,-4.5 14.9,-10.9 l 101,-286.2 h 66.1 l 53.6,96.4 c 2.9,5.4 8.9,8.8 14.7,8.5 6.1,-0.1 11.6,-3.6 14.3,-9.1 l 47.9,-95.8 h 122.2 l 96.3,453.1 c 1.6,7.9 8.6,13.5 16.8,13 8.1,-0.4 14.6,-6.6 15.5,-14.6 l 42.9,-381.3 41.5,150.8 c 2,7.3 8.5,12.2 16.4,12 7.6,-0.2 14,-5.7 15.5,-13.1 l 44,-219.9 h 172.7 l 136.1,414 c 2.4,7.2 9.4,11.9 16.8,11.2 7.5,-0.5 13.7,-6 15,-13.4 l 73.3,-411.8 h 51.7 l 71.2,148 c 3,6.2 9.4,9.9 16.4,9.2 6.9,-0.6 12.6,-5.5 14.3,-12.2 l 37.6,-145 h 237.8 c 9.1,0 16.4,-7.3 16.4,-16.4 0,-9.1 -7.3,-16.4 -16.4,-16.4 h -250.5 c -7.5,0 -14,5 -15.9,12.3 l -29.5,113.9 -56.3,-116.9 c -2.7,-5.7 -8.5,-9.3 -14.8,-9.3 h -75.7 c -8,0 -14.8,5.7 -16.2,13.5 l -64.3,361.2 -119.5,-363.4 c -2.2,-6.8 -8.5,-11.3 -15.6,-11.3 h -198.1 c -7.8,0 -14.5,5.5 -16.1,13.2 l -33,165.1 -45.7,-166.3 c -2,-7.1 -8.5,-12 -15.8,-12"
         style="fill:#ffffff;fill-opacity:1;fill-rule:nonzero;stroke:none"
         id="path120" /><path
         d="m 19126.3,8398.1 h -2240.5 c -145.7,0 -265,119.3 -265,265 v 3574.4 c 0,145.8 119.3,265.1 265,265.1 h 2240.5 c 145.8,0 265,-119.3 265,-265.1 V 8663.1 c 0,-145.7 -119.2,-265 -265,-265"
         style="fill:#739af0;fill-opacity:1;fill-rule:nonzero;stroke:none"
         id="path122" /><path
         d="m 17920.7,11193.9 c 34.4,-472.3 -147.8,-564.1 -330.1,-564.1 -182.4,0 -384.4,60.6 -330.2,564.1 33.4,309.7 147.8,564.1 330.2,564.1 182.3,0 307.5,-253.4 330.1,-564.1"
         style="fill:#dce5ff;fill-opacity:1;fill-rule:nonzero;stroke:none"
         id="path124" /><path
         d="m 17891.5,10176.9 c 33.4,-256.6 -134.7,-300.9 -300.9,-300.9 -166.2,0 -339.1,24.3 -300.9,300.9 22.7,164.6 134.7,300.9 300.9,300.9 166.2,0 279.4,-136.1 300.9,-300.9"
         style="fill:#dce5ff;fill-opacity:1;fill-rule:nonzero;stroke:none"
         id="path126" /><path
         d="m 18754.3,10807.7 c 34.4,-472.3 -147.8,-564.1 -330.2,-564.1 -182.3,0 -384.4,60.6 -330.1,564.1 33.4,309.7 147.8,564.1 330.1,564.1 182.4,0 307.6,-253.4 330.2,-564.1"
         style="fill:#dce5ff;fill-opacity:1;fill-rule:nonzero;stroke:none"
         id="path128" /><path
         d="m 18725,9790.7 c 33.5,-256.6 -134.7,-300.9 -300.9,-300.9 -166.1,0 -339.1,24.2 -300.9,300.9 22.8,164.6 134.8,300.9 300.9,300.9 166.2,0 279.4,-136.1 300.9,-300.9"
         style="fill:#dce5ff;fill-opacity:1;fill-rule:nonzero;stroke:none"
         id="path130" /><path
         d="m 18996,3731.4 h -5554.8 c -217.5,0 -395.4,177.9 -395.4,395.4 v 3196.7 c 0,217.5 177.9,395.4 395.4,395.4 H 18996 c 217.4,0 395.3,-177.9 395.3,-395.4 V 4126.8 c 0,-217.5 -177.9,-395.4 -395.3,-395.4"
         style="fill:#739af0;fill-opacity:1;fill-rule:nonzero;stroke:none"
         id="path132" /><path
         d="m 14241.2,13590.1 h -1003.1 c -32.8,0 -59.4,26.6 -59.4,59.5 v 0 c 0,32.8 26.6,59.4 59.4,59.4 h 1003.1 c 32.8,0 59.4,-26.6 59.4,-59.4 v 0 c 0,-32.9 -26.6,-59.5 -59.4,-59.5"
         style="fill:#163560;fill-opacity:1;fill-rule:nonzero;stroke:none"
         id="path134" /><path
         d="m 14241.2,13342.9 h -1003.1 c -32.8,0 -59.4,26.7 -59.4,59.5 v 0 c 0,32.8 26.6,59.4 59.4,59.4 h 1003.1 c 32.8,0 59.4,-26.6 59.4,-59.4 v 0 c 0,-32.8 -26.6,-59.5 -59.4,-59.5"
         style="fill:#163560;fill-opacity:1;fill-rule:nonzero;stroke:none"
         id="path136" /><path
         d="m 14241.2,13106.4 h -1003.1 c -32.8,0 -59.4,26.6 -59.4,59.4 v 0 c 0,32.8 26.6,59.4 59.4,59.4 h 1003.1 c 32.8,0 59.4,-26.6 59.4,-59.4 v 0 c 0,-32.8 -26.6,-59.4 -59.4,-59.4"
         style="fill:#163560;fill-opacity:1;fill-rule:nonzero;stroke:none"
         id="path138" /><path
         d="m 22748,5953.9 c -107.1,-104.6 -264.9,-209.8 -37.6,-474.8 291.4,-339.7 693.5,-1756.6 693.5,-1756.6 -19.3,-52.2 -6.5,-126.9 -45.5,-146.5 -63,-31.7 -213.3,83.8 -213.3,83.8 0,0 -1339.1,1547.9 -1436.2,1884.8 -71.7,248.8 427.5,1407.7 721.5,2013.1 104.1,214.5 182.5,359.4 200.6,370.1 2.8,1.6 5.5,3.2 8.3,4.6 158.3,88.6 301.5,68.4 426,-13 26.6,-17.4 52.3,-37.5 77.2,-60.1 303.4,-275 474.1,-897.3 446,-1023.2 -19.5,-87.6 -184.7,-266.4 -364.7,-441.5 -37.4,-36.4 -75.4,-72.6 -112.9,-107.7 -163.5,-153.6 -316.9,-288.1 -362.9,-333"
         style="fill:#f99746;fill-opacity:1;fill-rule:nonzero;stroke:none"
         id="path140" /><path
         d="m 23223.8,6394.6 c -37.4,-36.4 -75.4,-72.6 -112.9,-107.7 l -680.5,1270.8 c 104.1,214.5 182.5,359.4 200.6,370.1 2.8,1.6 5.5,3.2 8.3,4.6 l 426,-13 77,-2.4 0.2,-57.7 81.3,-1464.7"
         style="fill:#ed7d2b;fill-opacity:1;fill-rule:nonzero;stroke:none"
         id="path142" /><path
         d="m 23034.3,10696.2 c 0,0 137.8,-397.4 83.9,-626.5 -53.9,-229.1 -664.3,-1351.6 -874.7,-1537.9 -210.3,-186.3 -1487.6,724.9 -1487.6,724.9 l 137,117.3 c 0,0 1032.1,-323.6 1092,-243.1 60,80.6 416.1,1708.2 1049.4,1565.3"
         style="fill:#ffb27d;fill-opacity:1;fill-rule:nonzero;stroke:none"
         id="path144" /><path
         d="m 22836.5,7651.2 c 0,0 197.4,-1372.4 830.3,-2364.9 611.6,-959.2 878.7,-2392.5 878.7,-2392.5 0,0 42.1,-36.7 130.6,-4.7 88.5,32 144.1,-15.7 163.8,25.4 0,0 -3.2,2239.7 -320,2747.3 -179,286.8 -227.1,1306.4 -205.5,1582 21.7,275.5 -80.6,620.4 -80.6,620.4 l -1397.3,-213"
         style="fill:#f99746;fill-opacity:1;fill-rule:nonzero;stroke:none"
         id="path146" /><path
         d="m 24809,2509.7 -160.2,8.9 c -53.2,11.5 -91.9,29.2 -146.6,39.5 -82.9,15.6 -123.3,-16.5 -131.4,-23.9 -1.1,-1 -1.6,-1.5 -1.6,-1.5 l -680.4,38 c -15.7,25.4 3.9,81.1 22.3,121.9 12.4,27.7 37.3,47.8 67,54.6 73.3,16.9 216.6,27.5 353.4,138.2 77,62.1 367.5,223.7 367.5,223.7 l 1.5,0.3 c 6.2,-0.5 35,-11.2 156.6,-126.1 62.9,-59.2 182.9,68.6 182.9,68.6 0,0 20.1,-18.6 34,-52.1 11.3,-26.3 18.6,-62.1 8.8,-105.2 -13.6,-60.8 12.8,-176.5 34.7,-255 13.2,-47.6 24.7,-81.5 24.7,-81.5 0,0 5.5,-38.9 -133.2,-48.4"
         style="fill:#233862;fill-opacity:1;fill-rule:nonzero;stroke:none"
         id="path148" /><path
         d="m 24874,2999.8 c -39.7,-24.8 -123.4,-73.3 -177.3,-77.3 -72.8,-5.4 -197.7,186.6 -197.7,186.6 l 1.5,0.3 c 6.2,-0.5 35,-11.2 156.6,-126.1 62.9,-59.2 182.9,68.6 182.9,68.6 0,0 20.1,-18.6 34,-52.1"
         style="fill:#233862;fill-opacity:1;fill-rule:nonzero;stroke:none"
         id="path150" /><path
         d="m 24809,2509.7 -160.2,8.9 c -53.2,11.5 -91.9,29.2 -146.6,39.5 -82.9,15.6 -123.3,-16.5 -131.4,-23.9 -1.1,-1 -1.6,-1.5 -1.6,-1.5 l -680.4,38 c -15.7,25.4 3.9,81.1 22.3,121.9 21.7,17.2 22,-81.3 32.6,-97.6 10.5,-16.3 554.7,-36.7 587.4,-15.7 32.7,21.1 129.1,55.8 258.6,17.1 112.8,-33.7 285,26.9 327.8,43.2 13.2,-47.6 24.7,-81.5 24.7,-81.5 0,0 5.5,-38.9 -133.2,-48.4"
         style="fill:#233862;fill-opacity:1;fill-rule:nonzero;stroke:none"
         id="path152" /><path
         d="m 24322,8715.6 c 42.1,761.1 -37.2,1867.2 -223,1962 -157.8,80.5 -505,202.3 -869,216.6 -287.3,11.3 -906.4,-89.4 -994.6,-560.4 -55.7,-298 -85.2,-544.5 -85.2,-544.5 0,0 55.4,-195.2 234,-256.6 17.9,-86 23.7,-170.6 46.8,-243.2 258,-810 66.6,-1595.9 66.6,-1595.9 264.7,-245.8 1652.3,-186.1 1796.3,-103 234.6,135.3 -14,363.9 28.1,1125"
         style="fill:#739af0;fill-opacity:1;fill-rule:nonzero;stroke:none"
         id="path154" /><path
         d="m 23706.2,3515 -121,-105.3 c -46.1,-28.9 -86.2,-43.2 -132.5,-74 -70.4,-46.6 -76.9,-97.8 -77.5,-108.8 -0.1,-1.5 -0.1,-2.2 -0.1,-2.2 l -514,-447.4 c -29,7.3 -53.9,60.8 -69.1,102.9 -10.4,28.5 -6.7,60.3 9.9,85.9 40.7,63.2 136,170.8 156.8,345.5 11.9,98.2 107.3,416.7 107.3,416.7 l 0.9,1.2 c 4.7,4 32.8,16.5 200.1,19 86.4,1.3 83.2,176.6 83.2,176.6 0,0 27.4,0.7 60.7,-13.5 26.5,-11.1 56.7,-31.6 79.7,-69.3 32.7,-53 132.3,-117.6 202.7,-158.6 42.7,-24.8 74.6,-41.1 74.6,-41.1 0,0 31.1,-24 -61.7,-127.6"
         style="fill:#233862;fill-opacity:1;fill-rule:nonzero;stroke:none"
         id="path156" /><path
         d="m 23410.9,3911.6 c -11.2,-45.5 -37.2,-138.7 -73.1,-179.1 -48.4,-54.7 -271.8,-4.2 -271.8,-4.2 l 0.9,1.2 c 4.7,4 32.8,16.5 200.1,19 86.4,1.3 83.2,176.6 83.2,176.6 0,0 27.4,0.7 60.7,-13.5"
         style="fill:#233862;fill-opacity:1;fill-rule:nonzero;stroke:none"
         id="path158" /><path
         d="m 23706.2,3515 -121,-105.3 c -46.1,-28.9 -86.2,-43.2 -132.5,-74 -70.4,-46.6 -76.9,-97.8 -77.5,-108.8 -0.1,-1.5 -0.1,-2.2 -0.1,-2.2 l -514,-447.4 c -29,7.3 -53.9,60.8 -69.1,102.9 3.5,27.5 72.5,-42.9 91.4,-47.2 18.9,-4.3 423.1,360.7 431.8,398.5 8.7,37.9 53.6,130.1 173.4,192.7 104.3,54.5 185.5,218.1 204.7,259.5 42.7,-24.8 74.6,-41.1 74.6,-41.1 0,0 31.1,-24 -61.7,-127.6"
         style="fill:#233862;fill-opacity:1;fill-rule:nonzero;stroke:none"
         id="path160" /><path
         d="m 23697.9,10598.8 c 0,0 420.2,-18.4 613.3,-152.9 193,-134.5 1011.5,-1115.8 1107.1,-1380 95.7,-264.2 -953.5,-945.4 -953.5,-945.4 l -129.9,234.2 c 0,0 483.9,606.2 431.2,691.7 -52.8,85.4 -1434.5,1016.4 -1068.2,1552.4"
         style="fill:#ffb27d;fill-opacity:1;fill-rule:nonzero;stroke:none"
         id="path162" /><path
         d="m 24389.8,8386.6 160.5,-138.2 c 0,0 -164.7,-310.2 -246.9,-335.7 l -8.4,-1.2 c -87.4,-12.6 -294.5,139.5 -322.5,286.5 -2.2,15.1 -0.7,29.1 4.3,41.8 38,85.9 242,124.7 348.4,139.4 38.8,5.3 64.6,7.4 64.6,7.4"
         style="fill:#ffb27d;fill-opacity:1;fill-rule:nonzero;stroke:none"
         id="path164" /><path
         d="m 21006.8,9339.5 -94.5,-189.6 c 0,0 -341.2,83.5 -386.1,156.8 l -3.2,7.9 c -33.7,81.6 62.9,319.8 198.5,383.1 14.1,5.8 28,7.8 41.5,6.1 92.6,-15.7 180.4,-204 220.7,-303.5 14.7,-36.3 23.1,-60.8 23.1,-60.8"
         style="fill:#ffb27d;fill-opacity:1;fill-rule:nonzero;stroke:none"
         id="path166" /><path
         d="m 23552.5,10855.5 c 0,0 388.5,-38.8 658.6,-227.6 124.4,-87 593.4,-582.7 593.4,-582.7 0,0 -81.6,-486.6 -677.9,-587.2 -607,-102.4 -648.6,905.1 -648.6,905.1 l 74.5,492.4"
         style="fill:#739af0;fill-opacity:1;fill-rule:nonzero;stroke:none"
         id="path168" /><path
         d="m 23445.4,10854.2 c 17.3,-28.4 15.8,-64.4 -3.4,-91.6 -56.8,-80 -211,-215.4 -590.9,-168.3 -130.2,16.1 -154.7,116.6 -66.5,213.6 21.5,23.6 22.4,166.3 23.4,223.5 -0.4,132.2 8.6,206.1 8.6,206.1 l 280.3,170.2 266,163.1 c -64.9,-412 32.8,-634.5 82.5,-716.6"
         style="fill:#ffb27d;fill-opacity:1;fill-rule:nonzero;stroke:none"
         id="path170" /><path
         d="m 23342.1,11363.2 c 0,0 -204.7,-285.1 -534.1,-331.8 -0.4,132.2 8.6,206.1 8.6,206.1 l 280.3,170.2 245.2,-44.5"
         style="fill:#ed985f;fill-opacity:1;fill-rule:nonzero;stroke:none"
         id="path172" /><path
         d="m 22701,11260.4 c 0,0 620.1,-180.2 726.7,201.5 106.5,381.8 258.4,615.6 -133.1,746.8 -391.4,131.2 -509.3,6.8 -576.4,-112 -67,-118.8 -175.8,-779.5 -17.2,-836.3"
         style="fill:#ffb27d;fill-opacity:1;fill-rule:nonzero;stroke:none"
         id="path174" /><path
         d="m 23750.6,12200.6 c 6.6,5.9 20.5,9.6 50.1,7.7 0,0 -21.7,17.5 -53.2,22.1 -1.1,41.8 -14.1,117 -82.6,143.2 0,0 35.5,-24.8 35.2,-69 -71.6,93.8 -239.3,176.2 -728.8,196.7 -645.1,27.1 -484.1,-407.5 -407.3,-466.4 76.8,-58.8 301.3,49.7 453.9,18.7 152.6,-30.9 154.9,-257.2 203.5,-294.1 48.6,-36.9 34.6,19.6 109.2,43 74.6,23.4 67.1,-94.6 37.5,-168.4 -29.7,-73.7 55.3,-186 55.3,-186 0,0 0,0 111.1,93.8 111,93.9 258,530.8 224.9,631.7 -2.9,8.9 -5.8,18 -8.8,27"
         style="fill:#2c3a64;fill-opacity:1;fill-rule:nonzero;stroke:none"
         id="path176" /><path
         d="m 22660.3,11507.7 c 0,0 14,-58.2 77.2,-69.1 63.3,-10.9 107.4,32.2 107.4,32.2 0,0 -101.7,54.3 -184.6,36.9"
         style="fill:#ffffff;fill-opacity:1;fill-rule:nonzero;stroke:none"
         id="path178" /><path
         d="m 18053.6,8962.1 h 570.1 l 919,-1122.2 -632.5,58.6 -856.6,1063.6"
         style="fill:#1e4077;fill-opacity:1;fill-rule:nonzero;stroke:none"
         id="path180" /><path
         d="m 20776.1,2991.9 c -805.1,408.6 -2042.5,387.8 -2042.5,387.8 l 413.4,4290.5 1272.6,-88.4 c 50.3,-3.5 97.9,-23.7 135.5,-57.3 l 575.9,-515.8 116.3,129.9 -634.5,568.3 c -27.4,24.5 -62,39.6 -98.6,43 l -1604,148.6 -856.6,1063.6 -49.8,-40 c -47.5,-38.3 -55,-107.9 -16.7,-155.4 l 866.3,-1076.1 v 0 l -533.6,-5538.2 v -56.2 c 0,-94.9 76.9,-171.9 171.9,-171.9 h 9139.9 v 87.1 141 0 c 0,100.8 -77.6,184.7 -178.1,192.4 l -6005.1,461.9 c -233.9,18 -463.1,79 -672.3,185.2"
         style="fill:#3d5db7;fill-opacity:1;fill-rule:nonzero;stroke:none"
         id="path182" /><path
         d="m 21408.5,6965.2 -92,-103.1 c -44.8,-50.1 -122.4,-54.5 -172.5,-9.8 l -594.5,530.8 c -50.1,44.8 -54.5,122.4 -9.7,172.5 l 92.1,103.1 c 44.7,50.1 122.3,54.5 172.5,9.8 l 594.4,-530.8 c 50.1,-44.7 54.5,-122.4 9.7,-172.5"
         style="fill:#f99746;fill-opacity:1;fill-rule:nonzero;stroke:none"
         id="path184" /><path
         d="m 18910.2,7898.5 513.4,86.9 1072.6,-233.8 z"
         style="fill:#3d5db7;fill-opacity:1;fill-rule:nonzero;stroke:none"
         id="path186" /><path
         d="m 15446.1,5207.2 h -645.6 v 385 h 645.6 v -385"
         style="fill:#dce5ff;fill-opacity:1;fill-rule:nonzero;stroke:none"
         id="path188" /><path
         d="m 15446.1,5722.7 h -645.6 v 385 h 645.6 v -385"
         style="fill:#dce5ff;fill-opacity:1;fill-rule:nonzero;stroke:none"
         id="path190" /><path
         d="m 16304.7,5207.2 h -645.6 v 385 h 645.6 v -385"
         style="fill:#dce5ff;fill-opacity:1;fill-rule:nonzero;stroke:none"
         id="path192" /><path
         d="m 16304.7,5722.7 h -645.6 v 385 h 645.6 v -385"
         style="fill:#dce5ff;fill-opacity:1;fill-rule:nonzero;stroke:none"
         id="path194" /><path
         d="m 16304.7,6238.2 h -645.6 v 385 h 645.6 v -385"
         style="fill:#dce5ff;fill-opacity:1;fill-rule:nonzero;stroke:none"
         id="path196" /><path
         d="m 17140.5,5207.2 h -645.6 v 385 h 645.6 v -385"
         style="fill:#dce5ff;fill-opacity:1;fill-rule:nonzero;stroke:none"
         id="path198" /><path
         d="m 17140.5,5722.7 h -645.6 v 385 h 645.6 v -385"
         style="fill:#dce5ff;fill-opacity:1;fill-rule:nonzero;stroke:none"
         id="path200" /><path
         d="m 17939.1,5207.2 h -645.7 v 385 h 645.7 v -385"
         style="fill:#dce5ff;fill-opacity:1;fill-rule:nonzero;stroke:none"
         id="path202" /><path
         d="m 15446.1,4683.8 h -645.6 v 384.9 h 645.6 v -384.9"
         style="fill:#dce5ff;fill-opacity:1;fill-rule:nonzero;stroke:none"
         id="path204" /><path
         d="m 16304.7,4683.8 h -645.6 v 384.9 h 645.6 v -384.9"
         style="fill:#dce5ff;fill-opacity:1;fill-rule:nonzero;stroke:none"
         id="path206" /><path
         d="m 17140.5,4683.8 h -645.6 v 384.9 h 645.6 v -384.9"
         style="fill:#dce5ff;fill-opacity:1;fill-rule:nonzero;stroke:none"
         id="path208" /><path
         d="m 17939.1,4683.8 h -645.7 v 384.9 h 645.7 v -384.9"
         style="fill:#dce5ff;fill-opacity:1;fill-rule:nonzero;stroke:none"
         id="path210" /><path
         d="m 15446.1,4160.3 h -645.6 v 385 h 645.6 v -385"
         style="fill:#dce5ff;fill-opacity:1;fill-rule:nonzero;stroke:none"
         id="path212" /><path
         d="m 16304.7,4160.3 h -645.6 v 385 h 645.6 v -385"
         style="fill:#dce5ff;fill-opacity:1;fill-rule:nonzero;stroke:none"
         id="path214" /><path
         d="m 17140.5,4160.3 h -645.6 v 385 h 645.6 v -385"
         style="fill:#dce5ff;fill-opacity:1;fill-rule:nonzero;stroke:none"
         id="path216" /><path
         d="m 17939.1,4160.3 h -645.7 v 385 h 645.7 v -385"
         style="fill:#dce5ff;fill-opacity:1;fill-rule:nonzero;stroke:none"
         id="path218" /><path
         d="m 17939.1,5722.7 h -645.7 v 385 h 645.7 v -385"
         style="fill:#dce5ff;fill-opacity:1;fill-rule:nonzero;stroke:none"
         id="path220" /><path
         d="m 17939.1,6238.2 h -645.7 v 385 h 645.7 v -385"
         style="fill:#dce5ff;fill-opacity:1;fill-rule:nonzero;stroke:none"
         id="path222" /><path
         d="m 17939.1,6753.8 h -645.7 v 384.9 h 645.7 v -384.9"
         style="fill:#dce5ff;fill-opacity:1;fill-rule:nonzero;stroke:none"
         id="path224" /><path
         d="M 13563.1,1948.7 H 9921.09 c -136.3,0 -247.82,111.5 -247.82,247.8 v 8011.6 c 0,136.3 111.52,247.8 247.82,247.8 h 3642.01 c 136.3,0 247.9,-111.5 247.9,-247.8 V 2196.5 c 0,-136.3 -111.6,-247.8 -247.9,-247.8"
         style="fill:#3d5db7;fill-opacity:1;fill-rule:nonzero;stroke:none"
         id="path226" /><path
         d="M 13694.7,4012.1 H 9746.32 c -273.93,0 -498.05,224.1 -498.05,498 v 4161.7 c 0,273.9 224.12,498 498.05,498 h 3948.38 c 273.9,0 498,-224.1 498,-498 V 4510.1 c 0,-273.9 -224.1,-498 -498,-498"
         style="fill:#f77d48;fill-opacity:1;fill-rule:nonzero;stroke:none"
         id="path228" /><path
         d="M 13598.9,4284.9 H 9842.12 c -182.75,0 -332.29,149.6 -332.29,332.3 v 3947.5 c 0,182.7 149.54,332.3 332.29,332.3 h 3756.78 c 182.8,0 332.3,-149.6 332.3,-332.3 V 4617.2 c 0,-182.7 -149.5,-332.3 -332.3,-332.3"
         style="fill:#163560;fill-opacity:1;fill-rule:nonzero;stroke:none"
         id="path230" /><path
         d="m 13437,6738.8 h -1451.8 c -75.3,0 -136.9,61.6 -136.9,136.9 v 1484.9 c 0,75.3 61.6,137 136.9,137 H 13437 c 75.3,0 136.9,-61.7 136.9,-137 V 6875.7 c 0,-75.3 -61.6,-136.9 -136.9,-136.9"
         style="fill:#dce5ff;fill-opacity:1;fill-rule:nonzero;stroke:none"
         id="path232" /><path
         d="m 13348.9,8042.7 c -259.6,335.4 -602.1,-75.7 -602.1,-75.7 0,0 -342.6,411.1 -602.2,75.7 -259.6,-335.3 602.2,-980.7 602.2,-980.7 0,0 861.7,645.4 602.1,980.7"
         style="fill:#f77d48;fill-opacity:1;fill-rule:nonzero;stroke:none"
         id="path234" /><path
         d="m 12745,7536.8 c -0.3,0 -0.6,0 -0.8,0 -4.9,0.4 -8.8,4.2 -9.3,9 l -25.5,226.1 -48.2,-227.1 c -1,-4.7 -5.2,-8 -10,-8 h -90.1 c -3.9,0 -7.4,2.1 -9.1,5.6 l -23.9,47.7 -26.6,-48.1 c -1.8,-3.2 -5.2,-5.2 -8.9,-5.2 h -54.1 c -4.3,0 -8.2,2.7 -9.6,6.8 l -56.3,159.4 -69,-160.1 c -1.6,-3.7 -5.3,-6.1 -9.4,-6.1 h -259.6 c -5.6,0 -10.1,4.5 -10.1,10.1 0,5.6 4.5,10.2 10.1,10.2 h 253 l 76.6,177.8 c 1.7,3.8 5.6,6.2 9.7,6.1 4.2,-0.2 7.9,-2.8 9.3,-6.8 l 62.5,-177.1 h 40.9 l 33.1,59.7 c 1.9,3.3 5.6,5.4 9.1,5.2 3.8,-0.1 7.2,-2.2 8.9,-5.6 l 29.7,-59.3 h 75.6 l 59.6,280.4 c 1,4.9 5.3,8.4 10.4,8 5,-0.2 9.1,-4 9.6,-9 l 26.6,-236 25.6,93.4 c 1.3,4.5 5.3,7.5 10.2,7.4 4.7,-0.1 8.7,-3.5 9.6,-8.1 l 27.2,-136.1 h 106.9 l 84.3,256.2 c 1.4,4.5 5.8,7.4 10.3,7 4.7,-0.3 8.5,-3.8 9.3,-8.4 l 45.4,-254.8 h 32 l 44.1,91.6 c 1.8,3.8 5.8,6.1 10.1,5.7 4.3,-0.4 7.8,-3.4 8.9,-7.6 l 23.2,-89.7 h 147.2 c 5.6,0 10.2,-4.6 10.2,-10.2 0,-5.6 -4.6,-10.1 -10.2,-10.1 h -155 c -4.7,0 -8.7,3.1 -9.9,7.6 l -18.2,70.5 -34.9,-72.4 c -1.7,-3.5 -5.2,-5.7 -9.1,-5.7 h -46.9 c -4.9,0 -9.2,3.5 -10,8.3 l -39.8,223.6 -74,-224.9 c -1.3,-4.2 -5.2,-7 -9.6,-7 h -122.6 c -4.9,0 -9,3.4 -10,8.1 l -20.4,102.2 -28.3,-102.9 c -1.3,-4.4 -5.3,-7.4 -9.8,-7.4"
         style="fill:#ffffff;fill-opacity:1;fill-rule:nonzero;stroke:none"
         id="path236" /><path
         d="M 13455.2,4724.6 H 12011 c -77.4,0 -140.7,63.3 -140.7,140.7 v 1576.3 c 0,77.4 63.3,140.7 140.7,140.7 h 1444.2 c 77.3,0 140.7,-63.3 140.7,-140.7 V 4865.3 c 0,-77.4 -63.4,-140.7 -140.7,-140.7"
         style="fill:#dce5ff;fill-opacity:1;fill-rule:nonzero;stroke:none"
         id="path238" /><path
         d="m 12659.6,6008.5 c 21.5,-294.2 -92,-351.4 -205.6,-351.4 -113.6,0 -239.4,37.8 -205.6,351.4 20.8,192.9 92,351.3 205.6,351.3 113.6,0 191.5,-157.8 205.6,-351.3"
         style="fill:#163560;fill-opacity:1;fill-rule:nonzero;stroke:none"
         id="path240" /><path
         d="m 12641.4,5375 c 20.9,-159.8 -83.9,-187.4 -187.4,-187.4 -103.5,0 -211.2,15.1 -187.4,187.4 14.2,102.6 83.9,187.5 187.4,187.5 103.5,0 174,-84.8 187.4,-187.5"
         style="fill:#163560;fill-opacity:1;fill-rule:nonzero;stroke:none"
         id="path242" /><path
         d="m 13178.8,5767.9 c 21.4,-294.2 -92.1,-351.3 -205.6,-351.3 -113.6,0 -239.4,37.7 -205.6,351.3 20.7,192.9 92,351.3 205.6,351.3 113.5,0 191.5,-157.8 205.6,-351.3"
         style="fill:#163560;fill-opacity:1;fill-rule:nonzero;stroke:none"
         id="path244" /><path
         d="m 13160.6,5134.5 c 20.8,-159.8 -83.9,-187.4 -187.4,-187.4 -103.5,0 -211.2,15.1 -187.4,187.4 14.1,102.5 83.9,187.4 187.4,187.4 103.5,0 174,-84.8 187.4,-187.4"
         style="fill:#163560;fill-opacity:1;fill-rule:nonzero;stroke:none"
         id="path246" /><path
         d="m 11384.2,4667 h -1279.9 c -109.59,0 -199.27,89.7 -199.27,199.3 v 3432 c 0,109.6 89.68,199.3 199.27,199.3 h 1279.9 c 109.6,0 199.2,-89.7 199.2,-199.3 v -3432 c 0,-109.6 -89.6,-199.3 -199.2,-199.3"
         style="fill:#f77d48;fill-opacity:1;fill-rule:nonzero;stroke:none"
         id="path248" /><path
         d="m 10110.4,7333.5 v 63.8 l 151.3,200.3 c 7.8,10.2 13.9,20.7 18.2,31.6 4.3,10.8 6.4,21 6.4,30.7 v 0.6 c 0,14.8 -4.4,26.3 -13.3,34.5 -9,8.3 -21.6,12.4 -38.1,12.4 -15.6,0 -28.4,-4.9 -38.2,-14.8 -9.8,-9.8 -15.7,-23.8 -17.7,-42.1 v -0.3 h -74 v 0.3 c 4.2,39.9 17.7,70.9 40.6,92.8 22.8,22 52.4,33 88.7,33 40.1,0 71.2,-10.1 93.2,-30.1 22.1,-20.1 33.1,-48.3 33.1,-84.8 v -0.3 c 0,-17.7 -3.3,-35.6 -10,-53.9 -6.8,-18.2 -16,-35.2 -27.9,-50.8 l -117.3,-154 h 157.6 v -68.9 h -252.6"
         style="fill:#ffcbbb;fill-opacity:1;fill-rule:nonzero;stroke:none"
         id="path250" /><path
         d="m 10563.1,7397 c 19.8,0 34.1,5.9 42.8,17.6 8.7,11.7 13.1,27.8 13.1,48.3 v 178.6 c 0,20.7 -4.4,36.8 -13.1,48.4 -8.7,11.7 -23,17.5 -42.8,17.5 -19.9,0 -34.2,-5.8 -42.9,-17.5 -8.7,-11.6 -13.1,-27.7 -13.1,-48.4 v -178.6 c 0,-20.5 4.4,-36.6 13.1,-48.3 8.7,-11.7 23,-17.6 42.9,-17.6 z m 0,-68.9 c -42.6,0 -74.5,11.1 -95.8,33.4 -21.4,22.2 -32.1,52.5 -32.1,90.8 V 7652 c 0,38.7 10.8,69.1 32.4,91.2 21.5,22 53.3,33.1 95.5,33.1 42.3,0 74.1,-11 95.6,-33 21.4,-21.9 32.2,-52.4 32.2,-91.3 v -199.7 c 0,-38.7 -10.8,-69 -32.4,-91.1 -21.5,-22.1 -53.3,-33.1 -95.4,-33.1"
         style="fill:#ffcbbb;fill-opacity:1;fill-rule:nonzero;stroke:none"
         id="path252" /><path
         d="m 10766.1,7333.5 v 73.4 h 73.4 v -73.4 z m 0,238.8 v 73.4 h 73.4 v -73.4 h -73.4"
         style="fill:#ffcbbb;fill-opacity:1;fill-rule:nonzero;stroke:none"
         id="path254" /><path
         d="m 11026.2,7770.8 v -437.3 h -73.3 V 7686 l -56.3,-32.2 v 81.6 l 56.3,35.4 h 73.3"
         style="fill:#ffcbbb;fill-opacity:1;fill-rule:nonzero;stroke:none"
         id="path256" /><path
         d="m 11244.6,7328.1 c -34.1,0 -62.4,10.5 -85,31.4 -22.5,21 -35.9,50.6 -40.1,88.9 v 0.3 h 71.9 v -0.3 c 1.8,-16 7.4,-28.5 16.8,-37.4 9.4,-8.9 21.8,-13.4 37,-13.4 17,0 30.2,5.6 39.6,16.8 9.3,11.3 13.9,27.2 13.9,47.9 v 37.6 c 0,20.4 -4.4,36.2 -13.3,47.5 -9,11.2 -21.6,16.8 -37.8,16.8 -11.2,0 -21.4,-3 -30.5,-9 -9.2,-6 -16.3,-14.4 -21.5,-25.3 h -66.5 v 240.9 H 11358 V 7702 h -157 v -87.9 c 7,6.3 15.5,11.1 25.5,14.5 10.1,3.4 20.2,5.1 30.4,5.1 36.1,0 64.1,-11.7 83.9,-35 19.9,-23.4 29.8,-56.3 29.8,-98.8 v -37.6 c 0,-42.8 -11,-75.8 -32.9,-99.1 -22,-23.4 -53,-35.1 -93.1,-35.1"
         style="fill:#ffcbbb;fill-opacity:1;fill-rule:nonzero;stroke:none"
         id="path258" /><path
         d="m 10350.3,5346.4 h -275.5 v 164.2 h 275.5 v -164.2"
         style="fill:#ffcbbb;fill-opacity:1;fill-rule:nonzero;stroke:none"
         id="path260" /><path
         d="m 10350.3,5566.2 h -275.5 v 164.3 h 275.5 v -164.3"
         style="fill:#ffcbbb;fill-opacity:1;fill-rule:nonzero;stroke:none"
         id="path262" /><path
         d="m 10716.5,5346.4 h -275.4 v 164.2 h 275.4 v -164.2"
         style="fill:#ffcbbb;fill-opacity:1;fill-rule:nonzero;stroke:none"
         id="path264" /><path
         d="m 10716.5,5566.2 h -275.4 v 164.3 h 275.4 v -164.3"
         style="fill:#ffcbbb;fill-opacity:1;fill-rule:nonzero;stroke:none"
         id="path266" /><path
         d="m 10716.5,5786.2 h -275.4 v 164.2 h 275.4 v -164.2"
         style="fill:#ffcbbb;fill-opacity:1;fill-rule:nonzero;stroke:none"
         id="path268" /><path
         d="m 11073,5346.4 h -275.4 v 164.2 h 275.4 v -164.2"
         style="fill:#ffcbbb;fill-opacity:1;fill-rule:nonzero;stroke:none"
         id="path270" /><path
         d="m 11073,5566.2 h -275.4 v 164.3 h 275.4 v -164.3"
         style="fill:#ffcbbb;fill-opacity:1;fill-rule:nonzero;stroke:none"
         id="path272" /><path
         d="m 11413.6,5346.4 h -275.4 v 164.2 h 275.4 v -164.2"
         style="fill:#ffcbbb;fill-opacity:1;fill-rule:nonzero;stroke:none"
         id="path274" /><path
         d="m 10350.3,5123.1 h -275.5 v 164.2 h 275.5 v -164.2"
         style="fill:#ffcbbb;fill-opacity:1;fill-rule:nonzero;stroke:none"
         id="path276" /><path
         d="m 10716.5,5123.1 h -275.4 v 164.2 h 275.4 v -164.2"
         style="fill:#ffcbbb;fill-opacity:1;fill-rule:nonzero;stroke:none"
         id="path278" /><path
         d="m 11073,5123.1 h -275.4 v 164.2 h 275.4 v -164.2"
         style="fill:#ffcbbb;fill-opacity:1;fill-rule:nonzero;stroke:none"
         id="path280" /><path
         d="m 11413.6,5123.1 h -275.4 v 164.2 h 275.4 v -164.2"
         style="fill:#ffcbbb;fill-opacity:1;fill-rule:nonzero;stroke:none"
         id="path282" /><path
         d="m 10350.3,4899.8 h -275.5 V 5064 h 275.5 v -164.2"
         style="fill:#ffcbbb;fill-opacity:1;fill-rule:nonzero;stroke:none"
         id="path284" /><path
         d="m 10716.5,4899.8 h -275.4 V 5064 h 275.4 v -164.2"
         style="fill:#ffcbbb;fill-opacity:1;fill-rule:nonzero;stroke:none"
         id="path286" /><path
         d="m 11073,4899.8 h -275.4 V 5064 h 275.4 v -164.2"
         style="fill:#ffcbbb;fill-opacity:1;fill-rule:nonzero;stroke:none"
         id="path288" /><path
         d="m 11413.6,4899.8 h -275.4 V 5064 h 275.4 v -164.2"
         style="fill:#ffcbbb;fill-opacity:1;fill-rule:nonzero;stroke:none"
         id="path290" /><path
         d="m 11413.6,5566.2 h -275.4 v 164.3 h 275.4 v -164.3"
         style="fill:#ffcbbb;fill-opacity:1;fill-rule:nonzero;stroke:none"
         id="path292" /><path
         d="m 11413.6,5786.2 h -275.4 v 164.2 h 275.4 v -164.2"
         style="fill:#ffcbbb;fill-opacity:1;fill-rule:nonzero;stroke:none"
         id="path294" /><path
         d="m 11413.6,6006 h -275.4 v 164.3 h 275.4 V 6006"
         style="fill:#ffcbbb;fill-opacity:1;fill-rule:nonzero;stroke:none"
         id="path296" /><path
         d="m 19218.6,12791.5 h -2427.3 c -94.1,0 -170.5,76.3 -170.5,170.5 v 749.9 c 0,94.2 76.4,170.5 170.5,170.5 h 2427.3 c 94.2,0 170.5,-76.3 170.5,-170.5 V 12962 c 0,-94.2 -76.3,-170.5 -170.5,-170.5"
         style="fill:#f77d48;fill-opacity:1;fill-rule:nonzero;stroke:none"
         id="path298" /><path
         d="m 17208.3,13071.6 v 79.4 l 188.2,249.2 c 9.7,12.7 17.2,25.8 22.6,39.2 5.4,13.5 8,26.2 8,38.2 v 0.8 c 0,18.4 -5.5,32.8 -16.6,43 -11.1,10.2 -26.9,15.3 -47.3,15.3 -19.5,0 -35.3,-6.1 -47.6,-18.3 -12.2,-12.2 -19.5,-29.7 -22,-52.4 v -0.4 h -92.1 v 0.4 c 5.3,49.7 22.1,88.1 50.5,115.4 28.5,27.4 65.3,41 110.4,41 49.9,0 88.6,-12.5 116,-37.4 27.4,-24.9 41.2,-60.1 41.2,-105.5 v -0.4 c 0,-21.9 -4.2,-44.3 -12.6,-67 -8.3,-22.7 -19.9,-43.7 -34.6,-63.2 l -145.9,-191.6 h 196 v -85.7 h -314.2"
         style="fill:#ffcbbb;fill-opacity:1;fill-rule:nonzero;stroke:none"
         id="path300" /><path
         d="m 17771.4,13150.6 c 24.7,0 42.4,7.3 53.3,21.9 10.8,14.6 16.3,34.6 16.3,60 v 222.3 c 0,25.7 -5.5,45.8 -16.3,60.2 -10.9,14.5 -28.6,21.7 -53.3,21.7 -24.7,0 -42.5,-7.2 -53.3,-21.7 -10.9,-14.4 -16.3,-34.5 -16.3,-60.2 v -222.3 c 0,-25.4 5.4,-45.4 16.3,-60 10.8,-14.6 28.6,-21.9 53.3,-21.9 z m 0,-85.7 c -52.9,0 -92.6,13.9 -119.2,41.5 -26.6,27.7 -39.8,65.4 -39.8,113 v 248.5 c 0,48.1 13.4,85.9 40.2,113.4 26.8,27.4 66.4,41.1 118.8,41.1 52.6,0 92.3,-13.6 119,-41 26.7,-27.3 40,-65.1 40,-113.5 v -248.5 c 0,-48.1 -13.4,-85.9 -40.2,-113.3 -26.8,-27.5 -66.4,-41.2 -118.8,-41.2"
         style="fill:#ffcbbb;fill-opacity:1;fill-rule:nonzero;stroke:none"
         id="path302" /><path
         d="m 18023.9,13071.6 v 91.3 h 91.3 v -91.3 z m 0,297.1 v 91.3 h 91.3 v -91.3 h -91.3"
         style="fill:#ffcbbb;fill-opacity:1;fill-rule:nonzero;stroke:none"
         id="path304" /><path
         d="m 18347.6,13615.7 v -544.1 h -91.3 v 438.6 l -70,-40.1 v 101.4 l 70,44.2 h 91.3"
         style="fill:#ffcbbb;fill-opacity:1;fill-rule:nonzero;stroke:none"
         id="path306" /><path
         d="m 18619.2,13064.9 c -42.4,0 -77.6,13 -105.7,39.1 -28,26.1 -44.7,62.9 -49.9,110.6 v 0.3 h 89.4 v -0.3 c 2.3,-20 9.2,-35.5 21,-46.6 11.7,-11.1 27,-16.7 46,-16.7 21.2,0 37.6,7 49.2,21 11.6,14 17.4,33.8 17.4,59.5 v 46.8 c 0,25.4 -5.6,45.1 -16.7,59.1 -11.1,13.9 -26.7,20.9 -46.9,20.9 -14,0 -26.7,-3.7 -38,-11.2 -11.3,-7.5 -20.3,-18 -26.7,-31.4 h -82.7 v 299.7 h 284.7 V 13530 H 18565 v -109.3 c 8.7,7.8 19.3,13.7 31.8,18 12.5,4.2 25.1,6.4 37.8,6.4 44.9,0 79.7,-14.6 104.4,-43.6 24.7,-29.1 37,-70.1 37,-122.9 v -46.8 c 0,-53.1 -13.6,-94.2 -41,-123.3 -27.3,-29.1 -65.9,-43.6 -115.8,-43.6"
         style="fill:#ffcbbb;fill-opacity:1;fill-rule:nonzero;stroke:none"
         id="path308" /><path
         d="M 28938.2,1867.7 H 1781.24 c -17.97,0 -32.67,14.7 -32.67,32.6 v 15.7 c 0,18 14.7,32.7 32.67,32.7 H 28938.2 c 17.9,0 32.6,-14.7 32.6,-32.7 v -15.7 c 0,-17.9 -14.7,-32.6 -32.6,-32.6"
         style="fill:#233862;fill-opacity:1;fill-rule:nonzero;stroke:none"
         id="path310" /><path
         d="m 10645.4,2541 v -372.3 c 0,0 -620,-26.4 -896.85,-26.4 -224.19,0 -896.8,30.8 -896.8,30.8 v 375.3 c 0,0 594.48,29.1 840.96,29.1 201.93,0 952.69,-36.5 952.69,-36.5"
         style="fill:#ed7d2b;fill-opacity:1;fill-rule:nonzero;stroke:none"
         id="path312" /><path
         d="m 10645.4,2541 v -235.2 c 0,0 -620,-26.3 -896.85,-26.3 -224.19,0 -896.8,30.7 -896.8,30.7 v 238.2 c 0,0 594.48,29.1 840.96,29.1 201.93,0 952.69,-36.5 952.69,-36.5"
         style="fill:#f99746;fill-opacity:1;fill-rule:nonzero;stroke:none"
         id="path314" /><path
         d="m 9066.39,2717.9 v -716 c 0,-29.4 -23.82,-53.2 -53.23,-53.2 h -322.83 c -29.41,0 -53.23,23.8 -53.23,53.2 v 716 c 0,29.4 23.82,53.3 53.23,53.3 h 322.83 c 29.41,0 53.23,-23.9 53.23,-53.3"
         style="fill:#d8681d;fill-opacity:1;fill-rule:nonzero;stroke:none"
         id="path316" /><path
         d="M 9066.39,2717.9 V 2497 H 8637.1 v 220.9 c 0,29.4 23.82,53.3 53.23,53.3 h 322.83 c 29.41,0 53.23,-23.9 53.23,-53.3"
         style="fill:#ed7d2b;fill-opacity:1;fill-rule:nonzero;stroke:none"
         id="path318" /><path
         d="M 9066.39,2497 V 2222.8 H 8637.1 V 2497 h 429.29"
         style="fill:#ef8535;fill-opacity:1;fill-rule:nonzero;stroke:none"
         id="path320" /><path
         d="m 10716.5,2717.9 v -716 c 0,-29.4 -23.8,-53.2 -53.2,-53.2 h -322.9 c -29.4,0 -53.2,23.8 -53.2,53.2 v 716 c 0,29.4 23.8,53.3 53.2,53.3 h 322.9 c 29.4,0 53.2,-23.9 53.2,-53.3"
         style="fill:#d8681d;fill-opacity:1;fill-rule:nonzero;stroke:none"
         id="path322" /><path
         d="M 10716.5,2717.9 V 2497 h -429.3 v 220.9 c 0,29.4 23.8,53.3 53.2,53.3 h 322.9 c 29.4,0 53.2,-23.9 53.2,-53.3"
         style="fill:#ed7d2b;fill-opacity:1;fill-rule:nonzero;stroke:none"
         id="path324" /><path
         d="m 10716.5,2497 v -274.2 h -429.3 V 2497 h 429.3"
         style="fill:#ef8535;fill-opacity:1;fill-rule:nonzero;stroke:none"
         id="path326" /></g></g></svg>
