<?xml version="1.0" encoding="UTF-8" standalone="no"?>
<svg
   xmlns:dc="http://purl.org/dc/elements/1.1/"
   xmlns:cc="http://creativecommons.org/ns#"
   xmlns:rdf="http://www.w3.org/1999/02/22-rdf-syntax-ns#"
   xmlns:svg="http://www.w3.org/2000/svg"
   xmlns="http://www.w3.org/2000/svg"
   xmlns:sodipodi="http://sodipodi.sourceforge.net/DTD/sodipodi-0.dtd"
   xmlns:inkscape="http://www.inkscape.org/namespaces/inkscape"
   version="1.1"
   id="svg2"
   xml:space="preserve"
   width="4266.6665"
   height="2666.6667"
   viewBox="0 0 4266.6665 2666.6667"
   sodipodi:docname="8225.eps"><metadata
     id="metadata8"><rdf:RDF><cc:Work
         rdf:about=""><dc:format>image/svg+xml</dc:format><dc:type
           rdf:resource="http://purl.org/dc/dcmitype/StillImage" /></cc:Work></rdf:RDF></metadata><defs
     id="defs6" /><sodipodi:namedview
     pagecolor="#ffffff"
     bordercolor="#666666"
     borderopacity="1"
     objecttolerance="10"
     gridtolerance="10"
     guidetolerance="10"
     inkscape:pageopacity="0"
     inkscape:pageshadow="2"
     inkscape:window-width="640"
     inkscape:window-height="480"
     id="namedview4" /><g
     id="g10"
     inkscape:groupmode="layer"
     inkscape:label="ink_ext_XXXXXX"
     transform="matrix(1.3333333,0,0,-1.3333333,0,2666.6667)"><g
       id="g12"
       transform="scale(0.1)"><path
         d="M 0,0 H 32000 V 20000 H 0 Z"
         style="fill:#ffffff;fill-opacity:1;fill-rule:nonzero;stroke:none"
         id="path14" /><path
         d="m 30591.8,6884.3 c -12.9,485.8 -86,872.6 -203.9,1183.8 -188.1,497.1 -490.2,801.8 -842.2,1010.3 -53.8,31.8 -108.7,61.5 -164.6,89.2 -23.1,11.4 -46.4,22.6 -69.8,33.5 -103.5,48 -209.9,90 -317.8,128.2 -55.9,19.9 -112.4,38.7 -168.8,56.8 -21.7,6.9 -43.4,13.7 -65.2,20.4 -187.7,58.4 -376.6,109.9 -559.6,165.4 -66.7,20.2 -132.6,41 -197.4,62.8 -62.5,21 -123.9,42.9 -183.9,66.3 -107.2,41.7 -210.2,88 -307,141.6 -6.4,3.4 -12.7,7 -19.1,10.6 -26.7,15.1 -53,30.9 -78.8,47.3 -159.1,101 -298.5,226.1 -409.3,388.6 -5.8,8.6 -11.7,17.3 -17.3,26.1 -15.1,23.2 -29.5,47.1 -43.4,71.7 -87.1,155.6 -151.1,341.7 -185.6,567.9 -13.8,90.6 -22.9,187.5 -27,291.5 -61.9,1600.9 -1697.7,5239.9 -6214.6,4499.6 -200.9,-32.9 -407.6,-74.6 -620,-125.4 -116.3,-27.8 -234.5,-58.4 -354.3,-91.8 -3671.4,-1024.9 -2754.9,-2708.4 -7944.4,-1870.7 -197.6,31.8 -404,67.3 -620,106.7 -69.6,12.7 -140.2,25.8 -211.8,39.3 -1339.42,252.6 -5030.84,326 -7691.93,-2350.8 -64.86,-65.2 -126.95,-131.1 -186.51,-197.8 -88.88,-99.6 -172.09,-200.7 -249.77,-303.3 -5.77,-7.6 -11.54,-15.2 -17.2,-22.9 -102.6,-137.1 -195.4,-276.7 -279.08,-418.3 v -0.2 c -33.24,-56.1 -64.97,-112.4 -95.22,-169.1 -26.54,-49.6 -52.05,-99.4 -76.41,-149.4 -93.02,-190.3 -170.82,-383.6 -235.22,-578.8 -14.31,-43.7 -28.04,-87.4 -41.08,-131.2 -9.47,-31.7 -18.59,-63.4 -27.36,-95.3 -11.42,-41.3 -22.16,-82.6 -32.55,-124.1 -6.92,-28.5 -13.74,-57.1 -20.2,-85.7 -4.26,-18.6 -8.42,-37.1 -12.23,-55.5 -11.89,-53.9 -22.62,-107.8 -32.43,-162 -19.4,-106.3 -35.43,-212.9 -48.13,-319.6 -19.05,-159 -30.82,-318.2 -36.24,-477 -2.43,-69.1 -3.58,-138.1 -3.58,-207.2 0,-1229.3 365.99,-2424.4 751.83,-3343.1 33.01,-78.6 66.14,-155.1 99.26,-229.4 5.54,-12.5 11.08,-24.8 16.51,-37.2 6.81,-15 13.5,-30 20.31,-44.8 h 51.02 l 0.8,-1.9 1.73,-4.1 v 6 H 30271.8 c 6.2,27.5 12.2,54.9 18.2,82 230.3,1043.3 318.7,1858.7 301.8,2501"
         style="fill:#ebf3fa;fill-opacity:1;fill-rule:nonzero;stroke:none"
         id="path16" /><path
         d="m 30387.9,8068.1 c -188.1,497.1 -490.2,801.8 -842.2,1010.3 -53.8,31.8 -108.7,61.5 -164.6,89.2 -23.1,11.4 -46.4,22.6 -69.8,33.5 -103.5,48 -209.9,90 -317.8,128.2 l -234,77.2 c -187.7,58.4 -376.6,109.9 -559.6,165.4 -66.7,20.2 -132.6,41 -197.4,62.8 -62.5,21 -123.9,42.9 -183.9,66.3 -107.2,41.7 -210.2,88 -307,141.6 -6.4,3.4 -12.7,7 -19.1,10.6 -26.7,15.1 -53,30.9 -78.8,47.3 -159.1,101 -298.5,226.1 -409.3,388.6 -5.8,8.6 -11.7,17.3 -17.3,26.1 -15.1,23.2 -29.5,47.1 -43.4,71.7 -87.1,155.6 -151.1,341.7 -185.6,567.9 h -729.5 V 9935.4 h -517.3 v -256.8 h -557.8 v 442.3 H 23950 v 1201.4 h -157 v 119.6 h -22.5 v -119.6 h -130 v 0.2 h -650.9 v 119.4 h -22.5 v -119.4 h -169.5 v -604.2 l -842.9,3.3 v -372.9 H 21240 v 2305.4 h -2117.2 v -2469.8 h -646.6 v 1335.4 H 16358.9 V 4301.3 h 13887.6 c 4.1,19.4 8.1,38.7 12.1,57.9 1.8,8 3.5,16.1 5.1,24.1 16.3,77.6 31.9,154.1 46.8,229.4 180.2,908.8 267.4,1655.5 281.3,2271.6 -12.9,485.8 -86,872.6 -203.9,1183.8"
         style="fill:#dfebfa;fill-opacity:1;fill-rule:nonzero;stroke:none"
         id="path18" /><path
         d="M 16360.9,4301.3 V 9946.6 H 15297.6 V 4301.3 h 112.7 948.6 2"
         style="fill:#dfebfa;fill-opacity:1;fill-rule:nonzero;stroke:none"
         id="path20" /><path
         d="m 26325.5,10946 h -39.1 v 484.2 h 39.1 V 10946"
         style="fill:#dfebfa;fill-opacity:1;fill-rule:nonzero;stroke:none"
         id="path22" /><path
         d="m 19288.6,12654 h -25.3 v 172.6 h 25.3 V 12654"
         style="fill:#dfebfa;fill-opacity:1;fill-rule:nonzero;stroke:none"
         id="path24" /><path
         d="m 19824.6,12654 h -25.3 v 172.6 h 25.3 V 12654"
         style="fill:#dfebfa;fill-opacity:1;fill-rule:nonzero;stroke:none"
         id="path26" /><path
         d="m 21053.3,12654 h -25.3 v 172.6 h 25.3 V 12654"
         style="fill:#dfebfa;fill-opacity:1;fill-rule:nonzero;stroke:none"
         id="path28" /><path
         d="m 20572.9,12654 h -25.3 v 172.6 h 25.3 V 12654"
         style="fill:#dfebfa;fill-opacity:1;fill-rule:nonzero;stroke:none"
         id="path30" /><path
         d="m 15409.2,4383.3 -78.5,5563.3 -11.9,845.4 h -558.9 v 1110.2 c -8.6,4.4 -17.2,8.9 -25.8,13.3 h -166.7 v 0.6 h -969.3 v -0.6 h -0.8 v -166.4 h 0.8 v -114.5 h -0.8 v -166.4 h 0.8 v -114.8 h -0.8 V 11187 h 0.8 v -0.7 l -102.7,0.7 v 870.6 h -1087.7 v -110.4 h -0.6 v -166.3 h 0.6 v -146.3 h -0.6 v -166.4 h 0.6 v -114.8 h -0.6 V 11187 h 0.6 v -106.3 h -0.6 v -166.5 h 0.6 v -106.3 h -0.6 v -166.4 h 0.6 v -100.1 h -0.6 v -105.7 h 0.6 v -11.5 h -1226.1 v -952.5 h -458 v -239.8 h -493.8 v 413.2 h -888.4 v 1122.4 h -138.96 v 111.9 h -19.86 v -111.9 h -115.3 v 0.3 h -576.17 v 111.6 h -19.96 v -111.6 H 8321.1 v -564.5 l -746.29,3.1 v -348.5 h -632.73 v 2153.9 H 5067.58 V 9704.4 H 4495.1 v 1247.7 H 2620.59 V 4299.4 l 1.73,-4.1 v 6 H 15410.3 l -1.1,82"
         style="fill:#dfebfa;fill-opacity:1;fill-rule:nonzero;stroke:none"
         id="path32" /><path
         d="M 2622.32,9482.2 V 4295.3 l -1.73,4.1 -0.8,1.9 c -11.66,27 -23.2,54.4 -34.86,82 -413.66,982.2 -856.75,2350.8 -900.5,3779.7 9.01,265.4 36.01,531.7 84.38,796.6 31.85,175.1 73.17,349.5 124.76,522.6 h 728.75"
         style="fill:#dfebfa;fill-opacity:1;fill-rule:nonzero;stroke:none"
         id="path34" /><path
         d="M 6942.09,11646.7 H 5549.86 v 365.1 h 1392.23 v -365.1"
         style="fill:#eef6ff;fill-opacity:1;fill-rule:nonzero;stroke:none"
         id="path36" /><path
         d="M 6942.09,11084.7 H 5549.86 v 365.1 h 1392.23 v -365.1"
         style="fill:#eef6ff;fill-opacity:1;fill-rule:nonzero;stroke:none"
         id="path38" /><path
         d="M 6942.09,10511 H 5549.86 v 365.1 H 6942.09 V 10511"
         style="fill:#eef6ff;fill-opacity:1;fill-rule:nonzero;stroke:none"
         id="path40" /><path
         d="M 6942.09,9928.2 H 5549.86 v 365.1 h 1392.23 v -365.1"
         style="fill:#eef6ff;fill-opacity:1;fill-rule:nonzero;stroke:none"
         id="path42" /><path
         d="M 6942.09,9365.9 H 5549.86 V 9731 h 1392.23 v -365.1"
         style="fill:#eef6ff;fill-opacity:1;fill-rule:nonzero;stroke:none"
         id="path44" /><path
         d="M 13104.1,11835.8 H 12408 v 221.7 h 696.1 v -221.7"
         style="fill:#eef6ff;fill-opacity:1;fill-rule:nonzero;stroke:none"
         id="path46" /><path
         d="M 13104.1,11494.5 H 12408 v 221.7 h 696.1 v -221.7"
         style="fill:#eef6ff;fill-opacity:1;fill-rule:nonzero;stroke:none"
         id="path48" /><path
         d="M 13104.1,11146.1 H 12408 v 221.7 h 696.1 v -221.7"
         style="fill:#eef6ff;fill-opacity:1;fill-rule:nonzero;stroke:none"
         id="path50" /><path
         d="M 13104.1,10792.1 H 12408 v 221.8 h 696.1 v -221.8"
         style="fill:#eef6ff;fill-opacity:1;fill-rule:nonzero;stroke:none"
         id="path52" /><path
         d="M 13104.1,10450.6 H 12408 v 221.7 h 696.1 v -221.7"
         style="fill:#eef6ff;fill-opacity:1;fill-rule:nonzero;stroke:none"
         id="path54" /><path
         d="M 13104.1,10074.7 H 12408 v 221.8 h 696.1 v -221.8"
         style="fill:#eef6ff;fill-opacity:1;fill-rule:nonzero;stroke:none"
         id="path56" /><path
         d="M 13104.1,9733.5 H 12408 v 221.7 h 696.1 v -221.7"
         style="fill:#eef6ff;fill-opacity:1;fill-rule:nonzero;stroke:none"
         id="path58" /><path
         d="M 13104.1,9385 H 12408 v 221.8 h 696.1 V 9385"
         style="fill:#eef6ff;fill-opacity:1;fill-rule:nonzero;stroke:none"
         id="path60" /><path
         d="M 13104.1,9031.1 H 12408 v 221.7 h 696.1 v -221.7"
         style="fill:#eef6ff;fill-opacity:1;fill-rule:nonzero;stroke:none"
         id="path62" /><path
         d="M 13104.1,8689.6 H 12408 v 221.7 h 696.1 v -221.7"
         style="fill:#eef6ff;fill-opacity:1;fill-rule:nonzero;stroke:none"
         id="path64" /><path
         d="m 14295.6,11690.4 h -696.1 v 221.7 h 696.1 v -221.7"
         style="fill:#eef6ff;fill-opacity:1;fill-rule:nonzero;stroke:none"
         id="path66" /><path
         d="m 14295.6,11349.1 h -696.1 v 221.7 h 696.1 v -221.7"
         style="fill:#eef6ff;fill-opacity:1;fill-rule:nonzero;stroke:none"
         id="path68" /><path
         d="m 14295.6,11000.7 h -696.1 v 221.7 h 696.1 v -221.7"
         style="fill:#eef6ff;fill-opacity:1;fill-rule:nonzero;stroke:none"
         id="path70" /><path
         d="m 14295.6,10646.7 h -696.1 v 221.7 h 696.1 v -221.7"
         style="fill:#eef6ff;fill-opacity:1;fill-rule:nonzero;stroke:none"
         id="path72" /><path
         d="m 14295.6,10305.2 h -696.1 v 221.7 h 696.1 v -221.7"
         style="fill:#eef6ff;fill-opacity:1;fill-rule:nonzero;stroke:none"
         id="path74" /><path
         d="m 11444.5,10416.1 h -34.5 v 452.3 h 34.5 v -452.3"
         style="fill:#dfebfa;fill-opacity:1;fill-rule:nonzero;stroke:none"
         id="path76" /><path
         d="m 12045.7,10380.9 h -53.8 v 876 h 53.8 v -876"
         style="fill:#dfebfa;fill-opacity:1;fill-rule:nonzero;stroke:none"
         id="path78" /><path
         d="m 5214.41,12011.8 h -22.38 v 161.3 h 22.38 v -161.3"
         style="fill:#dfebfa;fill-opacity:1;fill-rule:nonzero;stroke:none"
         id="path80" /><path
         d="m 5688.93,12011.8 h -22.39 v 161.3 h 22.39 v -161.3"
         style="fill:#dfebfa;fill-opacity:1;fill-rule:nonzero;stroke:none"
         id="path82" /><path
         d="m 6776.73,12011.8 h -22.38 v 161.3 h 22.38 v -161.3"
         style="fill:#dfebfa;fill-opacity:1;fill-rule:nonzero;stroke:none"
         id="path84" /><path
         d="m 12533,12057.5 h -17.3 v 124.5 h 17.3 v -124.5"
         style="fill:#dfebfa;fill-opacity:1;fill-rule:nonzero;stroke:none"
         id="path86" /><path
         d="m 13349.6,12057.5 h -17.3 v 124.5 h 17.3 v -124.5"
         style="fill:#dfebfa;fill-opacity:1;fill-rule:nonzero;stroke:none"
         id="path88" /><path
         d="m 6351.46,12011.8 h -22.38 v 161.3 h 22.38 v -161.3"
         style="fill:#dfebfa;fill-opacity:1;fill-rule:nonzero;stroke:none"
         id="path90" /><path
         d="m 20515.8,12157.3 h -1382.4 v 281.5 h 1382.4 v -281.5"
         style="fill:#eef6ff;fill-opacity:1;fill-rule:nonzero;stroke:none"
         id="path92" /><path
         d="m 20515.8,11724 h -1382.4 v 281.5 h 1382.4 V 11724"
         style="fill:#eef6ff;fill-opacity:1;fill-rule:nonzero;stroke:none"
         id="path94" /><path
         d="m 20515.8,11281.7 h -1382.4 v 281.5 h 1382.4 v -281.5"
         style="fill:#eef6ff;fill-opacity:1;fill-rule:nonzero;stroke:none"
         id="path96" /><path
         d="m 20515.8,10832.3 h -1382.4 v 281.5 h 1382.4 v -281.5"
         style="fill:#eef6ff;fill-opacity:1;fill-rule:nonzero;stroke:none"
         id="path98" /><path
         d="m 20515.8,10398.7 h -1382.4 v 281.5 h 1382.4 v -281.5"
         style="fill:#eef6ff;fill-opacity:1;fill-rule:nonzero;stroke:none"
         id="path100" /><path
         d="M 17030.1,11060.6 H 18472 v 328.57 h -1441.9 z"
         style="fill:#e5effc;fill-opacity:1;fill-rule:nonzero;stroke:none"
         id="path102" /><path
         d="M 17030.1,10554.9 H 18472 v 328.57 h -1441.9 z"
         style="fill:#e5effc;fill-opacity:1;fill-rule:nonzero;stroke:none"
         id="path104" /><path
         d="M 17030.1,10038.6 H 18472 v 328.57 h -1441.9 z"
         style="fill:#e5effc;fill-opacity:1;fill-rule:nonzero;stroke:none"
         id="path106" /><path
         d="M 17030.1,9514.1 H 18472 v 328.5 h -1441.9 z"
         style="fill:#e5effc;fill-opacity:1;fill-rule:nonzero;stroke:none"
         id="path108" /><path
         d="M 17030.1,9008 H 18472 v 328.5 h -1441.9 z"
         style="fill:#e5effc;fill-opacity:1;fill-rule:nonzero;stroke:none"
         id="path110" /><path
         d="m 30310.5,4612.7 c -14.9,-75.3 -30.5,-151.9 -46.8,-229.4 -1.6,-8 -3.3,-16.1 -5,-24.1 l -81.1,-0.1 -9097.9,-13 H 2548.46 c -5.43,12.4 -10.97,24.7 -16.51,37.2 -33.12,74.3 -66.25,150.8 -99.26,229.4 H 30310.5"
         style="fill:#afcdfb;fill-opacity:1;fill-rule:nonzero;stroke:none"
         id="path112" /><path
         d="M 10050.4,13894.3 V 4519.8 h -310 v 9392.4 l 310,-17.9"
         style="fill:#d4e4f8;fill-opacity:1;fill-rule:nonzero;stroke:none"
         id="path114" /><path
         d="M 21306.2,15833.6 V 4519.8 h -310 v 11289.4 l 310,24.4"
         style="fill:#d4e4f8;fill-opacity:1;fill-rule:nonzero;stroke:none"
         id="path116" /><path
         d="m 4876.6,4563.5 c -55.41,0 -107.48,34.1 -127.71,89.1 L 3423.85,8246.7 c -25.99,70.5 10.11,148.7 80.65,174.7 70.27,25.9 148.79,-10 174.78,-80.6 l 1325.04,-3594 c 25.99,-70.6 -10.12,-148.8 -80.66,-174.8 -15.5,-5.8 -31.37,-8.5 -47.06,-8.5"
         style="fill:#94b0ed;fill-opacity:1;fill-rule:nonzero;stroke:none"
         id="path118" /><path
         d="m 5884.12,4563.5 c -55.41,0 -107.48,34.1 -127.71,89.1 L 4431.27,8246.7 c -25.99,70.5 10.12,148.7 80.66,174.7 70.36,25.9 148.88,-10 174.77,-80.6 l 1325.14,-3594 c 25.99,-70.6 -10.12,-148.8 -80.66,-174.8 -15.5,-5.8 -31.37,-8.5 -47.06,-8.5"
         style="fill:#94b0ed;fill-opacity:1;fill-rule:nonzero;stroke:none"
         id="path120" /><path
         d="m 4847.15,7640.3 -1068.69,-95.3 -318.48,748.7 1128.51,40.9 258.66,-694.3"
         style="fill:#94b0ed;fill-opacity:1;fill-rule:nonzero;stroke:none"
         id="path122" /><path
         d="M 10376.7,4372.9 H 4077.96 c -119.8,0 -217.82,98.1 -217.82,217.9 0,119.8 98.02,217.8 217.82,217.8 h 6298.74 c 119.8,0 217.8,-98 217.8,-217.8 0,-119.8 -98,-217.9 -217.8,-217.9"
         style="fill:#94b0ed;fill-opacity:1;fill-rule:nonzero;stroke:none"
         id="path124" /><path
         d="M 5643.54,6986.8 H 3969.05 c -30.08,0 -54.48,24.4 -54.48,54.5 0,30 24.4,54.5 54.48,54.5 h 1669.29 l 350.85,68 H 4962.83 c -30.07,0 -54.49,24.4 -54.49,54.5 0,30 24.42,54.5 54.49,54.5 h 1592.91 c 28.03,0 51.52,-21.4 54.21,-49.3 2.69,-28 -16.25,-53.3 -43.81,-58.7 l -912.2,-177 c -3.44,-0.6 -6.87,-1 -10.4,-1"
         style="fill:#94b0ed;fill-opacity:1;fill-rule:nonzero;stroke:none"
         id="path126" /><path
         d="m 29186.3,10021.9 -374.6,-4735.5 -2.4,-31.2 c -18.9,-238.6 -229.6,-418.4 -468.2,-399.5 l -863.5,68.2 c -238.7,18.9 -418.4,229.6 -399.5,468.2 l 377,4766.7 c 18.9,238.6 229.5,418.5 468.1,399.6 l 396.4,-31.4 467.1,-37 c 238.7,-18.8 418.5,-229.5 399.6,-468.1"
         style="fill:#aec3ff;fill-opacity:1;fill-rule:nonzero;stroke:none"
         id="path128" /><path
         d="M 29089.8,5280.2 V 4578 c 0,-116 -94.9,-210.9 -210.8,-210.9 h -1875.8 c -115.9,0 -210.8,94.9 -210.8,210.9 v 702.2 c 0,116 94.9,210.8 210.8,210.8 H 28879 c 115.9,0 210.8,-94.8 210.8,-210.8"
         style="fill:#94b0ed;fill-opacity:1;fill-rule:nonzero;stroke:none"
         id="path130" /><path
         d="M 28827.9,5491 H 28316 c 0,0 277.9,3461.6 356.5,4237.1 62.7,616.9 -230.4,764.4 -352.9,798.9 l 467.1,-37 c 227,-17.9 400.8,-209.3 400.9,-433.4 0.1,-11.5 -0.4,-23.1 -1.3,-34.7 L 28827.9,5491"
         style="fill:#9eb8f4;fill-opacity:1;fill-rule:nonzero;stroke:none"
         id="path132" /><path
         d="m 28811.7,5286.4 c -258,33.4 -495.7,204.6 -495.7,204.6 v 0 h 511.9 l -16.2,-204.6"
         style="fill:#94b0ed;fill-opacity:1;fill-rule:nonzero;stroke:none"
         id="path134" /><path
         d="m 20170.3,5419 v -979.8 c 0,-43.6 -35.7,-79.3 -79.3,-79.3 h -1191.6 c -43.7,0 -79.4,35.7 -79.4,79.3 V 5419 c 0,43.7 35.7,79.4 79.4,79.4 H 20091 c 43.6,0 79.3,-35.7 79.3,-79.4"
         style="fill:#ef7e29;fill-opacity:1;fill-rule:nonzero;stroke:none"
         id="path136" /><path
         d="m 20616.3,4359.9 h -1191.6 c -43.6,0 -79.3,35.7 -79.3,79.3 V 5419 c 0,43.7 35.7,79.3 79.3,79.3 h 1191.6 c 43.6,0 79.3,-35.6 79.3,-79.3 v -979.8 c 0,-43.6 -35.7,-79.3 -79.3,-79.3"
         style="fill:#f99746;fill-opacity:1;fill-rule:nonzero;stroke:none"
         id="path138" /><path
         d="m 19355.1,7444.3 c -40.7,-74.5 -142.1,-117.7 -261.9,-150.5 -13.4,-3.7 -26.9,-7.2 -40.7,-10.7 -210.1,-52.4 -491.5,-22.3 -573.1,-131.5 -90.5,-121.4 -198.3,-758.8 -198.3,-758.8 -129.8,-51.7 -128.3,-26.4 -128.3,-26.4 -39.9,172.3 -42.9,696.3 -33.5,840.7 10.8,165.8 351.3,398.4 644.3,568.7 223.7,130.2 419.7,224.1 419.7,224.1 6.1,-1.3 12.1,-2.7 17.9,-4.2 258.2,-65.5 265.9,-346.4 153.9,-551.4"
         style="fill:#ffb27d;fill-opacity:1;fill-rule:nonzero;stroke:none"
         id="path140" /><path
         d="m 19201.2,7995.7 c -27.7,-231.9 -72.2,-574.6 -108,-701.9 -13.4,-3.7 -26.9,-7.2 -40.7,-10.7 l -0.1,0.5 c -40.5,243.1 -244.9,450.1 -288.8,492.2 223.7,130.2 419.7,224.1 419.7,224.1 6.1,-1.3 12.1,-2.7 17.9,-4.2"
         style="fill:#ef7e29;fill-opacity:1;fill-rule:nonzero;stroke:none"
         id="path142" /><path
         d="m 19546,8141.8 c 0,0 -309,-339 -557.9,-356.2 0,0 27.1,91.1 101.7,180.6 -12.5,20.7 -23.8,40.2 -34.2,58.4 -59.2,104.6 -84.8,168.4 -84.8,168.4 l 199.4,336.5 c 4.5,-12.4 9.3,-24.4 14.3,-36.1 10.7,-25.4 22.5,-49 34.9,-71 6.1,-10.7 12.3,-21.2 18.7,-31.2 127.3,-199.5 307.9,-249.4 307.9,-249.4"
         style="fill:#ffb27d;fill-opacity:1;fill-rule:nonzero;stroke:none"
         id="path144" /><path
         d="m 19055.6,8024.6 c -59.2,104.6 -84.8,168.4 -84.8,168.4 l 199.4,336.5 c 4.5,-12.4 9.3,-24.4 14.3,-36.1 21.3,-86.1 48.5,-295.6 -128.9,-468.8"
         style="fill:#f4a671;fill-opacity:1;fill-rule:nonzero;stroke:none"
         id="path146" /><path
         d="m 18931.1,8144.9 c 0,0 352.2,185.8 233.1,403.4 -119.1,217.6 -153.8,388.1 -383.7,278.7 -230,-109.5 -227.9,-216.2 -205.8,-298.5 22.1,-82.3 261.7,-426.3 356.4,-383.6"
         style="fill:#ffb27d;fill-opacity:1;fill-rule:nonzero;stroke:none"
         id="path148" /><path
         d="m 19172.4,8533.3 c 0,0 -205.2,256.7 -522,82.1 -217.1,-119.7 -222.9,133.3 -220.2,176.1 0,0 170.9,84.9 349.1,167.5 374,173.4 397.4,-361.1 393.1,-425.7"
         style="fill:#2c3a64;fill-opacity:1;fill-rule:nonzero;stroke:none"
         id="path150" /><path
         d="m 19580.8,6214.1 c -10.2,9.1 -16.8,17.6 -19.1,25.3 -3.9,12.5 -188,10.3 -578,1076.9 -67.9,185.6 -22.7,465 44.7,583.7 l 49.7,83 c 83.4,8.9 171.5,50.8 241.4,117.9 19.3,18.5 42.1,30.6 65.6,38.3 69.5,22.8 146.3,7.3 160.9,2.6 261.1,-91 464,-465.7 605.2,-1018.2 88.1,-348.2 209.9,-556.6 293.2,-857.4 24.9,-89.8 46.4,-188 62.5,-300.7 14.6,-102.3 -788,126.5 -926.1,248.6"
         style="fill:#ffb27d;fill-opacity:1;fill-rule:nonzero;stroke:none"
         id="path152" /><path
         d="m 19658.5,5754 c -92.9,-12.4 -227.8,-12.5 -376.1,-8.2 -403.7,11.9 -909.8,57.7 -939.5,-22.2 -193.7,-521.4 -889.8,-931.2 -902.1,-1124.6 2.3,-12.5 -176.8,83.3 -171.2,87.3 0,0 56.7,23.7 618.6,1551.9 51.5,140.3 637.9,193.8 992.7,222 226.6,18.2 403.3,25.2 403.3,25.2 0,0 241.8,40.3 489.4,23 247.6,-17.3 230.3,-708.4 -115.1,-754.4"
         style="fill:#f4a671;fill-opacity:1;fill-rule:nonzero;stroke:none"
         id="path154" /><path
         d="m 18152.8,6366.4 c 0,0 175.3,-63.3 249.9,-26 74.6,37.3 9.3,133.6 -40.4,133.6 -49.7,0 -159.8,-1.9 -209.5,-107.6"
         style="fill:#ffb27d;fill-opacity:1;fill-rule:nonzero;stroke:none"
         id="path156" /><path
         d="m 19756.4,5754 c -92.9,-12.4 -227.8,-12.5 -376.2,-8.2 36.3,117.2 131.9,328.4 -9,484.9 0,0 -153.2,210.6 -276.2,245 226.5,18.1 287.1,9.7 287.1,9.7 0,0 241.8,40.2 489.4,23 247.6,-17.3 230.4,-708.4 -115.1,-754.4"
         style="fill:#213f7a;fill-opacity:1;fill-rule:nonzero;stroke:none"
         id="path158" /><path
         d="m 20444.4,6266.2 -4,-3.5 -859.6,-48.6 c -10.2,9.1 -16.8,17.7 -19.1,25.4 -0.6,1.9 -5.8,3.5 -15.4,9 -27.5,15.6 -91.6,62.3 -194.8,236.6 -91.4,154.5 -213.5,409.2 -367.8,831.2 -67.9,185.6 -22.7,465 44.7,583.7 0,0 49.2,-27.3 110.6,2.5 148.3,71.9 396.7,242.6 406.9,239.3 261.2,-91 464.1,-465.7 605.3,-1018.2 88.1,-348.2 209.9,-556.6 293.2,-857.4"
         style="fill:#f99746;fill-opacity:1;fill-rule:nonzero;stroke:none"
         id="path160" /><path
         d="m 19935.6,7321.6 -421.3,-395.4 -257.3,396.4 94.5,-837.5 c 103.2,-174.3 167.3,-221 194.8,-236.6 238,-13.4 583.6,-8.1 611.3,133.3 42.5,217.2 -222,939.8 -222,939.8"
         style="fill:#ef7e29;fill-opacity:1;fill-rule:nonzero;stroke:none"
         id="path162" /><path
         d="m 20309.5,5525.9 c -772.8,-184 -1494.8,272.9 -1521.6,142.4 -83,-404.2 -502.5,-990 -512.3,-1059.9 -1.5,-10.3 -185,-26 -185,-26 0,0 180.8,1427.8 333.6,1612.7 157.9,190.9 1577.2,114.1 1577.2,114.1 553.5,109.7 651.5,-701.5 308.1,-783.3"
         style="fill:#ffb27d;fill-opacity:1;fill-rule:nonzero;stroke:none"
         id="path164" /><path
         d="m 19401.9,6325.1 c 0,0 377.7,-391 419.7,-429.5 42,-38.4 202.8,-24.5 202.8,-24.5 0,0 -176,-23.3 -176,-53.6 0,-30.3 111.9,-351.9 153.8,-351.9 42,0 354.3,18.6 428.9,55.9 74.6,37.3 172.5,452.2 21,783.2 l -121.8,293.7 c 0,0 -172.7,-252.8 -928.4,-273.3"
         style="fill:#213f7a;fill-opacity:1;fill-rule:nonzero;stroke:none"
         id="path166" /><path
         d="m 19408.7,6948.4 c -34.5,128.7 -170.9,204 -304.6,168.1 -34.2,-9.2 -64.9,-24.8 -91.1,-45 l -52.7,-38.2 6.4,-8.2 c -44,-57.6 -62,-132.8 -42.3,-206.6 34.6,-128.7 170.9,-203.9 304.7,-168.1 8.3,2.3 16.5,4.9 24.5,7.9 l 6.1,-7.8 59.7,44.2 -0.1,0.1 c 76.8,58.8 115.2,157.5 89.4,253.6"
         style="fill:#94b0ed;fill-opacity:1;fill-rule:nonzero;stroke:none"
         id="path168" /><path
         d="m 18874.5,6782.2 c -34.5,128.7 45.9,262.1 179.6,297.9 133.7,35.9 270.1,-39.3 304.6,-168 34.5,-128.8 -45.9,-262.1 -179.6,-298 -133.7,-35.9 -270.1,39.4 -304.6,168.1"
         style="fill:#aec3ff;fill-opacity:1;fill-rule:nonzero;stroke:none"
         id="path170" /><path
         d="m 19163.2,6849.2 c -2.5,28.8 -37.5,57.2 -75,43.3 -15.3,-5.6 -418.3,-257.8 -418.3,-257.8 l 86.2,-106.8 391.1,279.2 c 0,0 18.5,13 16,42.1"
         style="fill:#789cdd;fill-opacity:1;fill-rule:nonzero;stroke:none"
         id="path172" /><path
         d="m 19953.3,6332.6 c -181.9,-181.7 -1016.2,335.7 -1016.2,335.7 l 94.3,164.3 544.3,-127 c -152.3,222.2 -253.2,440.9 -318.7,617 -84.9,228.5 -110.2,385.3 -110.2,385.3 -46.6,186.4 364,422.5 564.1,233 66.7,-63.2 136.2,-243 192.3,-461.3 112.1,-436.1 171.2,-1025.8 50.1,-1147"
         style="fill:#ffb27d;fill-opacity:1;fill-rule:nonzero;stroke:none"
         id="path174" /><path
         d="m 19876.9,7575.7 c -192.5,-45.3 -573.1,-147 -619.9,-253 0,0 355.2,152.5 702.1,-96.8 l -82.2,349.8"
         style="fill:#f4a671;fill-opacity:1;fill-rule:nonzero;stroke:none"
         id="path176" /><path
         d="m 19903.2,7479.6 c -366.9,34.4 -608.1,-129.1 -646.2,-157 -84.9,228.5 -110.2,385.3 -110.2,385.3 -46.6,186.4 364,422.5 564.1,233 66.7,-63.2 136.2,-243 192.3,-461.3"
         style="fill:#f99746;fill-opacity:1;fill-rule:nonzero;stroke:none"
         id="path178" /><path
         d="m 17477.8,4365.5 h -95.3 c -32,5 -55.6,14.3 -88.3,18.6 -49.8,6.5 -72.7,-13.9 -77.3,-18.6 l -0.9,-1 h -405.1 c -10.2,14.6 -0.4,48.3 9.2,73.1 6.4,16.9 20.5,29.7 37.9,34.7 43,12.4 127.7,23.5 205.2,93.7 43.7,39.4 210.8,145 210.8,145 l 0.8,0.2 c 3.7,0 21.2,-5.4 97.2,-69.6 39.3,-33.1 106.2,46.8 106.2,46.8 0,0 12.6,-10.4 22,-29.8 7.5,-15.3 13,-36.3 8.7,-62.2 -6.1,-36.5 13.4,-104.3 29,-150.2 9.5,-27.8 17.4,-47.5 17.4,-47.5 0,0 4.6,-22.9 -77.5,-33.2"
         style="fill:#2c3a64;fill-opacity:1;fill-rule:nonzero;stroke:none"
         id="path180" /><path
         d="m 18324.6,4365.5 h -100.5 c -33.7,5.3 -58.6,15.1 -93.1,19.6 -52.5,6.9 -76.7,-14.6 -81.5,-19.6 l -0.9,-1 h -427.3 c -10.7,15.4 -0.4,50.9 9.7,77.1 6.8,17.8 21.7,31.3 40,36.6 45.3,13.1 134.6,24.8 216.4,98.8 46.1,41.6 222.3,152.9 222.3,152.9 l 0.9,0.2 c 3.9,0 22.3,-5.7 102.4,-73.4 41.5,-34.9 112.1,49.4 112.1,49.4 0,0 13.2,-11 23.1,-31.4 8,-16.2 13.8,-38.3 9.2,-65.6 -6.4,-38.5 14.2,-110.1 30.6,-158.5 10,-29.3 18.4,-50.1 18.4,-50.1 0,0 4.8,-24.1 -81.8,-35"
         style="fill:#2c3a64;fill-opacity:1;fill-rule:nonzero;stroke:none"
         id="path182" /><path
         d="m 19101,6717.5 c -37.6,140 -185.9,221.9 -331.4,182.9 -37.2,-10 -70.6,-27 -99.1,-49 l -57.3,-41.6 7,-8.9 c -48,-62.7 -67.5,-144.5 -46,-224.7 37.5,-140 185.9,-221.9 331.4,-182.9 9.1,2.5 18,5.4 26.6,8.6 l 6.6,-8.5 65,48.1 v 0.1 c 83.5,63.9 125.2,171.3 97.2,275.9"
         style="fill:#94b0ed;fill-opacity:1;fill-rule:nonzero;stroke:none"
         id="path184" /><path
         d="m 18519.8,6536.7 c -37.5,140 50,285.1 195.4,324.1 145.5,39 293.9,-42.9 331.4,-182.9 37.6,-140 -49.9,-285.1 -195.4,-324.1 -145.4,-39 -293.8,42.9 -331.4,182.9"
         style="fill:#aec3ff;fill-opacity:1;fill-rule:nonzero;stroke:none"
         id="path186" /><path
         d="m 18869.6,6641.1 c -12.1,45.5 -60.3,72.1 -107.5,59.4 -12.1,-3.2 -23,-8.7 -32.2,-15.9 l -18.6,-13.5 2.3,-2.9 c -15.6,-20.3 -21.9,-46.9 -15,-72.9 12.2,-45.5 60.4,-72.1 107.6,-59.4 3,0.8 5.9,1.7 8.7,2.8 l 2.1,-2.8 21.1,15.6 v 0.1 c 27.1,20.7 40.7,55.6 31.5,89.5"
         style="fill:#94b0ed;fill-opacity:1;fill-rule:nonzero;stroke:none"
         id="path188" /><path
         d="m 18681,6582.4 c -12.2,45.5 16.2,92.6 63.4,105.3 47.3,12.6 95.4,-14 107.6,-59.4 12.2,-45.5 -16.2,-92.6 -63.4,-105.2 -47.3,-12.7 -95.4,13.9 -107.6,59.3"
         style="fill:#cadaff;fill-opacity:1;fill-rule:nonzero;stroke:none"
         id="path190" /><path
         d="m 21045.6,4516.5 c 50.7,123.2 -12.1,265.8 -140.1,318.4 -32.8,13.5 -66.6,19.7 -99.7,19.5 l -65.1,1.6 0.1,-10.4 c -69.9,-19.1 -129.9,-68 -158.9,-138.5 -50.6,-123.3 12.1,-265.9 140.2,-318.5 8,-3.3 16.1,-6.1 24.2,-8.6 l 0.1,-9.9 74.3,-1.1 v 0.1 c 96.7,0.1 187.1,55.3 224.9,147.4"
         style="fill:#94b0ed;fill-opacity:1;fill-rule:nonzero;stroke:none"
         id="path192" /><path
         d="m 20520.2,4708.5 c 50.6,123.2 195.5,180.5 323.5,127.8 128.1,-52.6 190.8,-195.2 140.2,-318.4 -50.7,-123.3 -195.5,-180.5 -323.6,-127.9 -128,52.6 -190.8,195.2 -140.1,318.5"
         style="fill:#aec3ff;fill-opacity:1;fill-rule:nonzero;stroke:none"
         id="path194" /><path
         d="m 20790.3,4586.6 c 15.5,24.4 4.9,68.2 -33.3,79.9 -15.6,4.8 -489,48.8 -489,48.8 l 3.8,-137.1 480.3,-15.4 c 0,0 22.6,-0.9 38.2,23.8"
         style="fill:#7a9edd;fill-opacity:1;fill-rule:nonzero;stroke:none"
         id="path196" /><path
         d="m 20660.9,4519.6 c 55.1,134.1 -13.1,289.2 -152.4,346.4 -35.7,14.7 -72.5,21.5 -108.5,21.3 l -70.8,1.7 0.1,-11.4 c -76.1,-20.7 -141.3,-73.9 -172.8,-150.7 -55.1,-134 13.1,-289.1 152.4,-346.4 8.8,-3.6 17.6,-6.7 26.4,-9.3 l 0.1,-10.8 80.9,-1.2 v 0.1 c 105.1,0.1 203.5,60.2 244.6,160.3"
         style="fill:#94b0ed;fill-opacity:1;fill-rule:nonzero;stroke:none"
         id="path198" /><path
         d="m 20089.3,4728.5 c 55.1,134 212.7,196.3 352,139.1 139.3,-57.3 207.5,-212.4 152.4,-346.4 -55.1,-134.1 -212.7,-196.4 -352,-139.1 -139.3,57.2 -207.5,212.3 -152.4,346.4"
         style="fill:#aec3ff;fill-opacity:1;fill-rule:nonzero;stroke:none"
         id="path200" /><path
         d="m 20430.7,4599.3 c 17.9,43.5 -4.2,93.9 -49.5,112.4 -11.5,4.8 -23.5,7 -35.2,6.9 l -23,0.6 0.1,-3.7 c -24.7,-6.7 -45.9,-24 -56.1,-48.9 -17.9,-43.5 4.2,-93.9 49.5,-112.5 2.8,-1.1 5.6,-2.2 8.5,-3 l 0.1,-3.5 26.2,-0.4 v 0 c 34.1,0.1 66.1,19.6 79.4,52.1"
         style="fill:#94b0ed;fill-opacity:1;fill-rule:nonzero;stroke:none"
         id="path202" /><path
         d="m 20245.1,4667.1 c 17.9,43.5 69.1,63.7 114.3,45.1 45.2,-18.5 67.4,-68.9 49.5,-112.4 -17.9,-43.6 -69,-63.8 -114.3,-45.2 -45.2,18.6 -67.3,69 -49.5,112.5"
         style="fill:#cadaff;fill-opacity:1;fill-rule:nonzero;stroke:none"
         id="path204" /><path
         d="m 12224.3,7627.5 c 24,152.2 171.6,255.4 329.8,230.5 40.4,-6.4 77.6,-20.6 110.2,-40.6 l 65.3,-37.5 -6.4,-10.3 c 57.7,-60.8 87.6,-145.1 73.8,-232.3 -23.9,-152.2 -171.5,-255.4 -329.7,-230.5 -9.9,1.5 -19.6,3.6 -29.1,6 l -6.1,-9.7 -74,43.6 v 0 c -95.5,58.2 -151.6,167.1 -133.8,280.8"
         style="fill:#ef7e29;fill-opacity:1;fill-rule:nonzero;stroke:none"
         id="path206" /><path
         d="m 12858.9,7501.6 c 24,152.2 -84.8,295.8 -243,320.7 -158.1,24.9 -305.7,-78.3 -329.7,-230.6 -23.9,-152.2 84.9,-295.7 243,-320.6 158.1,-24.9 305.8,78.3 329.7,230.5"
         style="fill:#f99746;fill-opacity:1;fill-rule:nonzero;stroke:none"
         id="path208" /><path
         d="m 12518.8,7543.4 c -0.7,33.4 36,70.3 80.9,59 18.2,-4.6 512.5,-245.4 512.5,-245.4 l -86.1,-133.3 -483.8,273.3 c 0,0 -22.9,12.6 -23.5,46.4"
         style="fill:#ef7e29;fill-opacity:1;fill-rule:nonzero;stroke:none"
         id="path210" /><path
         d="m 12822.8,7374.4 c -7.4,1.1 -162.5,-73.6 -241.9,35.8 -36.4,50.1 -8.8,97.4 26.2,111.1 26.8,10.4 70.8,-20.7 88.1,-38.4 28.7,-29.3 127.6,-108.5 127.6,-108.5"
         style="fill:#ffb27d;fill-opacity:1;fill-rule:nonzero;stroke:none"
         id="path212" /><path
         d="m 12365.2,4388 c -52.7,32.2 -22.7,272.2 -22.7,272.2 0,0 245.6,196.5 279.4,46.1 33.8,-150.5 233.4,-218 346.9,-236.4 78.5,-12.7 102.7,-56.2 110.3,-81.9 h -713.9"
         style="fill:#233862;fill-opacity:1;fill-rule:nonzero;stroke:none"
         id="path214" /><path
         d="m 12643.5,4580.6 c -80.2,-25.6 -233.6,-103.7 -331.1,-67 -63,23.7 -415,1042.1 -437.9,1487.5 -1.1,21.6 -4.3,49.1 -9.4,81.5 -2.4,15.9 -5.3,32.9 -8.6,51.1 -32.6,180.1 -103.6,465.8 -174.2,754.2 -95.1,389.3 -189.4,783.8 -186.8,931.1 5.1,289.8 863.8,60.7 863.8,60.7 0,0 51.4,-207.2 67.9,-514.7 1.1,-21.8 2.1,-44.3 2.9,-67.2 23.3,-683.3 87.4,-1837.5 261.8,-2639 7.3,-34 -15.1,-67.6 -48.4,-78.2"
         style="fill:#213f7a;fill-opacity:1;fill-rule:nonzero;stroke:none"
         id="path216" /><path
         d="m 12427.2,7365 -562.1,-1282.4 c -2.4,15.9 -5.3,32.9 -8.6,51.1 -32.6,180.1 -103.6,465.8 -174.2,754.2 l -100.1,1001.1 777.1,-9.3 c 0,0 51.4,-207.2 67.9,-514.7"
         style="fill:#233862;fill-opacity:1;fill-rule:nonzero;stroke:none"
         id="path218" /><path
         d="m 11950.5,9797.6 c 0,0 287.7,-10.4 394.7,-137.9 106.9,-127.6 235.3,-1038.7 306.7,-1225.5 71.3,-186.8 156.9,-842.7 156.9,-867.9 l -115.5,-22.7 c 0,0 -319.9,677 -348.3,825.9 -28.4,148.9 -376,888.2 -373.4,939.4 2.7,51.2 -21.1,488.7 -21.1,488.7"
         style="fill:#ffb27d;fill-opacity:1;fill-rule:nonzero;stroke:none"
         id="path220" /><path
         d="m 11228.3,9454.7 c 12.4,95.3 -85.4,166.6 -172.4,125.7 -109.5,-51.5 -230.5,-123.3 -267.1,-201.6 -71.6,-153.1 -229.2,-819.3 -216.9,-1067 0,0 134,-35.8 229.4,5.1 95.5,40.9 416.8,1059.5 416.8,1059.5 l 10.2,78.3"
         style="fill:#ffb27d;fill-opacity:1;fill-rule:nonzero;stroke:none"
         id="path222" /><path
         d="m 11601,4386.4 c 0,0 -15.3,118.6 -50.5,189.1 -35.3,70.5 -259.6,25.7 -259.6,25.7 0,0 -44.9,-38.5 -54.5,-218 l 364.6,3.2"
         style="fill:#233862;fill-opacity:1;fill-rule:nonzero;stroke:none"
         id="path224" /><path
         d="m 12047.6,7818 -454,-3290 c 0,0 -199.3,-48 -354.4,-9.6 0,0 -132.9,1749.8 -121.8,2172.8 11.1,423 18.4,1020.1 67.5,1154.4 77.1,210.8 862.7,-27.6 862.7,-27.6"
         style="fill:#213f7a;fill-opacity:1;fill-rule:nonzero;stroke:none"
         id="path226" /><path
         d="m 11881.5,9949.3 -0.2,-42.7 c 0,0 11.6,-133.3 -152.6,-152.7 -164.1,-19.5 -288.4,52 -284,154.8 14.8,79.6 31,134.3 32.1,200.2 0.4,24.5 -1.3,50.5 -5.8,79.9 l 318,6.3 93.7,-15.3 -1.2,-230.5"
         style="fill:#ffb27d;fill-opacity:1;fill-rule:nonzero;stroke:none"
         id="path228" /><path
         d="m 11882.7,10179.8 v -167.1 c -121.5,-43.7 -367.6,30.4 -387.9,128.1 l 294.2,54.3 93.7,-15.3"
         style="fill:#f4a671;fill-opacity:1;fill-rule:nonzero;stroke:none"
         id="path230" /><path
         d="m 11446.6,10239.9 c 36.9,-198.6 293.2,-192 403.9,-179.6 31.2,3.5 50.8,7.5 50.8,7.5 35.1,9.4 54.7,64.7 63.8,137.2 18.1,143.5 -4.7,354.1 -29,408 -36.4,81 -105.2,168.7 -363.2,105.4 -258.1,-63.2 -173.6,-224 -126.3,-478.5"
         style="fill:#ffb27d;fill-opacity:1;fill-rule:nonzero;stroke:none"
         id="path232" /><path
         d="m 11774.6,10192.8 c 0,0 21.3,-37.4 94.1,-29.7 48,5 51.9,46.1 51.9,46.1 0,0 -68.8,15.2 -146,-16.4"
         style="fill:#ffffff;fill-opacity:1;fill-rule:nonzero;stroke:none"
         id="path234" /><path
         d="m 12330,9102.5 c 183.9,15 271.9,103 271.9,103 0,0 -165.8,454.2 -256.9,532.2 -91.1,78 -462.5,145.8 -462.5,145.9 -2.9,1.8 -4.8,2.7 -5.2,2.7 l -0.1,-0.1 c 0,-41.2 -65,-117.3 -165.1,-123.9 -118.9,-7.8 -267.4,78 -267.4,146.4 0,0 -283.2,-20 -434.1,-101.5 -150.8,-81.6 -330.9,-486.3 -330.9,-486.3 0,0 61,-199.8 437.1,-264 l -27,-1330.2 c 694.2,-229.7 1333.8,7.1 1333.8,7.1 15,-0.3 -81.9,762.4 -86.8,950.1 -3.1,122.2 -5.6,261.1 -6.8,418.6"
         style="fill:#ffffff;fill-opacity:1;fill-rule:nonzero;stroke:none"
         id="path236" /><path
         d="m 11999.6,10618.9 c 45.4,46.3 33.2,123.2 -24,153.7 -57.8,30.7 -148.5,75.1 -226,96.1 -114.5,31 -227.8,-4.5 -272.3,-28 1.2,7.2 4.1,17 10.9,26.8 0,0 -20,-14.1 -23,-34 -2,-1.5 -3,-2.5 -2.4,-2.9 0,0 -22.7,4.2 -37.2,-2.4 0,0 10.1,1.5 13.8,-5.1 l 1.6,-1.8 c -169.6,-81.9 -226.4,-282.5 -130.7,-412 59.1,-80 164.7,-242.7 164.7,-242.7 0,0 -18.5,44.4 -22,80.9 -1,10.6 1.8,21.6 5.8,31.5 7.9,19.7 7.6,41.8 -0.3,61.5 -11.6,28.9 -14.3,58.6 10.2,70.9 28.7,14.3 51.2,-6.5 65.5,-28 11.4,-17.1 32.9,-24.5 51.9,-16.7 l 1.8,0.8 c 71.7,29.8 12,113.4 74.7,164.1 62.6,50.8 229.8,24.4 284.7,45.4 18.6,13.1 37,26.4 52.3,41.9"
         style="fill:#233862;fill-opacity:1;fill-rule:nonzero;stroke:none"
         id="path238" /><path
         d="m 12606.4,7399.5 c 26.1,165.6 186.7,277.9 358.7,250.8 44,-6.9 84.5,-22.3 119.9,-44.1 l 71,-40.8 -6.9,-11.2 c 62.7,-66.2 95.2,-157.9 80.3,-252.7 -26,-165.6 -186.6,-277.9 -358.7,-250.8 -10.7,1.7 -21.3,3.9 -31.6,6.6 l -6.7,-10.6 -80.5,47.4 v 0.1 c -103.8,63.3 -165,181.7 -145.5,305.3"
         style="fill:#ef7e29;fill-opacity:1;fill-rule:nonzero;stroke:none"
         id="path240" /><path
         d="m 13296.7,7262.7 c 26.1,165.5 -92.2,321.7 -264.3,348.8 -172,27.1 -332.6,-85.2 -358.7,-250.8 -26,-165.6 92.3,-321.8 264.4,-348.8 172,-27.1 332.6,85.2 358.6,250.8"
         style="fill:#f99746;fill-opacity:1;fill-rule:nonzero;stroke:none"
         id="path242" /><path
         d="m 12881.7,7340 c 8.5,53.8 60.6,90.2 116.5,81.4 14.3,-2.2 27.4,-7.2 38.9,-14.3 l 23.1,-13.2 -2.3,-3.7 c 20.4,-21.4 30.9,-51.2 26.1,-82 -8.5,-53.8 -60.6,-90.2 -116.5,-81.4 -3.5,0.5 -6.9,1.2 -10.2,2.1 l -2.2,-3.4 -26.1,15.4 v 0 c -33.8,20.5 -53.6,59 -47.3,99.1"
         style="fill:#ef7e29;fill-opacity:1;fill-rule:nonzero;stroke:none"
         id="path244" /><path
         d="m 13105.8,7295.6 c 8.5,53.7 -29.9,104.4 -85.8,113.2 -55.8,8.8 -108,-27.6 -116.4,-81.4 -8.5,-53.7 29.9,-104.4 85.8,-113.2 55.9,-8.8 108,27.6 116.4,81.4"
         style="fill:#f99746;fill-opacity:1;fill-rule:nonzero;stroke:none"
         id="path246" /><path
         d="m 10571.9,8311.8 c 0,0 468,-178.5 1111.2,-100.1 v 133.2 c 0,0 -693.2,137.9 -828.7,259.1 0,0 -244,-101.8 -282.5,-292.2"
         style="fill:#ffb27d;fill-opacity:1;fill-rule:nonzero;stroke:none"
         id="path248" /><path
         d="m 12197.5,8530.1 c -40,148.8 -197.7,235.8 -352.3,194.4 -39.5,-10.7 -75,-28.7 -105.3,-52.1 l -60.9,-44.2 7.4,-9.5 c -51,-66.6 -71.7,-153.6 -48.9,-238.8 39.9,-148.8 197.6,-235.8 352.3,-194.4 9.6,2.6 19.1,5.7 28.3,9.1 l 7,-9 69.1,51.1 -0.1,0.1 c 88.8,68 133.2,182.1 103.4,293.3"
         style="fill:#ef7e29;fill-opacity:1;fill-rule:nonzero;stroke:none"
         id="path250" /><path
         d="m 11579.8,8337.9 c -40,148.8 53,303 207.7,344.5 154.6,41.5 312.3,-45.5 352.2,-194.4 39.9,-148.8 -53.1,-303 -207.7,-344.5 -154.6,-41.5 -312.3,45.5 -352.2,194.4"
         style="fill:#f99746;fill-opacity:1;fill-rule:nonzero;stroke:none"
         id="path252" /><path
         d="m 11913.6,8415.4 c -2.9,33.2 -43.3,66.1 -86.8,50 -17.6,-6.4 -483.6,-298.1 -483.6,-298.1 l 99.7,-123.4 452.2,322.8 c 0,0 21.4,15 18.5,48.7"
         style="fill:#ef7e29;fill-opacity:1;fill-rule:nonzero;stroke:none"
         id="path254" /><path
         d="m 11811.7,8187.9 c 2.4,7.1 139.1,111.8 77.3,232 -28.4,55.1 -83,51.8 -111,26.7 -21.4,-19.1 -13.5,-72.4 -5.5,-95.8 13.2,-38.9 39.2,-162.9 39.2,-162.9"
         style="fill:#ffb27d;fill-opacity:1;fill-rule:nonzero;stroke:none"
         id="path256" /><path
         d="m 11841.6,8263 c -43.4,161.9 -214.9,256.6 -383.2,211.5 -43,-11.5 -81.6,-31.2 -114.6,-56.6 l -66.2,-48.1 8.1,-10.3 c -55.5,-72.5 -78.1,-167.1 -53.2,-259.8 43.4,-161.9 215,-256.6 383.2,-211.5 10.5,2.8 20.8,6.2 30.8,9.9 l 7.7,-9.8 75.1,55.6 -0.1,0.1 c 96.6,73.9 144.9,198.1 112.4,319"
         style="fill:#ef7e29;fill-opacity:1;fill-rule:nonzero;stroke:none"
         id="path258" /><path
         d="m 11169.6,8053.9 c -43.4,161.9 57.8,329.8 226,374.9 168.2,45.1 339.8,-49.6 383.2,-211.5 43.4,-161.9 -57.8,-329.7 -226,-374.8 -168.2,-45.1 -339.7,49.5 -383.2,211.4"
         style="fill:#f99746;fill-opacity:1;fill-rule:nonzero;stroke:none"
         id="path260" /><path
         d="m 11574.2,8174.8 c -14.1,52.5 -69.8,83.3 -124.5,68.6 -13.9,-3.7 -26.5,-10.1 -37.2,-18.4 l -21.5,-15.6 2.7,-3.3 c -18,-23.6 -25.4,-54.3 -17.3,-84.4 14.1,-52.5 69.8,-83.3 124.4,-68.6 3.4,0.9 6.7,2 10,3.2 l 2.5,-3.2 24.4,18.1 v 0 c 31.3,24 47,64.3 36.5,103.6"
         style="fill:#ef7e29;fill-opacity:1;fill-rule:nonzero;stroke:none"
         id="path262" /><path
         d="m 11356,8106.9 c -14.1,52.5 18.7,107 73.3,121.7 54.7,14.6 110.4,-16.1 124.5,-68.7 14,-52.6 -18.8,-107 -73.4,-121.7 -54.6,-14.6 -110.3,16.1 -124.4,68.7"
         style="fill:#f99746;fill-opacity:1;fill-rule:nonzero;stroke:none"
         id="path264" /><path
         d="m 14807.8,9639.5 c 0,0 -340.1,-19.8 -377,-160.3 -59,-224.1 -114.1,-746.2 -114.1,-746.2 l -343.2,425.5 -123.5,-59.5 c 0,0 292.8,-787 539.9,-750.4 247.1,36.6 417.9,1290.9 417.9,1290.9"
         style="fill:#f4a671;fill-opacity:1;fill-rule:nonzero;stroke:none"
         id="path266" /><path
         d="m 15157.2,10690.4 c 0,0 44.4,177.4 305,122 0,0 -124.8,15.7 -159,-32.4 0,0 98.9,45.3 160.8,7.4 62,-37.9 72.1,-165.4 62.9,-204.2 -9.3,-38.9 -77.7,-154.4 -122.9,-154.4 -45.3,0 -98.9,39.8 -98.9,39.8 l -147.9,221.8"
         style="fill:#2c3a64;fill-opacity:1;fill-rule:nonzero;stroke:none"
         id="path268" /><path
         d="m 14688.6,10507.4 c 0,0 330,396.5 504.6,142.8 0,0 130.4,-54.1 177.5,-275.9 48.1,-226.3 -102.4,-398.3 -180.2,-355.8 -49.9,27.2 -87.7,-60.1 -87.7,-60.1 l -414.2,549"
         style="fill:#2c3a64;fill-opacity:1;fill-rule:nonzero;stroke:none"
         id="path270" /><path
         d="m 14792.3,9637.7 c -1.2,-0.6 121.3,-64.2 213.5,-39 86.7,23.6 196.6,52.7 195.4,53 -36.7,7.3 -100.5,141.1 -99.8,357.9 l -16.6,-3.2 -279.1,-55.3 c 0,0 6.4,-87.9 6.6,-170.6 0.1,-69.5 -4.1,-135.4 -20,-142.8"
         style="fill:#ffb27d;fill-opacity:1;fill-rule:nonzero;stroke:none"
         id="path272" /><path
         d="m 14805.7,9951.1 c 0,0 6.4,-87.9 6.6,-170.6 156.1,4.4 238.7,146.9 272.5,225.9 l -279.1,-55.3"
         style="fill:#f4a671;fill-opacity:1;fill-rule:nonzero;stroke:none"
         id="path274" /><path
         d="m 15113.7,10036.7 c 0,0 81.8,129.4 101.5,240 14,78.9 -26.2,371.6 -320.3,329.4 0,0 -85.4,-8.4 -165.7,-62.6 -63.9,-43.1 -156,-136.2 -53,-391.6 l 26.8,-86.3 410.7,-28.9"
         style="fill:#2c3a64;fill-opacity:1;fill-rule:nonzero;stroke:none"
         id="path276" /><path
         d="m 14753.6,9872.7 c 0,0 369.5,-6.1 369.8,224.1 0.2,230.2 48.1,384.5 -187.9,398.1 -235.9,13.6 -281.8,-74.2 -300.6,-151 -18.8,-76.8 22.5,-463.7 118.7,-471.2"
         style="fill:#ffb27d;fill-opacity:1;fill-rule:nonzero;stroke:none"
         id="path278" /><path
         d="m 14767.2,10500.5 c 0,0 101.2,-270 256.5,-310 155.3,-39.9 222.6,1.7 222.6,1.7 0,0 -119.1,94.6 -143.8,259.8 0,0 -258.9,177.1 -335.3,48.5"
         style="fill:#2c3a64;fill-opacity:1;fill-rule:nonzero;stroke:none"
         id="path280" /><path
         d="m 14792.3,10478.6 c 0,0 -75.6,-60.3 -94,-118.9 -18.4,-58.6 -26.7,-179.3 -61.9,-175.2 0,0 -76.2,183.6 9.5,287.4 90.8,110.1 146.4,6.7 146.4,6.7"
         style="fill:#2c3a64;fill-opacity:1;fill-rule:nonzero;stroke:none"
         id="path282" /><path
         d="m 14506.8,7979.2 c 188,600.7 -18,731.3 1.6,1031.9 19.6,300.6 252.3,623.8 252.3,623.8 0,0 281.9,28.5 429.8,18.5 131.5,-8.9 356.8,-418.2 300.6,-796.1 -6.9,-46.8 -18.2,-93.2 -34.5,-138.3 -69.2,-191.3 -104.9,-269.3 -103.2,-341.6 2.2,-91.5 64.2,-173.6 193.8,-464.3 71.6,-160.6 -1232.2,-547.4 -1040.4,66.1"
         style="fill:#ffb27d;fill-opacity:1;fill-rule:nonzero;stroke:none"
         id="path284" /><path
         d="m 14993.3,6627.8 c -52.3,-296.1 -90.7,-518.2 -90.7,-518.2 97.9,-401.5 -49.3,-916.5 -170.6,-1240.5 -27.8,-74 -54.1,-138.1 -76,-188.6 l -0.1,-0.4 -0.2,-0.5 -0.6,-1.3 h -0.1 c -0.5,-1.5 -1.2,-2.9 -1.8,-4.4 l -0.2,-0.5 c -31.8,-73.3 -53.1,-116 -53.1,-116 l -178.9,-8.1 c 0,0 13.7,77 29,206.9 l 0.1,1.3 c 4.9,41.9 10,89.2 14.8,141.3 27.2,294.7 46.1,738.9 -17.5,1186.2 -155.3,1092.4 49.9,1824.4 49.9,1824.4 l 657,-212 30.6,-9.8 c -58.4,-309.5 -133.5,-730.4 -191.6,-1059.8"
         style="fill:#ffb27d;fill-opacity:1;fill-rule:nonzero;stroke:none"
         id="path286" /><path
         d="m 15181.5,9658.9 c 0,0 315.8,-32.3 352.8,-113.6 119.3,-262.5 238.4,-1147.9 271.7,-1225.5 33.3,-77.7 134.9,-504.6 221.8,-715.4 l -110.9,-33.2 c 0,0 -366,607.2 -399.3,765.2 -33.2,158 -215.7,800.8 -215.7,800.8 l -120.4,521.7"
         style="fill:#ffb27d;fill-opacity:1;fill-rule:nonzero;stroke:none"
         id="path288" /><path
         d="m 15430.5,8933.3 4.3,-274.2 c 0,0 -240.8,70 -498,91.3 -62.6,5.2 -126.3,7.5 -187.6,5.2 -76,-2.7 -148.5,-12.7 -211.2,-32.9 0,0 -40.7,177.5 -81.4,388.2 -1.4,7.6 -2.6,15.2 -3.5,22.6 -23.5,200.5 154.6,364.3 79.8,444.5 0,0 65.1,35.6 227.8,56.9 0,0 -124.7,-219.9 -113.6,-275.4 11,-55.4 493.5,-5.5 526.7,25 33.3,30.5 86,264 86,264 0,0 170.9,-18.7 254.4,-79.4 0,0 -56.5,-70.6 -91.9,-155.1 -10.4,-24.9 -19,-50.9 -23.9,-76.7 -12.9,-69 -47.1,-200.5 30.5,-304 l 1.6,-100"
         style="fill:#ffffff;fill-opacity:1;fill-rule:nonzero;stroke:none"
         id="path290" /><path
         d="m 15118.4,7338.3 c -58.4,-309.5 -67,-381.2 -125.1,-710.5 -360.5,629.3 -307.5,793.6 -307.5,793.6 l 432.6,-83.1"
         style="fill:#f4a671;fill-opacity:1;fill-rule:nonzero;stroke:none"
         id="path292" /><path
         d="m 16249.9,4763.5 c -0.4,-11.6 -0.9,-22.8 -1.4,-33.6 -5.2,-105.5 -14.2,-169.8 -14.2,-169.8 l -172.5,59.9 c 0,0 -8.1,24.9 -22.4,67.8 -5.8,17.4 -12.7,37.9 -20.5,60.9 l -0.2,0.5 c -14.1,41.8 -31.3,91.9 -50.7,147.6 -117.5,336.7 -317.3,875.7 -433.7,999.7 -332.9,354.7 -822.9,1901.6 -822.9,1901.6 l 662.1,214.8 c 98.2,-95.1 177.9,-273.2 242.2,-483 162.2,-529.2 225.2,-1259.6 233.7,-1365.3 v -0.3 c 0.6,-8.2 5,-15.2 10.5,-21.3 309.8,-344.8 382.4,-847 391.1,-1192.8 1.7,-69.3 1,-132.4 -1.1,-186.7"
         style="fill:#ffb27d;fill-opacity:1;fill-rule:nonzero;stroke:none"
         id="path294" /><path
         d="m 14966.5,7282.5 -114.9,14.1 c -55.6,18.5 -109.9,31 -160.3,39.4 -162.8,27.3 -286.4,11.5 -286.4,11.5 49.9,533.7 122.2,704 122.2,704 l 240.1,-420.3 199.3,-348.7"
         style="fill:#213f7a;fill-opacity:1;fill-rule:nonzero;stroke:none"
         id="path296" /><path
         d="m 14966.5,7282.5 -114.9,14.1 c -55.6,18.5 -109.9,31 -160.3,39.4 -7.3,102.5 33.9,212.3 75.9,295.2 l 199.3,-348.7"
         style="fill:#233862;fill-opacity:1;fill-rule:nonzero;stroke:none"
         id="path298" /><path
         d="m 14527.1,8051.5 c 0,0 158.7,-119.9 319.6,-108.8 160.8,11.1 630.3,118.3 630.3,118.3 0,0 87,-126.4 147.8,-377.1 62.9,-258.8 62.9,-451 62.9,-451 0,0 -550.8,72.1 -772.6,-44.4 l -388,863"
         style="fill:#213f7a;fill-opacity:1;fill-rule:nonzero;stroke:none"
         id="path300" /><path
         d="m 14778.3,10469.5 c 0,0 72.1,-282.8 268,-373.4 0,0 -195.9,173.8 -212.6,360.4 -16.6,186.7 -55.4,13 -55.4,13"
         style="fill:#2c3a64;fill-opacity:1;fill-rule:nonzero;stroke:none"
         id="path302" /><path
         d="m 16417.1,7533.7 c -27.5,102.4 -136,162.2 -242.3,133.7 -27.2,-7.3 -51.7,-19.7 -72.5,-35.8 l -41.9,-30.4 5.1,-6.5 c -35,-45.8 -49.3,-105.7 -33.6,-164.3 27.5,-102.4 135.9,-162.2 242.3,-133.7 6.6,1.8 13.1,3.9 19.5,6.3 l 4.8,-6.3 47.5,35.2 v 0.1 c 61.1,46.7 91.6,125.2 71.1,201.7"
         style="fill:#ef7e29;fill-opacity:1;fill-rule:nonzero;stroke:none"
         id="path304" /><path
         d="m 15992.2,7401.5 c -27.5,102.3 36.5,208.5 142.8,237 106.4,28.5 214.9,-31.4 242.3,-133.7 27.5,-102.4 -36.5,-208.5 -142.8,-237 -106.4,-28.5 -214.9,31.3 -242.3,133.7"
         style="fill:#f99746;fill-opacity:1;fill-rule:nonzero;stroke:none"
         id="path306" /><path
         d="m 16221.8,7454.8 c -2,22.9 -29.8,45.5 -59.7,34.4 -12.1,-4.4 -332.7,-205 -332.7,-205 l 68.6,-84.9 311.1,222 c 0,0 14.7,10.3 12.7,33.5"
         style="fill:#ef7e29;fill-opacity:1;fill-rule:nonzero;stroke:none"
         id="path308" /><path
         d="m 13616.2,9415.3 c 27.4,102.4 135.9,162.2 242.3,133.7 27.2,-7.3 51.6,-19.7 72.4,-35.8 l 41.9,-30.4 -5.1,-6.5 c 35.1,-45.8 49.4,-105.7 33.6,-164.3 -27.4,-102.4 -135.9,-162.2 -242.3,-133.7 -6.6,1.8 -13.1,3.9 -19.4,6.3 l -4.9,-6.3 -47.5,35.2 v 0.1 c -61,46.7 -91.5,125.2 -71,201.7"
         style="fill:#ef7e29;fill-opacity:1;fill-rule:nonzero;stroke:none"
         id="path310" /><path
         d="m 14041.1,9283.1 c 27.4,102.3 -36.5,208.5 -142.9,237 -106.4,28.5 -214.8,-31.4 -242.3,-133.7 -27.4,-102.4 36.5,-208.5 142.9,-237 106.3,-28.6 214.8,31.3 242.3,133.7"
         style="fill:#f99746;fill-opacity:1;fill-rule:nonzero;stroke:none"
         id="path312" /><path
         d="m 13811.4,9336.4 c 2,22.9 29.8,45.5 59.7,34.4 12.1,-4.4 332.7,-205 332.7,-205 l -68.6,-85 -311.1,222.1 c 0,0 -14.7,10.3 -12.7,33.5"
         style="fill:#ef7e29;fill-opacity:1;fill-rule:nonzero;stroke:none"
         id="path314" /><path
         d="m 13850.7,9098.3 c 0,0 -114.4,141.9 -32,215.1 82.3,73.2 189.1,51.8 192.1,9.1 3.1,-42.7 -36.6,-164.7 -36.6,-164.7 l -123.5,-59.5"
         style="fill:#f4a671;fill-opacity:1;fill-rule:nonzero;stroke:none"
         id="path316" /><path
         d="m 16019.9,7622.9 c 0,0 33.8,-79.5 68.9,-101.7 35.1,-22.1 85,-75.7 75.8,-118.3 -9.3,-42.5 -18.5,-109 -62.9,-109 -44.3,0 -147.8,195.9 -160.8,232.9 -12.9,37 -24,44.4 -24,44.4 l 103,51.7"
         style="fill:#ffb27d;fill-opacity:1;fill-rule:nonzero;stroke:none"
         id="path318" /><path
         d="m 16172.3,7350 c -29.9,111.4 -147.9,176.5 -263.6,145.5 -29.6,-8 -56.1,-21.5 -78.8,-39 l -45.6,-33 5.6,-7.2 c -38.1,-49.8 -53.7,-114.9 -36.6,-178.6 29.9,-111.4 147.9,-176.5 263.6,-145.5 7.2,1.9 14.3,4.2 21.2,6.8 l 5.3,-6.8 51.6,38.3 v 0.1 c 66.4,50.8 99.6,136.2 77.3,219.4"
         style="fill:#ef7e29;fill-opacity:1;fill-rule:nonzero;stroke:none"
         id="path320" /><path
         d="m 15710.1,7206.2 c -29.9,111.3 39.7,226.8 155.4,257.8 115.7,31 233.7,-34.1 263.6,-145.4 29.8,-111.4 -39.7,-226.8 -155.4,-257.9 -115.8,-31 -233.8,34.1 -263.6,145.5"
         style="fill:#f99746;fill-opacity:1;fill-rule:nonzero;stroke:none"
         id="path322" /><path
         d="m 15988.3,7289.3 c -9.7,36.1 -48,57.3 -85.6,47.2 -9.6,-2.6 -18.2,-6.9 -25.6,-12.6 l -14.7,-10.8 1.8,-2.3 c -12.4,-16.2 -17.5,-37.3 -11.9,-58 9.7,-36.1 48,-57.3 85.6,-47.2 2.3,0.6 4.6,1.4 6.8,2.2 l 1.8,-2.2 16.7,12.4 v 0 c 21.6,16.6 32.4,44.3 25.1,71.3"
         style="fill:#ef7e29;fill-opacity:1;fill-rule:nonzero;stroke:none"
         id="path324" /><path
         d="m 15838.3,7242.6 c -9.7,36.1 12.8,73.6 50.4,83.7 37.6,10.1 75.9,-11.1 85.6,-47.2 9.7,-36.2 -12.9,-73.7 -50.5,-83.7 -37.5,-10.1 -75.9,11 -85.5,47.2"
         style="fill:#f99746;fill-opacity:1;fill-rule:nonzero;stroke:none"
         id="path326" /><path
         d="m 13860.9,9231.6 c 29.9,111.4 147.9,176.5 263.6,145.5 29.6,-8 56.2,-21.5 78.8,-39 l 45.6,-33 -5.5,-7.2 c 38.1,-49.8 53.6,-114.9 36.5,-178.7 -29.8,-111.3 -147.8,-176.4 -263.5,-145.4 -7.3,1.9 -14.4,4.2 -21.2,6.8 l -5.3,-6.8 -51.7,38.3 v 0 c -66.4,50.9 -99.6,136.3 -77.3,219.5"
         style="fill:#ef7e29;fill-opacity:1;fill-rule:nonzero;stroke:none"
         id="path328" /><path
         d="m 14323.2,9087.8 c 29.8,111.3 -39.8,226.8 -155.5,257.8 -115.7,31 -233.7,-34.1 -263.5,-145.4 -29.9,-111.4 39.7,-226.8 155.4,-257.9 115.7,-31 233.7,34.1 263.6,145.5"
         style="fill:#f99746;fill-opacity:1;fill-rule:nonzero;stroke:none"
         id="path330" /><path
         d="m 14044.9,9170.9 c 9.7,36.1 48,57.3 85.6,47.2 9.6,-2.6 18.2,-6.9 25.6,-12.6 l 14.8,-10.8 -1.8,-2.3 c 12.4,-16.2 17.4,-37.3 11.9,-58 -9.7,-36.1 -48.1,-57.3 -85.6,-47.2 -2.4,0.6 -4.7,1.4 -6.9,2.2 l -1.7,-2.2 -16.8,12.4 v 0 c -21.5,16.6 -32.3,44.3 -25.1,71.3"
         style="fill:#ef7e29;fill-opacity:1;fill-rule:nonzero;stroke:none"
         id="path332" /><path
         d="m 14195,9124.2 c 9.7,36.1 -12.9,73.6 -50.5,83.7 -37.5,10.1 -75.9,-11.1 -85.5,-47.2 -9.7,-36.2 12.8,-73.7 50.4,-83.7 37.6,-10.1 75.9,11 85.6,47.2"
         style="fill:#f99746;fill-opacity:1;fill-rule:nonzero;stroke:none"
         id="path334" /><path
         d="m 14512.5,8009.2 c 0,0 144,-105.5 296.5,-109.8 152.6,-4.3 688.7,126.9 688.7,126.9 l -22.1,41.7 c 0,0 -587.7,-157.2 -725.5,-110.6 -137.8,46.5 -221.5,101.7 -221.5,101.7 l -16.1,-49.9"
         style="fill:#233862;fill-opacity:1;fill-rule:nonzero;stroke:none"
         id="path336" /><path
         d="m 14640.7,4385.9 c -65.1,-0.9 -218.3,16.6 -279.6,0 l -246.5,-0.1 c -57.4,35.3 -80.6,76.2 71.6,95 219.7,27.2 259.5,247.6 263.8,275.4 l 0.1,1.3 c 0.2,1.1 0.2,1.6 0.2,1.6 l 205.7,-78.6 -0.1,-0.4 -0.2,-0.5 -0.6,-1.3 h -0.1 c -0.4,-1.1 -1,-2.6 -1.8,-4.4 l -0.2,-0.5 c -7.2,-19 -23.5,-73.8 -0.8,-139 19.5,-56 53.6,-147.6 -11.5,-148.5"
         style="fill:#ffb27d;fill-opacity:1;fill-rule:nonzero;stroke:none"
         id="path338" /><path
         d="m 16256.6,4385.9 c -65.2,-0.9 -218.4,16.6 -279.7,0 l -246.4,-0.1 c -57.5,35.3 -79.4,68.2 71.5,95 222.1,39.3 247.2,140.7 237.4,207 -4.9,33.1 -18.4,57.5 -20.5,60.9 l -0.2,0.5 231.2,14.3 c 0,0 -0.9,-13.1 -1.4,-33.6 -1.2,-48.5 -0.3,-138.6 19.5,-195.5 19.5,-56 53.7,-147.6 -11.4,-148.5"
         style="fill:#ffb27d;fill-opacity:1;fill-rule:nonzero;stroke:none"
         id="path340" /><path
         d="m 14653,4673.4 c -7.2,-19 -23.5,-73.8 -0.8,-139 19.5,-56 53.6,-147.6 -11.5,-148.5 -65.1,-0.9 -218.3,16.6 -279.6,0 l -246.5,-0.1 c -57.4,35.3 -80.6,76.2 71.6,95 219.7,27.2 259.5,247.6 263.8,275.4 l 0.1,1.3 c 4.9,41.9 10,89.2 14.8,141.3 0,0 101.7,-75.3 267.1,-29.6 v -0.1 c -27.8,-74 -54.1,-138.1 -76,-188.6 l -0.1,-0.4 -0.2,-0.5 -0.6,-1.3 h -0.1 c -0.5,-1.5 -1.2,-2.9 -1.8,-4.4 l -0.2,-0.5"
         style="fill:#213f7a;fill-opacity:1;fill-rule:nonzero;stroke:none"
         id="path342" /><path
         d="m 16256.6,4385.9 c -65.2,-0.9 -218.4,16.6 -279.7,0 l -246.4,-0.1 c -57.5,35.3 -79.4,68.2 71.5,95 222.1,39.3 247.2,140.7 237.4,207 -5.8,17.4 -12.7,37.9 -20.5,60.9 l -0.2,0.5 c -14.1,41.8 -31.3,91.9 -50.7,147.6 63.3,-0.6 179.2,6.1 283,53.4 1.7,-69.3 1,-132.4 -1.1,-186.7 -0.4,-11.6 -0.9,-22.8 -1.4,-33.6 -1.2,-48.5 -0.3,-138.6 19.5,-195.5 19.5,-56 53.7,-147.6 -11.4,-148.5"
         style="fill:#213f7a;fill-opacity:1;fill-rule:nonzero;stroke:none"
         id="path344" /><path
         d="m 14709.7,10007.7 c 0,0 9.6,-21.2 13.8,-31.8 4.2,-10.5 65.8,-11 85.3,0.8 16.1,9.8 36,37.1 34.9,36 0,0 -106.3,2.5 -134,-5"
         style="fill:#ffffff;fill-opacity:1;fill-rule:nonzero;stroke:none"
         id="path346" /><path
         d="m 7299.08,6649.9 c -56,-61 -139.99,-123.9 -6.46,-263.4 171.21,-178.8 436.04,-949.3 436.04,-949.3 -9.08,-29.5 0.25,-70.3 -20.7,-82.3 -33.85,-19.5 -120.32,39.8 -120.32,39.8 0,0 -786.41,814.6 -850.2,997.8 -47.1,135.2 193.7,790.4 337.8,1133.7 51.04,121.6 89.96,204.1 99.63,210.5 1.49,1 2.98,1.9 4.47,2.8 84.74,53.7 164.46,46.8 235.69,5.6 15.19,-8.8 30.04,-19.1 44.43,-30.8 175.93,-142.7 288.96,-481.3 277.24,-551.7 -8.14,-49 -93.97,-152.8 -188.13,-254.9 -19.56,-21.2 -39.47,-42.4 -59.12,-62.9 -85.63,-89.8 -166.35,-168.7 -190.37,-194.9"
         style="fill:#f99746;fill-opacity:1;fill-rule:nonzero;stroke:none"
         id="path348" /><path
         d="m 7548.57,6907.7 c -19.56,-21.2 -39.47,-42.4 -59.12,-62.9 l -414.21,681.4 c 51.04,121.6 89.96,204.1 99.63,210.5 1.49,1 2.98,1.9 4.47,2.8 l 235.69,5.6 42.6,1 1.83,-31.8 89.11,-806.6"
         style="fill:#ed7d2b;fill-opacity:1;fill-rule:nonzero;stroke:none"
         id="path350" /><path
         d="m 7314.13,9278 c 0,0 88.12,-215.4 65.26,-343.5 -22.86,-128.2 -326.17,-766.6 -436.74,-875.9 -110.57,-109.2 -843.61,355.5 -843.61,355.5 l 72.13,69 c 0,0 579.87,-147.6 610.54,-101.3 30.69,46.3 178.31,956 532.42,896.2"
         style="fill:#ffb27d;fill-opacity:1;fill-rule:nonzero;stroke:none"
         id="path352" /><path
         d="m 7296.74,7590.1 c 0,0 150.42,-752.1 529.96,-1281.2 366.78,-511.4 557.57,-1295.1 557.57,-1295.1 0,0 24.34,-19 72.26,1.4 47.92,20.3 80.04,-4.4 89.69,18.9 0,0 -69.28,1237.1 -259.6,1507.9 -107.54,153 -164.88,714.8 -161.22,867.6 3.65,152.9 -63.24,340.3 -63.24,340.3 l -765.42,-159.8"
         style="fill:#f99746;fill-opacity:1;fill-rule:nonzero;stroke:none"
         id="path354" /><path
         d="m 8542.7,4811.9 -88.74,-0.6 c -29.77,4.5 -51.77,12.9 -82.29,16.7 -46.34,5.7 -67.52,-13.4 -71.73,-17.8 l -0.81,-0.9 -376.97,-2.6 c -9.58,13.4 -0.7,44.9 8.06,68 5.9,15.8 18.91,27.7 35.07,32.5 39.89,11.9 118.63,22.8 190.34,88.6 40.35,37 195.12,136.3 195.12,136.3 l 0.82,0.2 c 3.42,-0.1 19.71,-4.9 90.84,-64.2 36.78,-30.5 98.56,44.2 98.56,44.2 0,0 11.76,-9.5 20.62,-27.5 7.12,-14.2 12.38,-33.7 8.5,-57.8 -5.39,-34 13.21,-97 27.99,-139.6 8.97,-25.8 16.5,-44.1 16.5,-44.1 0,0 4.39,-21.3 -71.88,-31.4"
         style="fill:#233862;fill-opacity:1;fill-rule:nonzero;stroke:none"
         id="path356" /><path
         d="m 8561.59,5084.8 c -21.08,-15.1 -65.59,-44.8 -95.23,-48.9 -40,-5.5 -115.61,96.2 -115.61,96.2 l 0.82,0.2 c 3.42,-0.1 19.71,-4.9 90.84,-64.2 36.78,-30.5 98.56,44.2 98.56,44.2 0,0 11.76,-9.5 20.62,-27.5"
         style="fill:#233862;fill-opacity:1;fill-rule:nonzero;stroke:none"
         id="path358" /><path
         d="m 8542.7,4811.9 -88.74,-0.6 c -29.77,4.5 -51.77,12.9 -82.29,16.7 -46.34,5.7 -67.52,-13.4 -71.73,-17.8 l -0.81,-0.9 -376.97,-2.6 c -9.58,13.4 -0.7,44.9 8.06,68 11.38,10.3 14.99,-44.1 21.37,-52.7 6.39,-8.6 307.54,-1 324.85,11.8 17.3,12.7 69.33,35.2 142.19,18.4 63.42,-14.7 156.44,24.7 179.45,35.2 8.97,-25.8 16.5,-44.1 16.5,-44.1 0,0 4.39,-21.3 -71.88,-31.4"
         style="fill:#233862;fill-opacity:1;fill-rule:nonzero;stroke:none"
         id="path360" /><path
         d="m 8085.18,8222.9 c 0.31,421.7 -76.87,1030.2 -182.37,1077 -89.57,39.7 -285.06,96.5 -486.54,93.4 -159.03,-2.4 -497.98,-76.8 -532.45,-339.5 -21.83,-166.4 -30.65,-303.4 -30.65,-303.4 0,0 36.45,-106.2 136.96,-134.6 12.5,-47 18.24,-93.6 33.21,-133 166.92,-439.6 84.92,-879.5 84.92,-879.5 153.66,-127.8 918.3,-53 995.35,-2.7 125.5,81.8 -18.75,200.6 -18.43,622.3"
         style="fill:#2a4e96;fill-opacity:1;fill-rule:nonzero;stroke:none"
         id="path362" /><path
         d="m 7901.91,5331.6 -63.66,-61.8 c -24.59,-17.3 -46.33,-26.5 -70.97,-44.8 -37.45,-27.9 -39.52,-56.4 -39.52,-62.5 l 0.02,-1.2 -270.45,-262.6 c -16.23,3.1 -31.55,32 -41.24,54.7 -6.62,15.5 -5.5,33.1 2.85,47.8 20.62,36.1 69.98,98.4 76.23,195.6 3.58,54.6 46.69,233.3 46.69,233.3 l 0.45,0.8 c 2.49,2.3 17.64,10 109.97,16.5 47.69,3.3 40.61,100.1 40.61,100.1 0,0 15.13,1.2 33.95,-5.7 14.95,-5.3 32.25,-15.8 46.13,-35.9 19.62,-28.3 76.62,-60.9 116.76,-81.4 24.32,-12.5 42.41,-20.5 42.41,-20.5 0,0 17.89,-12.3 -30.23,-72.4"
         style="fill:#233862;fill-opacity:1;fill-rule:nonzero;stroke:none"
         id="path364" /><path
         d="m 7726.84,5541.8 c -4.8,-25.5 -16.39,-77.7 -34.98,-101.2 -25.07,-31.6 -150,-10.5 -150,-10.5 l 0.45,0.8 c 2.49,2.3 17.64,10 109.97,16.5 47.69,3.3 40.61,100.1 40.61,100.1 0,0 15.13,1.2 33.95,-5.7"
         style="fill:#233862;fill-opacity:1;fill-rule:nonzero;stroke:none"
         id="path366" /><path
         d="m 7901.91,5331.6 -63.66,-61.8 c -24.59,-17.3 -46.33,-26.5 -70.97,-44.8 -37.45,-27.9 -39.52,-56.4 -39.52,-62.5 l 0.02,-1.2 -270.45,-262.6 c -16.23,3.1 -31.55,32 -41.24,54.7 1.12,15.3 41.33,-21.5 51.9,-23.3 10.58,-1.8 222.83,212 226.5,233.2 3.66,21.2 25.68,73.4 89.98,111.6 55.95,33.3 95.88,126.1 105.26,149.6 24.32,-12.5 42.41,-20.5 42.41,-20.5 0,0 17.89,-12.3 -30.23,-72.4"
         style="fill:#233862;fill-opacity:1;fill-rule:nonzero;stroke:none"
         id="path368" /><path
         d="m 7683.62,9244.2 c 0,0 232.66,2.6 343.37,-65.9 110.7,-68.5 592.39,-585.8 653.2,-728.9 60.8,-143 -498.2,-551 -498.2,-551 l -78.81,125.5 c 0,0 249.03,349.5 217.3,395.1 -31.73,45.5 -823.01,518.1 -636.86,825.2"
         style="fill:#ffb27d;fill-opacity:1;fill-rule:nonzero;stroke:none"
         id="path370" /><path
         d="m 8132.54,8043.2 92.85,-71.5 c 0,0 -81.66,-176.3 -126.25,-192.9 l -4.61,-0.9 c -47.91,-9.6 -166.92,68.2 -186.8,148.5 -1.66,8.3 -1.28,16 1.11,23.2 18.39,48.6 129.93,76.2 188.24,87.5 21.27,4.1 35.46,6.1 35.46,6.1"
         style="fill:#ffb27d;fill-opacity:1;fill-rule:nonzero;stroke:none"
         id="path372" /><path
         d="m 6235.17,8467.5 -46.5,-107.6 c 0,0 -190.96,35.8 -217.98,75 l -2.03,4.2 c -21.05,44.1 25.09,178.6 98.08,217.6 7.63,3.6 15.22,5.2 22.77,4.6 51.63,-5.9 105.8,-107.2 131.07,-160.9 9.21,-19.7 14.59,-32.9 14.59,-32.9"
         style="fill:#ffb27d;fill-opacity:1;fill-rule:nonzero;stroke:none"
         id="path374" /><path
         d="m 7595.6,9381.6 c 0,0 215.75,-9.7 370.64,-105.8 71.34,-44.3 345.36,-303.9 345.36,-303.9 0,0 -30.39,-271.3 -356.76,-344.9 -332.19,-74.8 -385.58,480.4 -385.58,480.4 l 26.34,274.2"
         style="fill:#2a4e96;fill-opacity:1;fill-rule:nonzero;stroke:none"
         id="path376" /><path
         d="m 7536.46,9377.7 c 10.38,-15.2 10.67,-35.1 0.85,-50.7 -28.94,-45.9 -110.05,-125.3 -321.3,-110.8 -72.38,5 -88.98,59.7 -43.17,116 11.15,13.7 7.37,92.5 6.18,124.1 -4.19,73.1 -1.47,114.1 -1.47,114.1 l 149.69,102.5 142,98.1 c -23.37,-229.5 37.29,-349.5 67.22,-393.3"
         style="fill:#ffb27d;fill-opacity:1;fill-rule:nonzero;stroke:none"
         id="path378" /><path
         d="m 7464.06,9655.8 c 0,0 -104.47,-163.7 -285.04,-199.5 -4.19,73.1 -1.47,114.1 -1.47,114.1 l 149.69,102.5 136.82,-17.1"
         style="fill:#ed985f;fill-opacity:1;fill-rule:nonzero;stroke:none"
         id="path380" /><path
         d="m 7113,9579.6 c 0,0 347.97,-80.8 395.33,133.2 47.35,214.1 124.16,347.9 -96.01,408.5 -220.16,60.7 -281.54,-11.6 -315.01,-79.2 -33.45,-67.7 -73.6,-435.9 15.69,-462.5"
         style="fill:#ffb27d;fill-opacity:1;fill-rule:nonzero;stroke:none"
         id="path382" /><path
         d="m 7664.43,10130.6 c 3.44,3.5 11,5.9 27.45,5.8 0,0 -12.55,9 -30.05,10.6 -1.91,23 -11.37,64.2 -49.95,76.6 0,0 20.34,-12.7 21.49,-37.1 -42.34,49.7 -137.45,90.1 -408.46,86.7 -357.16,-4.5 -255.14,-239.7 -210.94,-269.9 44.2,-30.2 164.91,36.5 250.16,24 85.25,-12.5 93.35,-137.4 121.29,-156.3 27.94,-18.9 18.51,11.9 59.02,27.1 40.52,15.1 39.94,-50.3 25.77,-91.9 -14.17,-41.6 36.17,-101.1 36.17,-101.1 0,0 0,0 58.51,55.2 58.52,55.2 126.52,300.9 105.2,355.7 -1.88,4.8 -3.73,9.7 -5.66,14.6"
         style="fill:#2c3a64;fill-opacity:1;fill-rule:nonzero;stroke:none"
         id="path384" /><path
         d="m 7083.09,9715 c 0,0 9.45,-31.7 44.72,-35.9 35.27,-4.1 58.34,21.1 58.34,21.1 0,0 -57.82,26.9 -103.06,14.8"
         style="fill:#ffffff;fill-opacity:1;fill-rule:nonzero;stroke:none"
         id="path386" /><path
         d="m 31170,4348.9 v -13.2 c 0,-18.9 -15.5,-34.4 -34.3,-34.4 H 1456.25 c -18.93,0 -34.28,15.5 -34.28,34.4 v 13.2 c 0,18.9 15.35,34.4 34.28,34.4 H 31135.7 c 18.8,0 34.3,-15.5 34.3,-34.4"
         style="fill:#2e3552;fill-opacity:1;fill-rule:nonzero;stroke:none"
         id="path388" /><path
         d="M 22774.5,8008.1 V 5832.6 h -20.9 v 2174.6 c 3.4,0.2 6.9,0.4 10.4,0.5 3.5,0.2 7,0.3 10.5,0.4"
         style="fill:#adcbff;fill-opacity:1;fill-rule:nonzero;stroke:none"
         id="path390" /><path
         d="m 24024.5,4981 c -316.2,-324.6 -736.6,-503.4 -1183.7,-503.4 -447.1,0 -867.5,178.8 -1183.7,503.4 -316.2,324.6 -490.3,756.3 -490.3,1215.4 0,459.1 174.1,890.7 490.3,1215.3 295.6,303.5 682.1,479.5 1096.5,501.2 3.5,0.2 7,0.4 10.4,0.5 3.5,0.2 7.1,0.4 10.5,0.5 22,0.9 44.2,1.3 66.3,1.3 447.1,0 867.5,-178.8 1183.7,-503.5 316.2,-324.6 490.3,-756.2 490.3,-1215.3 0,-459.1 -174.1,-890.8 -490.3,-1215.4 z m 443.3,1921.1 c -88.9,215.9 -216.2,409.8 -378.4,576.3 -162.1,166.5 -351,297.2 -561.2,388.5 -217.8,94.6 -449,142.5 -687.4,142.5 -22.1,0 -44.3,-0.4 -66.3,-1.3 -3.5,-0.1 -7,-0.2 -10.5,-0.4 -3.5,-0.1 -7,-0.3 -10.4,-0.5 -207.6,-10.2 -409.1,-57.3 -600.1,-140.3 -210.3,-91.3 -399.2,-222 -561.3,-388.5 -162.2,-166.5 -289.5,-360.4 -378.4,-576.3 -92.1,-223.5 -138.8,-461 -138.8,-705.7 0,-244.8 46.7,-482.2 138.8,-705.8 88.9,-215.9 216.2,-409.8 378.4,-576.3 162.1,-166.4 351,-297.2 561.3,-388.5 217.7,-94.5 449,-142.5 687.3,-142.5 238.4,0 469.6,48 687.4,142.5 210.2,91.3 399.1,222.1 561.2,388.5 162.2,166.5 289.5,360.4 378.4,576.3 92.1,223.6 138.8,461 138.8,705.8 0,244.7 -46.7,482.2 -138.8,705.7"
         style="fill:#c5dbff;fill-opacity:1;fill-rule:nonzero;stroke:none"
         id="path392" /><path
         d="m 22211.9,4722.8 c -3.2,-144.3 -5.6,-241.4 -5.6,-241.4 -3.8,-55.6 -51.1,-97.8 -105.3,-93.9 l -366.1,26.3 c -54.2,3.9 -95.3,52.5 -91.5,108.1 0,0 10,97.4 24,240.9 2.7,27.4 5.5,55.6 8.4,85.5 31,319.5 74.6,786.2 89.6,994.2 13.9,203.8 32.3,681.7 43.2,976.1 1.2,30 2.2,57.5 3.1,83.2 3.5,99.6 5.4,164 5.4,164 3.7,55.6 51,97.8 105.2,93.9 l 366.1,-26.3 c 54.2,-3.9 95.3,-52.5 91.5,-108.1 0,0 -7.6,-63.2 -19.3,-161.3 -2.6,-25.6 -6.3,-54.6 -9.2,-85.4 -34.3,-292.6 -87.5,-766.3 -101.5,-971 -14.1,-207.2 -27.7,-676 -36.2,-997.2 -0.5,-30.9 -0.8,-60.1 -1.8,-87.6"
         style="fill:#ed7d2b;fill-opacity:1;fill-rule:nonzero;stroke:none"
         id="path394" /><path
         d="m 22051.8,4734.3 c -3.2,-144.3 -5.6,-241.4 -5.6,-241.4 -3.8,-55.6 -51.1,-97.8 -105.3,-93.9 l -206,14.8 c -54.2,3.9 -95.3,52.5 -91.5,108.1 0,0 10,97.4 24,240.9 2.7,27.4 5.5,55.6 8.4,85.5 31,319.5 74.6,786.2 89.6,994.2 13.9,203.8 32.3,681.7 43.2,976.1 1.2,30 2.2,57.5 3.1,83.2 3.5,99.6 5.4,164 5.4,164 3.7,55.6 51,97.8 105.2,93.9 l 206,-14.8 c 54.2,-3.9 95.3,-52.5 91.5,-108.1 0,0 -7.6,-63.1 -19.4,-161.3 -2.5,-25.6 -6.2,-54.6 -9.1,-85.3 -34.3,-292.7 -87.5,-766.4 -101.5,-971 -14.2,-207.2 -27.7,-676.1 -36.2,-997.2 -0.5,-31 -0.8,-60.2 -1.8,-87.7"
         style="fill:#f99746;fill-opacity:1;fill-rule:nonzero;stroke:none"
         id="path396" /><path
         d="m 22360.6,6864 c -2.6,-25.6 -6.3,-54.6 -9.2,-85.4 l -535.4,38.6 c -2.5,0.1 -5,0.3 -7.4,1.4 1.2,30 2.2,57.5 3.1,83.2 3.5,1.5 6.8,1.2 10.1,1 l 538.8,-38.8"
         style="fill:#f9ddbf;fill-opacity:1;fill-rule:nonzero;stroke:none"
         id="path398" /><path
         d="m 21667.4,4762.8 c 1.6,-0.9 3.3,-1.1 5,-1.2 l 539.5,-38.8 c 1,27.5 1.3,56.7 1.8,87.6 l -535.4,38.6 -2.5,-0.7 -8.4,-85.5"
         style="fill:#f9ddbf;fill-opacity:1;fill-rule:nonzero;stroke:none"
         id="path400" /><path
         d="m 22649.1,6824.3 c 0,14.3 0,1174 0,1174 v -1174"
         style="fill:#739cf3;fill-opacity:1;fill-rule:nonzero;stroke:none"
         id="path402" /><path
         d="m 22649.1,6813.5 c -5.8,0 -10.5,4.8 -10.5,10.8 v 1174 c 0,5.9 4.7,10.7 10.5,10.7 5.8,0 10.4,-4.8 10.4,-10.7 v -1174 c 0,-6 -4.6,-10.8 -10.4,-10.8"
         style="fill:#adcbff;fill-opacity:1;fill-rule:nonzero;stroke:none"
         id="path404" /><path
         d="m 22644.3,6615.9 v 0 c -22.3,0 -40.5,18.3 -40.5,40.5 v 144.4 c 0,22.2 18.2,40.4 40.5,40.4 22.3,0 40.5,-18.2 40.5,-40.4 v -144.4 c 0,-22.2 -18.2,-40.5 -40.5,-40.5"
         style="fill:#f99746;fill-opacity:1;fill-rule:nonzero;stroke:none"
         id="path406" /><path
         d="m 22764,5670.7 v 0 c -22.2,0 -40.5,18.2 -40.5,40.5 v 144.3 c 0,22.3 18.3,40.5 40.5,40.5 22.3,0 40.5,-18.2 40.5,-40.5 v -144.3 c 0,-22.3 -18.2,-40.5 -40.5,-40.5"
         style="fill:#f99746;fill-opacity:1;fill-rule:nonzero;stroke:none"
         id="path408" /><path
         d="m 1866.22,9386.9 c 8.77,31.9 17.89,63.6 27.35,95.3 13.05,43.8 26.78,87.5 41.09,131.2 46.29,-2.4 93.84,-9.9 135.16,-26.7 0,0 -125.92,-107.6 -203.6,-199.8"
         style="fill:#aec3ff;fill-opacity:1;fill-rule:nonzero;stroke:none"
         id="path410" /><path
         d="m 3045.68,8898.1 c -93.95,-214.7 -242.03,-240.6 -294.89,-216.2 -52.98,24.4 -332.64,255.6 -354.8,212.9 -22.27,-42.6 121.42,-255 254.5,-307.5 0,0 -350.88,-195.5 -493.19,-56.8 -142.42,138.7 -113.34,272.5 -202.9,356.6 -89.45,84.2 -179.94,114.7 -152.93,50.6 27.12,-64.2 202.56,-176.8 226.91,-304.4 24.24,-127.5 54.25,-218.1 -112.53,-132.3 -60.83,31.2 -131.58,81 -195.17,139 12.69,106.7 28.73,213.3 48.13,319.6 9.81,54.2 20.54,108.1 32.43,162 3.81,18.4 7.96,36.9 12.23,55.5 6.47,28.6 13.28,57.2 20.2,85.7 81.49,18.5 302.98,324.5 302.98,324.5 0,0 402.34,-94 507.26,-196.6 0,0 -425.09,-159.8 -360.34,-199.8 64.64,-39.9 514.65,106.1 514.65,106.1 0,0 341.64,-184.3 247.46,-398.9"
         style="fill:#aec3ff;fill-opacity:1;fill-rule:nonzero;stroke:none"
         id="path412" /><path
         d="m 2865.05,8952.5 c -555.28,167.6 -877.3,193.9 -1063.81,169.1 3.81,18.4 7.96,36.9 12.23,55.5 401.08,20.4 1029.88,-216.4 1051.58,-224.6"
         style="fill:#aec3ff;fill-opacity:1;fill-rule:nonzero;stroke:none"
         id="path414" /><path
         d="m 4657.5,10178.7 c -138.97,-339.2 -369.46,-385.5 -453.02,-349.3 -83.68,36.3 -529.66,387.1 -562.78,319.6 -33.13,-67.5 199.44,-394 409.5,-471.4 0,0 -541.31,-318.9 -769.03,-107.2 -227.83,211.6 -187.44,422 -330.67,550.2 -143.12,128.1 -285.67,172.3 -241,73.1 44.79,-99.2 323.18,-268.8 366.11,-467.4 42.82,-198.5 93.15,-339.1 -170.93,-211 -264.08,127.8 -651.19,470.7 -598.8,709.1 2.31,10.3 4.51,20.2 6.59,29.6 l 0.11,0.3 c 45.82,208.3 45.82,208.3 45.82,208.3 0,0 -7.62,17.8 -17.89,48.1 v 0.2 c 83.68,141.6 176.48,281.2 279.08,418.3 5.66,7.7 11.43,15.3 17.2,22.9 77.68,102.6 160.89,203.7 249.76,303.3 74.33,-1.5 151.2,-11.4 217.91,-36.7 0,0 -474.37,-425.6 -389.76,-509.1 84.72,-83.4 494.45,512.5 494.45,512.5 0,0 632.61,-131.7 800.43,-288.1 0,0 -658.58,-266.2 -555.98,-326.1 102.61,-60 800.78,185 800.78,185 0,0 541.19,-275.1 402.12,-614.2"
         style="fill:#aec3ff;fill-opacity:1;fill-rule:nonzero;stroke:none"
         id="path416" /><path
         d="m 4372.29,10257.2 c -1759.78,485.1 -2020.27,110.8 -2058.71,-2.9 l -0.11,-0.3 c -6.12,-18.3 -6.59,-29.6 -6.59,-29.6 -29.31,3.7 -79.86,-10.4 -137,-32.2 24.36,50 49.87,99.8 76.41,149.4 75.6,68.8 113.11,121 113.11,121 472.29,331.1 1959.92,-186.7 2012.89,-205.4"
         style="fill:#aec3ff;fill-opacity:1;fill-rule:nonzero;stroke:none"
         id="path418" /><path
         d="m 29951.6,5050.9 1.6,-547.5 c 0.2,-64.8 -52.7,-118 -117.5,-118.2 l -224.4,-0.6 c -68.5,-0.2 -124.8,55.7 -125,124.2 l -1.6,540.7 c -0.3,92.1 55.3,171.8 134.6,207.2 10.4,4.6 17,15.4 15.4,26.8 -0.4,3.2 -0.6,6.6 -0.7,10 v 28.9 l 166.7,0.5 0.1,-28.9 c 0,-3.9 -0.3,-7.6 -0.8,-11.2 -1.6,-10.2 3.6,-20.4 13.1,-24.5 81,-34.3 138.2,-114.4 138.5,-207.4"
         style="fill:#ffa969;fill-opacity:1;fill-rule:nonzero;stroke:none"
         id="path420" /><path
         d="m 29951.6,5050.9 1.6,-547.5 c 0.2,-64.8 -52.7,-118 -117.5,-118.2 l -141.1,-0.4 c -68.5,-0.2 -124.7,55.7 -124.9,124.2 l -1.6,540.8 c -0.3,92 55.2,171.8 134.6,207.1 3.8,1.7 7.1,4.3 9.7,7.4 4.4,5.3 6.7,12.3 5.7,19.4 -0.4,3.3 -0.7,6.6 -0.7,10 l -0.1,28.9 83.4,0.3 0.1,-28.9 c 0,-3.9 -0.3,-7.6 -0.8,-11.2 -1.6,-10.2 3.6,-20.4 13.1,-24.5 81,-34.3 138.2,-114.4 138.5,-207.4"
         style="fill:#ef7e29;fill-opacity:1;fill-rule:nonzero;stroke:none"
         id="path422" /><path
         d="m 29859.1,5050.6 1.6,-547.4 c 0.2,-64.8 -52.7,-118.1 -117.5,-118.2 l -48.6,-0.2 c -68.5,-0.2 -124.7,55.7 -124.9,124.2 l -1.6,540.8 c -0.3,92 55.2,171.8 134.6,207.1 3.8,1.7 7.1,4.3 9.7,7.4 2.1,-2.7 4.9,-4.8 8.3,-6.2 80.9,-34.3 138.1,-114.5 138.4,-207.5"
         style="fill:#f99746;fill-opacity:1;fill-rule:nonzero;stroke:none"
         id="path424" /><path
         d="m 29952.6,4682.7 -466.8,-1.4 -1,321.3 466.9,1.4 0.9,-321.3"
         style="fill:#f9ddbf;fill-opacity:1;fill-rule:nonzero;stroke:none"
         id="path426" /><path
         d="m 29809.8,5369.2 -185.4,-0.9 0.2,-43.9 185.4,0.9 -0.2,43.9"
         style="fill:#2c3a64;fill-opacity:1;fill-rule:nonzero;stroke:none"
         id="path428" /><path
         d="m 24397.4,9545.4 c 3.9,67 -5.8,130.4 -5.8,130.4 -50.5,-128.9 -120.1,-194.3 -169.5,-226.5 -16.2,-3.9 -29.1,-5.5 -35.6,-3.9 -27.3,6.6 -53.4,15.3 -78.3,25.6 73.1,56.4 144,145.6 148.3,151.2 -65.7,-60.5 -145.5,-102 -200.7,-126.1 -135.9,73.9 -229.1,194.6 -279.6,274.2 348.8,110.1 451.5,328.8 451.5,328.8 -310.1,-247.5 -447.4,-259.5 -495.5,-251 -0.6,1.3 -0.9,1.9 -0.9,1.9 466.5,123.6 595.7,668.7 753.1,859.8 157.3,191.1 348.4,45 348.4,45 0,0 -20.3,-676.1 -435.4,-1209.4"
         style="fill:#a9453d;fill-opacity:1;fill-rule:nonzero;stroke:none"
         id="path430" /><path
         d="m 25210.4,9705 c 0,0 304.8,-162 279.5,-307.1 -40.3,-231.2 -210.1,-735.5 -210.1,-735.5 l 495.8,247 88.7,-107 c 0,0 -602.2,-601.2 -814.3,-463.1 -212.2,138.1 160.4,1365.7 160.4,1365.7"
         style="fill:#f4a671;fill-opacity:1;fill-rule:nonzero;stroke:none"
         id="path432" /><path
         d="m 25863.4,8802.1 c 0,0 165.3,82.3 120.3,184.5 -44.9,102.3 -152.3,127.7 -173.1,89.6 -20.9,-38 -35.9,-167.2 -35.9,-167.2 l 88.7,-106.9"
         style="fill:#c0783d;fill-opacity:1;fill-rule:nonzero;stroke:none"
         id="path434" /><path
         d="m 25284.6,10589 c 0,0 -334.3,401.8 -511.3,144.7 0,0 -132.1,-54.8 -179.9,-279.6 -48.7,-229.3 103.8,-403.7 182.7,-360.6 50.5,27.6 88.8,-60.9 88.8,-60.9 l 419.7,556.4"
         style="fill:#a9453d;fill-opacity:1;fill-rule:nonzero;stroke:none"
         id="path436" /><path
         d="m 25179.6,9707.6 c 1.2,-0.5 -123,-65 -216.4,-39.5 -87.9,24 -199.2,53.5 -198,53.7 37.2,7.4 101.9,143 101.1,362.8 l 16.8,-3.4 282.9,-56 c 0,0 -6.5,-89 -6.6,-172.8 -0.2,-70.5 4,-137.2 20.2,-144.8"
         style="fill:#ffb27d;fill-opacity:1;fill-rule:nonzero;stroke:none"
         id="path438" /><path
         d="m 25166,10025.2 c 0,0 -6.5,-89 -6.6,-172.8 -158.3,4.4 -242,148.8 -276.3,228.8 l 282.9,-56"
         style="fill:#f4a671;fill-opacity:1;fill-rule:nonzero;stroke:none"
         id="path440" /><path
         d="m 24853.9,10112 c 0,0 -82.9,131.1 -102.9,243.2 -14.2,80 26.6,376.6 324.6,333.9 0,0 86.6,-8.6 167.9,-63.5 64.7,-43.7 158.1,-138.1 53.7,-396.9 l -27.1,-87.4 -416.2,-29.3"
         style="fill:#a9453d;fill-opacity:1;fill-rule:nonzero;stroke:none"
         id="path442" /><path
         d="m 25218.8,9945.8 c 0,0 -374.5,-6.2 -374.7,227.1 -0.3,233.3 -48.8,389.6 190.3,403.4 239.1,13.8 285.7,-75.1 304.7,-153 19,-77.8 -22.8,-469.9 -120.3,-477.5"
         style="fill:#ffb27d;fill-opacity:1;fill-rule:nonzero;stroke:none"
         id="path444" /><path
         d="m 25205,10582 c 0,0 -102.6,-273.6 -259.9,-314.1 -157.4,-40.5 -225.6,1.7 -225.6,1.7 0,0 120.7,95.9 145.7,263.3 0,0 262.4,179.4 339.8,49.1"
         style="fill:#a9453d;fill-opacity:1;fill-rule:nonzero;stroke:none"
         id="path446" /><path
         d="m 25179.6,10559.8 c 0,0 76.5,-61.1 95.2,-120.5 18.7,-59.4 27.1,-181.7 62.7,-177.5 0,0 77.3,186 -9.6,291.2 -92,111.6 -148.3,6.8 -148.3,6.8"
         style="fill:#a9453d;fill-opacity:1;fill-rule:nonzero;stroke:none"
         id="path448" /><path
         d="m 24414.6,7960 c 131.3,294.5 194.1,377.8 196.3,470.4 0.6,25.3 -1.2,63.2 -6.8,110 -6.8,58.1 -19.4,129.8 -40,208 h -0.1 c -0.1,0.6 -0.3,1.5 -0.6,2.4 -1.7,6.8 -5.1,21.9 -9.5,43.5 -35.9,177.5 -131.5,798.4 211.9,928.4 3.5,0.4 7,0.6 10.3,0.9 149.8,10.1 435.5,-18.8 435.5,-18.8 0,0 52.8,-73.3 110.6,-182.9 64.2,-121.9 134.6,-288.8 145.1,-449.2 10.6,-163.9 -44.8,-277.9 -68.6,-443 -20.6,-141.9 -17.9,-321.4 70.1,-602.8 194.5,-621.7 -1126.8,-229.7 -1054.2,-66.9"
         style="fill:#ffb27d;fill-opacity:1;fill-rule:nonzero;stroke:none"
         id="path450" /><path
         d="m 25193.8,10550.6 c 0,0 -73.1,-286.6 -271.6,-378.4 0,0 198.5,176.1 215.4,365.3 16.9,189.1 56.2,13.1 56.2,13.1"
         style="fill:#a9453d;fill-opacity:1;fill-rule:nonzero;stroke:none"
         id="path452" /><path
         d="m 25398.7,8629.7 c 0,0 -498.6,-142.8 -794.6,-89.3 -6.8,58.1 -19.4,129.8 -40,208 h -0.1 c -0.1,0.6 -0.3,1.5 -0.6,2.4 -1.7,6.8 -5.1,21.9 -9.5,43.5 94.4,55.3 205.8,94.8 205.8,94.8 l 639,-259.4"
         style="fill:#f4a671;fill-opacity:1;fill-rule:nonzero;stroke:none"
         id="path454" /><path
         d="m 25464.2,8956.1 c -12.3,-108.3 -47.8,-203.1 -65.5,-326.4 -342.8,-44.9 -716.9,76.1 -834.6,118.7 h -0.1 c -0.1,0.6 -0.3,1.5 -0.6,2.4 -15.7,63 -182.7,826.1 202.4,971.9 49.7,-16.2 86.4,-71.3 154.1,-97.5 138.1,-53.4 297.3,-68.6 406.6,-58.2 44.5,-84.6 87.7,-235.8 116.2,-346.5 12.5,-48.9 21.4,-98.7 24.6,-147.8 2.7,-41.6 1.2,-79.8 -3.1,-116.6"
         style="fill:#aec3ff;fill-opacity:1;fill-rule:nonzero;stroke:none"
         id="path456" /><path
         d="m 25179.6,9707.6 c 0,0 87.7,3.8 115.8,-14.9 28.1,-18.8 170.5,-185.5 178,-208 0,0 -176.1,15 -192.9,3.8 0,0 64.1,37.4 -100.9,219.1"
         style="fill:#aec3ff;fill-opacity:1;fill-rule:nonzero;stroke:none"
         id="path458" /><path
         d="m 26584.2,9454.8 c 0,0 281,119.8 292.2,82.4 11.2,-37.5 33.7,-206.1 -26.2,-228.5 -60,-22.5 -277.3,0 -277.3,0 l 11.3,146.1"
         style="fill:#c0783d;fill-opacity:1;fill-rule:nonzero;stroke:none"
         id="path460" /><path
         d="m 25965.7,4515.5 -137.3,41.8 c 0,0 -635.4,731.9 -492.6,1500.3 1.5,8.2 1.5,16.6 -2.2,24 l -0.1,0.2 c -27.5,54.4 -145.7,291.3 -268.5,585.3 -58.7,140.8 -118.5,294.7 -169.8,448 -30.3,90.5 -57.7,180.8 -80.2,268 l -0.5,2 -0.2,1 c -55.2,215.3 -80.3,411.5 -45.6,545.7 l 686,163.8 c 0,0 68.3,-276.9 140.6,-635 101.4,-501.7 210.9,-1162.5 152.3,-1444.1 -52.1,-249.8 218.1,-1501 218.1,-1501"
         style="fill:#ffb27d;fill-opacity:1;fill-rule:nonzero;stroke:none"
         id="path462" /><path
         d="m 25708.4,8876.4 c 0,0 59,-65.3 77.2,-150.3 0,0 77.3,75.1 81.9,76.9 4.5,1.8 72.3,39.7 101.8,83.2 29.5,43.6 49.2,79.7 9.9,145.2 -39.4,65.6 -151.8,84.3 -164.9,71.2 -13.1,-13.1 -48.7,-176.1 -48.7,-176.1 0,0 -4,-12.3 -57.2,-50.1"
         style="fill:#213f7a;fill-opacity:1;fill-rule:nonzero;stroke:none"
         id="path464" /><path
         d="m 25065,6667.1 c -58.7,140.8 -118.5,294.7 -169.8,448 -30.3,90.5 -57.7,180.8 -80.2,268 l -0.5,2 -0.2,1 51.9,5.7 526.6,58.2 c 0,0 3.4,-39.7 7.9,-105.7 11.1,-159.9 -158.2,-434.8 -335.7,-677.2"
         style="fill:#f4a671;fill-opacity:1;fill-rule:nonzero;stroke:none"
         id="path466" /><path
         d="m 25363.8,7911.3 -308.6,-685.6 c -1.6,0.8 -3.2,1.5 -4.7,2.3 -175,-480.9 -426,-1101.9 -622.8,-1311.7 -174.6,-186 -596.2,-1394.6 -596.2,-1394.6 l -113.3,40.3 c 0,0 -142.9,1022.8 379.5,1604.1 5.6,6.2 10,13.3 10.7,21.6 v 0.3 c 4.5,56.1 24.1,285.6 65.4,568.6 10,68.7 21.3,140.5 33.9,213.7 18.4,106.2 39.6,215.5 64,322.6 0.4,1.8 0.8,3.5 1.2,5.2 1,26 3.5,69.3 9.6,125.8 8.4,77.1 23.5,178.6 50.9,293.5 0.9,3.4 1.6,6.8 2.5,10.3 61.7,254.1 149.8,382.1 149.8,382.1 0,0 469.3,-129.7 632.3,-140.9 162.9,-11.3 245.8,-57.6 245.8,-57.6"
         style="fill:#ffb27d;fill-opacity:1;fill-rule:nonzero;stroke:none"
         id="path468" /><path
         d="m 25595.3,7460.6 c -23.6,-37.2 -100.3,-79.2 -194.6,-116.3 l -1.1,-0.5 c -109.4,-42.8 -242.2,-79.1 -343.4,-93.9 -85.8,-12.5 -149,-9.6 -156,17.9 -55.2,215.3 -166.2,529.8 -131.5,664 l 686,163.8 c 0,0 68.3,-277 140.6,-635"
         style="fill:#f99746;fill-opacity:1;fill-rule:nonzero;stroke:none"
         id="path470" /><path
         d="m 23711,4368.1 h 78.9 c 26.4,4.2 45.9,11.8 73,15.4 41.1,5.4 60,-11.5 63.8,-15.4 l 0.7,-0.7 h 334.9 c 8.5,12 0.4,39.9 -7.5,60.4 -5.4,13.9 -17,24.5 -31.4,28.6 -35.5,10.3 -105.5,19.5 -169.7,77.5 -36,32.6 -174.2,119.9 -174.2,119.9 l -0.7,0.1 c -3,0 -17.5,-4.4 -80.3,-57.5 -32.5,-27.4 -87.8,38.7 -87.8,38.7 0,0 -10.4,-8.6 -18.2,-24.6 -6.2,-12.7 -10.8,-30.1 -7.2,-51.5 5,-30.1 -11.1,-86.2 -24,-124.2 -7.8,-22.9 -14.4,-39.2 -14.4,-39.2 0,0 -3.7,-19 64.1,-27.5"
         style="fill:#485ca6;fill-opacity:1;fill-rule:nonzero;stroke:none"
         id="path472" /><path
         d="m 23692.5,4610.5 c 18.8,-13.3 58.6,-39.4 84.9,-42.9 35.6,-4.6 102.1,86.2 102.1,86.2 l -0.7,0.1 c -3,0 -17.5,-4.4 -80.3,-57.5 -32.5,-27.4 -87.8,38.7 -87.8,38.7 0,0 -10.4,-8.6 -18.2,-24.6"
         style="fill:#a9453d;fill-opacity:1;fill-rule:nonzero;stroke:none"
         id="path474" /><path
         d="m 23711,4368.1 h 78.9 c 26.4,4.2 45.9,11.8 73,15.4 41.1,5.4 60,-11.5 63.8,-15.4 l 0.7,-0.7 h 334.9 c 8.5,12 0.4,39.9 -7.5,60.4 -10.2,9 -13.1,-39.3 -18.7,-47 -5.6,-7.7 -273.2,-2.8 -288.7,8.4 -15.4,11.2 -61.8,30.9 -126.4,15.5 -56.3,-13.5 -139.2,21 -159.7,30.1 -7.8,-22.9 -14.4,-39.2 -14.4,-39.2 0,0 -3.7,-19 64.1,-27.5"
         style="fill:#a9453d;fill-opacity:1;fill-rule:nonzero;stroke:none"
         id="path476" /><path
         d="m 25767.7,4368.1 h 78.8 c 26.4,4.2 45.9,11.8 73,15.4 41.1,5.4 60.1,-11.5 63.8,-15.4 l 0.8,-0.7 h 334.9 c 8.4,12 0.3,39.9 -7.6,60.4 -5.3,13.9 -17,24.5 -31.4,28.6 -35.5,10.3 -105.5,19.5 -169.6,77.5 -36.1,32.6 -174.2,119.9 -174.2,119.9 l -0.7,0.1 c -3.1,0 -17.5,-4.4 -80.3,-57.5 -32.5,-27.4 -87.9,38.7 -87.9,38.7 0,0 -10.4,-8.6 -18.1,-24.6 -6.3,-12.7 -10.8,-30.1 -7.2,-51.5 5,-30.1 -11.2,-86.2 -24,-124.2 -7.8,-22.9 -14.4,-39.2 -14.4,-39.2 0,0 -3.8,-19 64.1,-27.5"
         style="fill:#485ca6;fill-opacity:1;fill-rule:nonzero;stroke:none"
         id="path478" /><path
         d="m 25749.2,4610.5 c 18.8,-13.3 58.5,-39.4 84.9,-42.9 35.5,-4.6 102.1,86.2 102.1,86.2 l -0.7,0.1 c -3.1,0 -17.5,-4.4 -80.3,-57.5 -32.5,-27.4 -87.9,38.7 -87.9,38.7 0,0 -10.4,-8.6 -18.1,-24.6"
         style="fill:#a9453d;fill-opacity:1;fill-rule:nonzero;stroke:none"
         id="path480" /><path
         d="m 25767.7,4368.1 h 78.8 c 26.4,4.2 45.9,11.8 73,15.4 41.1,5.4 60.1,-11.5 63.8,-15.4 l 0.8,-0.7 h 334.9 c 8.4,12 0.3,39.9 -7.6,60.4 -10.2,9 -13,-39.3 -18.7,-47 -5.6,-7.7 -273.2,-2.8 -288.6,8.4 -15.5,11.2 -61.8,30.9 -126.5,15.5 -56.2,-13.5 -139.1,21 -159.6,30.1 -7.8,-22.9 -14.4,-39.2 -14.4,-39.2 0,0 -3.8,-19 64.1,-27.5"
         style="fill:#a9453d;fill-opacity:1;fill-rule:nonzero;stroke:none"
         id="path482" /><path
         d="m 25464.2,8956.1 c -590.7,28.5 -840.8,264.5 -840.8,264.5 l 819.3,-0.1 c 12.5,-48.9 21.4,-98.7 24.6,-147.8 2.7,-41.6 1.2,-79.8 -3.1,-116.6"
         style="fill:#94b0ed;fill-opacity:1;fill-rule:nonzero;stroke:none"
         id="path484" /><path
         d="m 26572.9,9308.7 c 0,0 -474.9,-156.5 -820.4,-164.9 -290.7,-7.1 -793.2,-42.9 -1060.7,45.7 -50.5,16.7 -86,38.5 -100.7,66.7 -92.7,177 60,360 60,360 0,0 86.3,-8.8 216.1,-21.2 327.7,-31.5 749.8,-127.5 949,-121.5 278.1,8.4 532,-11.2 768,-18.7 l -11.3,-146.1"
         style="fill:#ffb27d;fill-opacity:1;fill-rule:nonzero;stroke:none"
         id="path486" /><path
         d="m 24691.8,9189.5 c -50.5,16.7 -86,38.5 -100.7,66.7 -92.7,177 60,360 60,360 0,0 86.3,-8.8 216.1,-21.2 -30.2,-31.3 -190.1,-207.1 -175.4,-405.5"
         style="fill:#aec3ff;fill-opacity:1;fill-rule:nonzero;stroke:none"
         id="path488" /><path
         d="m 26509.3,9457.6 c 0,0 12.5,-104.3 -23.3,-176 0,0 80.7,25.1 87.8,24.7 7,-0.3 169.6,-13.3 227.2,-7 57.6,6.3 87.6,1.9 93.2,105.8 5.6,104 2.8,146.1 -16.9,147.1 -19.6,0.9 -114.2,-16 -288.4,-90.9 0,0 -10.3,-5.1 -79.6,-3.7"
         style="fill:#213f7a;fill-opacity:1;fill-rule:nonzero;stroke:none"
         id="path490" /><path
         d="m 24485.7,8109.8 c 0,0 -175.2,-211 -212.8,-811.7 0,0 235.8,-48.1 286.4,-33.1 50.6,15 138.6,230.4 138.6,230.4 0,0 -48.7,-211.7 -1.9,-251 46.9,-39.3 342.8,-74.9 342.8,-74.9 l 352.2,783 c 0,0 -489.9,56.2 -905.3,157.3"
         style="fill:#f99746;fill-opacity:1;fill-rule:nonzero;stroke:none"
         id="path492" /><path
         d="m 24464.7,8093.9 c 0,0 429.9,-216.4 724.9,-151.7 295,64.6 279.2,84.7 279.2,84.7 l -48.8,173.8 c 0,0 -154.5,-87.1 -359.6,-78.7 -205.2,8.4 -508.6,140.5 -508.6,140.5 l -87.1,-168.6"
         style="fill:#ef7e29;fill-opacity:1;fill-rule:nonzero;stroke:none"
         id="path494" /></g></g></svg>
