<?xml version="1.0" standalone="no"?>
<!DOCTYPE svg PUBLIC "-//W3C//DTD SVG 20010904//EN"
 "http://www.w3.org/TR/2001/REC-SVG-20010904/DTD/svg10.dtd">
<svg version="1.0" xmlns="http://www.w3.org/2000/svg"
 width="3264.000000pt" height="3264.000000pt" viewBox="0 0 3264.000000 3264.000000"
 preserveAspectRatio="xMidYMid meet">

<g transform="translate(0.000000,3264.000000) scale(0.100000,-0.100000)"
fill="#000000" stroke="none">
<path d="M23565 25260 c-191 -10 -562 -43 -734 -66 -109 -14 -171 -34 -171
-54 0 -6 -9 -10 -19 -10 -11 0 -21 -3 -23 -7 -5 -12 -75 -63 -86 -63 -4 0 -19
-11 -32 -25 -13 -14 -28 -25 -34 -25 -6 -1 -27 -14 -46 -30 -19 -17 -42 -30
-51 -30 -9 0 -19 -7 -23 -15 -3 -8 -11 -15 -18 -15 -8 0 -28 -13 -46 -29 -17
-17 -47 -38 -64 -48 -18 -10 -35 -20 -38 -23 -19 -19 -70 -48 -95 -54 -16 -4
-32 -11 -35 -14 -9 -13 -75 -58 -125 -87 -27 -15 -52 -32 -55 -36 -10 -14
-344 -221 -375 -232 -27 -9 -92 -51 -105 -68 -3 -4 -29 -18 -57 -33 -29 -14
-53 -30 -53 -35 0 -4 -18 -14 -40 -21 -22 -7 -40 -16 -40 -20 0 -3 -18 -14
-40 -24 -22 -10 -40 -22 -40 -27 0 -6 -25 -21 -55 -34 -30 -14 -55 -29 -55
-35 0 -5 -6 -10 -13 -10 -6 0 -25 -13 -40 -30 -16 -16 -36 -30 -46 -30 -9 0
-22 -5 -29 -12 -9 -9 -12 -9 -12 2 0 11 -3 10 -12 -2 -7 -9 -32 -26 -55 -38
-24 -12 -43 -24 -43 -27 0 -2 5 -1 12 3 7 4 8 3 4 -5 -4 -6 -12 -9 -17 -5 -15
9 -59 -5 -59 -19 0 -11 -91 -59 -135 -71 -12 -4 -38 -22 -58 -41 -20 -19 -46
-35 -57 -35 -11 0 -20 -3 -20 -8 0 -7 -37 -25 -77 -37 -13 -3 -23 -11 -23 -16
0 -5 -9 -9 -19 -9 -11 0 -23 -5 -26 -10 -4 -6 -22 -17 -41 -25 -19 -8 -34 -19
-34 -24 0 -6 -11 -11 -25 -11 -14 0 -25 -4 -25 -10 0 -5 -9 -10 -20 -10 -12 0
-38 -9 -60 -20 -22 -11 -46 -20 -54 -20 -8 0 -18 -9 -21 -20 -4 -12 -15 -20
-29 -20 -12 0 -26 -4 -32 -10 -11 -11 -89 -56 -126 -72 -16 -7 -28 -18 -28
-25 0 -7 -8 -13 -17 -13 -15 0 -85 -31 -236 -106 -16 -8 -37 -14 -48 -14 -10
0 -19 -4 -19 -10 0 -5 -6 -10 -14 -10 -8 0 -16 -6 -19 -14 -3 -8 -24 -17 -46
-21 -23 -4 -43 -11 -47 -16 -3 -5 -18 -9 -34 -9 -16 0 -35 -7 -44 -15 -8 -8
-21 -15 -30 -15 -8 0 -17 -4 -20 -9 -3 -4 -26 -14 -51 -21 -25 -7 -48 -17 -51
-21 -3 -5 -41 -9 -86 -9 -71 0 -80 -2 -85 -20 -3 -11 -10 -20 -16 -20 -6 0
-19 -8 -30 -17 -17 -17 -51 -18 -399 -18 -350 0 -381 1 -392 18 -27 36 -66 21
-166 -64 -324 -276 -705 -658 -1001 -1004 -736 -858 -1352 -1944 -1713 -3019
-506 -1506 -573 -3207 -191 -4803 290 -1209 909 -2458 1730 -3488 872 -1095
1939 -1954 3200 -2575 1056 -520 2132 -811 3365 -911 215 -17 945 -23 1195
-10 1656 89 3083 547 4477 1438 610 390 1214 891 1706 1413 279 296 568 640
544 648 -6 2 -263 199 -569 438 -307 238 -560 433 -563 433 -3 0 -27 -28 -55
-62 -331 -408 -825 -878 -1290 -1227 -1129 -846 -2418 -1368 -3760 -1524 -365
-43 -523 -51 -990 -51 -544 1 -808 19 -1265 90 -1370 212 -2714 819 -3815
1724 -1072 880 -1915 2107 -2355 3428 -268 807 -385 1636 -359 2557 35 1232
375 2396 1022 3501 753 1285 1856 2314 3210 2991 902 452 1792 707 2812 805
282 27 905 37 1205 20 737 -42 1385 -161 2030 -371 228 -75 212 -71 217 -49 3
12 14 19 29 19 25 0 33 27 14 46 -7 7 2 14 25 23 23 8 35 19 35 31 0 11 7 23
15 28 9 4 17 22 19 38 2 21 9 30 25 32 27 4 62 32 55 44 -3 4 -15 9 -27 9 -18
1 -19 2 -4 6 19 5 57 38 57 49 0 4 11 17 26 30 14 13 22 24 19 24 -9 0 17 23
40 36 11 6 20 18 20 26 0 14 38 68 48 68 11 0 67 55 67 67 0 7 9 17 21 23 12
7 18 18 15 26 -3 9 3 18 17 24 34 14 53 33 61 58 4 12 13 22 21 22 7 0 15 10
17 23 2 12 13 26 26 32 12 5 22 14 22 20 0 6 16 25 35 42 19 18 35 35 35 38 0
3 8 15 19 26 16 17 19 18 31 4 15 -18 39 -19 62 -1 22 16 13 26 -24 26 -15 0
-28 5 -28 10 0 6 18 10 39 10 29 0 47 7 70 29 18 17 40 33 51 36 10 3 24 12
30 20 10 12 9 15 -4 15 -16 0 -16 1 -2 16 9 9 24 13 35 9 11 -3 22 -1 26 5 7
11 -35 32 -240 115 -894 364 -1764 564 -2785 640 -244 19 -935 27 -1175 15z
m3855 -750 c-19 -13 -30 -13 -30 0 0 6 10 10 23 10 18 0 19 -2 7 -10z m-42
-32 c-2 -6 -10 -14 -16 -16 -7 -2 -10 2 -6 12 7 18 28 22 22 4z m-7275 -895
c-7 -2 -19 -2 -25 0 -7 3 -2 5 12 5 14 0 19 -2 13 -5z m-1483 -543 c0 -5 -18
-10 -40 -10 -22 0 -40 5 -40 10 0 6 18 10 40 10 22 0 40 -4 40 -10z"/>
<path d="M2350 25085 c0 -13 -43 -15 -330 -15 l-330 0 0 -5175 0 -5175 3740 0
3740 0 0 715 0 715 -1652 2 -1653 3 -3 2378 -2 2377 3910 0 3910 0 0 720 0
720 -4630 0 -4630 0 0 -3100 0 -3100 -642 2 -643 3 0 3755 0 3755 5273 3 5272
2 0 715 0 715 -5665 0 c-5029 0 -5665 -2 -5665 -15z"/>
<path d="M26815 23432 c-14 -10 -17 -39 -5 -47 5 -3 10 1 10 11 0 9 8 23 18
30 14 11 14 13 2 14 -8 0 -19 -4 -25 -8z"/>
<path d="M26788 23363 c7 -3 16 -2 19 1 4 3 -2 6 -13 5 -11 0 -14 -3 -6 -6z"/>
<path d="M30019 22990 c-11 -23 -21 -30 -48 -32 -51 -4 -53 -28 -2 -28 23 0
41 -4 41 -9 0 -5 -9 -7 -19 -4 -10 3 -30 -2 -43 -11 -15 -10 -42 -15 -71 -14
-42 2 -67 -5 -56 -16 3 -3 25 -6 51 -8 25 -2 44 -6 41 -10 -2 -5 -11 -8 -19
-8 -8 0 -14 -4 -14 -10 0 -5 -20 -10 -45 -10 -25 0 -45 -4 -45 -10 0 -5 -8
-10 -18 -10 -10 0 -43 -12 -72 -26 -54 -26 -54 -26 -30 -40 28 -15 19 -18 -52
-14 -34 1 -50 -2 -53 -12 -4 -10 -16 -13 -36 -10 -20 3 -34 0 -40 -9 -14 -23
-11 -29 16 -29 16 0 25 -6 25 -15 0 -9 -9 -15 -25 -15 -14 0 -25 -5 -25 -11 0
-5 -5 -7 -10 -4 -6 4 -8 15 -5 26 8 23 -16 26 -34 5 -9 -11 -9 -15 1 -19 7 -3
3 -6 -9 -6 -13 -1 -23 -5 -23 -11 0 -14 -37 -13 -42 2 -3 7 -12 9 -22 5 -27
-11 -10 -25 39 -33 50 -7 56 -16 23 -30 -26 -11 -58 -7 -58 7 0 5 -15 9 -34 9
-33 0 -53 -20 -40 -41 3 -5 -6 -9 -19 -9 -25 0 -37 -21 -37 -67 0 -15 -6 -23
-18 -23 -10 0 -23 -5 -30 -12 -9 -9 -12 -7 -12 10 0 15 -6 22 -20 22 -11 0
-20 -4 -20 -10 0 -5 -25 -10 -55 -10 -44 0 -56 -4 -65 -20 -6 -11 -17 -20 -25
-20 -8 0 -15 -7 -15 -15 0 -11 11 -15 40 -15 28 0 40 4 40 14 0 8 -6 17 -12
19 -7 3 10 5 37 5 28 0 39 -3 26 -5 -13 -3 -26 -13 -28 -24 -3 -10 -9 -19 -14
-19 -5 0 -9 -9 -9 -20 0 -15 -7 -20 -26 -20 -14 0 -34 -5 -45 -10 -17 -10 -19
-7 -19 20 0 25 -4 30 -25 30 -26 0 -29 -6 -25 -67 1 -29 -1 -33 -24 -33 -14 0
-26 -4 -26 -10 0 -5 -7 -10 -16 -10 -8 0 47 -50 123 -112 368 -298 745 -662
1022 -987 58 -69 117 -137 131 -152 l25 -28 560 424 c308 234 564 431 569 439
22 32 -499 611 -819 910 -204 190 -303 276 -320 276 -23 0 -18 -18 8 -23 16
-3 13 -5 -10 -6 -18 0 -33 -5 -33 -11 0 -5 -7 -10 -15 -10 -8 0 -15 -7 -15
-15 0 -8 -7 -15 -15 -15 -21 0 -19 11 10 42 30 32 32 48 6 48 -12 0 -24 -12
-32 -30z m-382 -316 c-3 -3 -12 -4 -19 -1 -8 3 -5 6 6 6 11 1 17 -2 13 -5z"/>
<path d="M29860 22920 c0 -5 5 -10 10 -10 6 0 10 5 10 10 0 6 -4 10 -10 10 -5
0 -10 -4 -10 -10z"/>
<path d="M29200 22550 c0 -5 7 -10 16 -10 8 0 12 5 9 10 -3 6 -10 10 -16 10
-5 0 -9 -4 -9 -10z"/>
<path d="M23790 22533 c-629 -19 -1269 -135 -1845 -333 -1271 -436 -2398
-1256 -3157 -2295 -429 -590 -777 -1303 -968 -1990 -70 -251 -131 -564 -165
-839 -9 -71 -18 -133 -20 -136 -2 -4 -12 -116 -21 -251 -18 -261 -15 -743 6
-964 90 -974 352 -1798 830 -2610 831 -1411 2219 -2460 3835 -2899 773 -210
1685 -277 2510 -185 857 95 1642 346 2395 764 548 305 1004 649 1438 1083 145
146 409 441 432 483 8 14 -89 93 -551 449 -309 237 -566 433 -572 436 -7 2
-56 -47 -110 -110 -257 -299 -626 -622 -987 -863 -862 -574 -1774 -843 -2866
-843 -996 0 -1967 302 -2832 882 -300 201 -664 522 -918 808 -412 465 -761
1067 -958 1652 -316 939 -314 2043 6 2983 336 991 979 1847 1829 2436 689 477
1505 787 2313 879 663 75 1313 33 1916 -126 918 -241 1811 -799 2465 -1538 71
-80 133 -146 137 -146 7 0 1081 844 1126 885 29 26 -477 569 -748 801 -295
253 -806 620 -818 586 -6 -20 -25 -13 -19 8 6 23 -4 27 -49 22 -29 -4 -34 -8
-34 -31 0 -41 -11 -71 -26 -71 -8 0 -14 7 -14 15 0 18 -16 20 -23 3 -3 -7 -6
-4 -6 6 -1 16 -4 17 -13 8 -7 -7 -20 -12 -30 -12 -14 0 -18 -8 -18 -39 0 -39
1 -40 38 -44 34 -3 33 -4 -10 -5 l-48 -2 0 45 c0 41 -2 45 -24 45 -14 0 -28
-4 -31 -10 -3 -5 -15 -10 -25 -10 -14 0 -20 -9 -23 -32 l-4 -33 -1 33 c-2 25
-6 32 -22 32 -16 0 -20 -7 -20 -30 0 -23 -5 -30 -19 -30 -11 0 -26 -7 -35 -15
-8 -8 -19 -15 -24 -15 -6 0 -12 7 -16 15 -9 24 -46 18 -73 -12 -22 -23 -23
-27 -9 -35 20 -11 21 -28 1 -28 -8 0 -15 -4 -15 -9 0 -5 -27 -11 -61 -13 -38
-3 -64 -10 -70 -19 -6 -10 -9 -1 -9 29 0 40 -1 42 -30 42 -16 0 -30 4 -30 9 0
5 -12 11 -27 14 -16 3 -40 9 -55 13 -22 5 -28 3 -28 -10 0 -9 8 -16 18 -17 13
0 14 -2 2 -6 -8 -3 -17 -9 -20 -14 -3 -4 -18 -11 -33 -14 -21 -6 -27 -4 -27 9
0 11 -9 16 -29 16 -16 0 -31 6 -35 15 -7 19 -35 19 -57 -1 -16 -14 -18 -13
-24 18 -4 18 -7 45 -7 61 0 15 -4 27 -9 27 -5 0 -9 -7 -9 -15 0 -9 -9 -15 -25
-15 -33 0 -63 -31 -68 -72 -3 -25 -4 -22 -5 16 -1 33 3 52 13 60 18 13 9 56
-11 56 -8 0 -17 -13 -20 -30 -5 -21 -12 -30 -25 -30 -11 0 -19 -7 -19 -15 0
-8 -7 -15 -15 -15 -8 0 -15 -4 -15 -10 0 -15 -17 -12 -24 5 -3 9 6 25 22 40
15 14 21 25 13 25 -8 0 -11 6 -7 15 4 11 -2 15 -24 15 -24 0 -29 -5 -32 -27
-2 -17 -9 -28 -18 -28 -11 0 -14 10 -13 40 2 22 7 41 13 43 5 2 10 19 10 37 0
31 -2 33 -32 31 -29 -1 -33 2 -36 27 -2 19 1 27 12 27 11 0 16 9 16 30 0 20
-5 30 -15 30 -10 0 -15 -10 -15 -30 0 -30 -11 -37 -44 -24 -18 7 -22 54 -6 54
7 0 10 24 8 63 -3 56 -5 62 -25 65 -13 2 -23 10 -23 18 0 17 41 97 53 102 4 2
7 14 7 26 0 12 9 40 20 61 11 22 18 45 15 52 -2 7 1 13 8 13 14 0 37 45 37 72
0 10 -7 18 -15 18 -8 0 -15 -6 -15 -14 0 -7 -7 -19 -15 -26 -8 -7 -15 -21 -15
-31 0 -23 -18 -25 -27 -2 -4 10 2 23 15 34 14 10 22 29 22 47 0 29 -1 29 -137
70 -676 201 -1370 289 -2113 265z m2157 -750 c-3 -10 -5 -4 -5 12 0 17 2 24 5
18 2 -7 2 -21 0 -30z m93 -234 c0 -38 -24 -35 -28 4 -2 19 1 27 12 27 11 0 16
-10 16 -31z m1080 -159 c0 -5 -2 -10 -4 -10 -3 0 -8 5 -11 10 -3 6 -1 10 4 10
6 0 11 -4 11 -10z m-670 -80 c0 -20 -5 -30 -15 -30 -10 0 -15 10 -15 30 0 20
5 30 15 30 10 0 15 -10 15 -30z m528 -21 c-2 -6 -8 -10 -13 -10 -5 0 -11 4
-13 10 -2 6 4 11 13 11 9 0 15 -5 13 -11z m-118 -23 c0 -11 -19 -15 -25 -6 -3
5 1 10 9 10 9 0 16 -2 16 -4z"/>
<path d="M29167 22523 c-14 -13 -6 -23 18 -23 16 0 25 6 25 15 0 15 -31 21
-43 8z"/>
<path d="M29128 22473 c7 -3 16 -2 19 1 4 3 -2 6 -13 5 -11 0 -14 -3 -6 -6z"/>
<path d="M28774 22265 c25 -19 50 -19 66 0 11 13 6 15 -36 15 -45 -1 -48 -2
-30 -15z"/>
<path d="M26080 21960 c0 -5 5 -10 10 -10 6 0 10 5 10 10 0 6 -4 10 -10 10 -5
0 -10 -4 -10 -10z"/>
<path d="M26047 21913 c-13 -12 -7 -23 13 -23 11 0 20 7 20 15 0 15 -21 21
-33 8z"/>
<path d="M26170 21540 c0 -22 5 -40 10 -40 6 0 10 18 10 40 0 22 -4 40 -10 40
-5 0 -10 -18 -10 -40z"/>
<path d="M27330 21536 c0 -9 5 -16 10 -16 6 0 10 4 10 9 0 6 -4 13 -10 16 -5
3 -10 -1 -10 -9z"/>
<path d="M26990 21470 c0 -5 7 -10 15 -10 8 0 15 5 15 10 0 6 -7 10 -15 10 -8
0 -15 -4 -15 -10z"/>
<path d="M26633 21423 c-25 -10 -12 -23 22 -23 36 0 47 13 19 24 -18 7 -23 7
-41 -1z"/>
<path d="M1690 10325 l0 -3095 720 0 720 0 0 2380 0 2380 645 0 645 0 2 -2377
3 -2378 718 -3 717 -2 0 2380 0 2380 1655 0 1655 0 0 715 0 715 -3740 0 -3740
0 0 -3095z"/>
</g>
</svg>
